<?xml version="1.0" encoding="utf-8"?>
<!-- Generator: Adobe Illustrator 19.1.0, SVG Export Plug-In . SVG Version: 6.00 Build 0)  -->
<svg version="1.1" id="Layer_1" xmlns="http://www.w3.org/2000/svg" xmlns:xlink="http://www.w3.org/1999/xlink" x="0px" y="0px"
	 width="500px" height="500px" viewBox="0 0 500 500" enable-background="new 0 0 500 500" xml:space="preserve">
<g>
	<path fill="#020202" d="M49.9,488.1c-12.3,0-24.5-4.6-33.8-13.9c-18.2-18.6-18.2-49,0-67.6l156.7-156.3L16.1,94
		c-18.2-18.6-18.2-49,0-67.6c18.6-18.6,49-18.6,67.6,0l190,190.1c18.2,18.6,18.2,49,0,67.6l-190,190.1
		C74.4,483.4,62.1,488.1,49.9,488.1z M484.9,284.1c18.2-18.6,18.2-49,0-67.6L294.8,26.5c-18.6-18.6-49-18.6-67.6,0
		c-18.2,18.6-18.2,49,0,67.6l156.7,156.3L227.3,406.6c-18.2,18.6-18.2,49,0,67.6c9.3,9.3,21.5,13.9,33.8,13.9
		c12.2,0,24.5-4.6,33.8-13.9L484.9,284.1z"/>
</g>
</svg>
