<?xml version="1.0" encoding="utf-8"?>
<!-- Generator: Adobe Illustrator 19.1.0, SVG Export Plug-In . SVG Version: 6.00 Build 0)  -->
<svg version="1.1" id="Layer_1" xmlns="http://www.w3.org/2000/svg" xmlns:xlink="http://www.w3.org/1999/xlink" x="0px" y="0px"
	 width="500px" height="500px" viewBox="0 0 500 500" enable-background="new 0 0 500 500" xml:space="preserve">
<g>
	<path d="M3,90V61.8C3,29.9,18.6,10,50.6,10h393.9c31.9,0,52.6,19.9,52.6,51.8V90"/>
</g>
<path d="M496.1,113.1L2.3,113.9l0.4,327c0,26.4,8.9,51.1,35.3,51.1h231.6h113.5h71.5c26.4,0,42-24.7,42-51.1L496.1,113.1z
	 M359,254.2c0,17.2-14.2,30.8-31.4,30.8H160.3c-17.3,0-31.3-13.5-31.3-30.8v-6.5c0-17.2,14-30.8,31.3-30.8h167.3
	c17.3,0,31.4,13.5,31.4,30.8V254.2z"/>
</svg>
