<?xml version="1.0" encoding="utf-8"?>
<!-- Generator: Adobe Illustrator 19.1.0, SVG Export Plug-In . SVG Version: 6.00 Build 0)  -->
<svg version="1.1" id="Layer_1" xmlns="http://www.w3.org/2000/svg" xmlns:xlink="http://www.w3.org/1999/xlink" x="0px" y="0px"
	 width="500px" height="500px" viewBox="0 0 500 500" enable-background="new 0 0 500 500" xml:space="preserve">
<g>
	<path fill="#020202" d="M239.3,488.1c-12.2,0-24.5-4.6-33.8-13.9L15.4,284.1c-18.2-18.6-18.2-49,0-67.6L205.5,26.5
		c18.6-18.6,49-18.6,67.6,0c18.2,18.6,18.2,49,0,67.6L116.4,250.3l156.7,156.3c18.2,18.6,18.2,49,0,67.6
		C263.8,483.4,251.5,488.1,239.3,488.1z M484.2,474.1c18.2-18.6,18.2-49,0-67.6L327.5,250.3L484.2,94c18.2-18.6,18.2-49,0-67.6
		c-18.6-18.6-49-18.6-67.6,0l-190,190.1c-18.2,18.6-18.2,49,0,67.6l190,190.1c9.3,9.3,21.5,13.9,33.8,13.9
		C462.7,488.1,474.9,483.4,484.2,474.1z"/>
</g>
</svg>
