<?xml version="1.0" encoding="utf-8"?>
<!-- Generator: Adobe Illustrator 19.2.1, SVG Export Plug-In . SVG Version: 6.00 Build 0)  -->
<svg version="1.1" id="Layer_1" xmlns="http://www.w3.org/2000/svg" xmlns:xlink="http://www.w3.org/1999/xlink" x="0px" y="0px"
	 width="500px" height="500px" viewBox="0 0 500 500" enable-background="new 0 0 500 500" xml:space="preserve">
<g>
	<g>
		<path d="M431.9,168.5c-8,3.2-17.1-0.7-20.3-8.8l-1-2.6c-3.2-8,0.8-17.1,8.8-20.3l58.2-23.1c8-3.2,17.1,0.7,20.3,8.8l1.1,2.6
			c3.2,8-0.7,17.1-8.8,20.3L431.9,168.5z"/>
		<path d="M420.5,117.3c-3.4,4.4-11.6,3.6-18.5-1.6l-2.3-1.7c-6.9-5.3-9.7-13.1-6.3-17.5l24.3-31.6c3.4-4.4,11.7-3.6,18.5,1.6
			l2.2,1.7c6.8,5.3,9.7,13.1,6.3,17.4L420.5,117.3z"/>
		<path d="M446.2,182.1c-5.4-0.9-10.9,5.3-12.3,13.9l-0.4,2.8c-1.4,8.5,1.9,16.2,7.4,17l39.4,6.3c5.4,0.9,11-5.3,12.3-13.9l0.4-2.8
			c1.4-8.5-1.9-16.2-7.4-17L446.2,182.1z"/>
	</g>
	<g>
		<polygon points="199.8,351.6 125.2,378.8 209.7,469.4 263.2,419.5 		"/>
		<polygon points="219.1,309.2 423.7,312.4 321,30.4 166.4,164.5 		"/>
		<path d="M134,178.4l-84.6,30.8c-38.9,14.2-59,57.2-44.8,96.2c14.2,38.9,57.2,59,96.2,44.8l84.6-30.8L134,178.4L134,178.4z"/>
	</g>
</g>
</svg>
