<?xml version="1.0" encoding="utf-8"?>
<!-- Generator: Adobe Illustrator 19.1.0, SVG Export Plug-In . SVG Version: 6.00 Build 0)  -->
<svg version="1.1" id="Layer_1" xmlns="http://www.w3.org/2000/svg" xmlns:xlink="http://www.w3.org/1999/xlink" x="0px" y="0px"
	 width="500px" height="500px" viewBox="0 0 500 500" enable-background="new 0 0 500 500" xml:space="preserve">
<path d="M407.4,2h-26.5h-59h-82.7h-82.7H94.6C76.6,2,62,16.6,62,34.6v430c0,18,14.6,33.4,32.6,33.4h61.9h224.4h26.5
	c18,0,32.6-15.4,32.6-33.4v-430C440,16.6,425.4,2,407.4,2z M148,96h85.3c2.1,0,3.9,5.5,3.9,12c0,6.5-1.7,12-3.9,12H148
	c-2.2,0-3.9-5.5-3.9-12C144.1,101.5,145.8,96,148,96z M357.4,380H146c-5.3,0-9.6-5.5-9.6-12c0-6.5,4.3-12,9.6-12h211.4
	c5.3,0,9.6,5.5,9.6,12C367,374.5,362.8,380,357.4,380z M357.4,297H146c-5.3,0-9.6-5-9.6-11.5c0-6.5,4.3-11.5,9.6-11.5h211.4
	c5.3,0,9.6,5,9.6,11.5C367,292,362.8,297,357.4,297z M357.6,215H149.8c-5.2,0-9.5-5.5-9.5-12c0-6.5,4.2-12,9.5-12h207.8
	c5.2,0,9.4,5.5,9.4,12C367,209.5,362.8,215,357.6,215z"/>
</svg>
