<?xml version="1.0" encoding="utf-8"?>
<!-- Generator: Adobe Illustrator 19.1.0, SVG Export Plug-In . SVG Version: 6.00 Build 0)  -->
<svg version="1.1" id="Layer_1" xmlns="http://www.w3.org/2000/svg" xmlns:xlink="http://www.w3.org/1999/xlink" x="0px" y="0px"
	 width="500px" height="500px" viewBox="0 0 500 500" enable-background="new 0 0 500 500" xml:space="preserve">
<path fill="#020202" d="M358.5,420.3c-30.3-0.5-46.4-12.6-54.9-19.9c-2.1-0.5-4.2-4.7-6.1-5.5c-5.6,3.6-12.2,2.2-19.3,2.2h-29.9
	c-19.5,0-35.3-8.7-35.3-28.1v-60.7c0,0.1-3.1,0.1-4.7,0.1c-57.8,0-105.5-43.4-112.3-99.4c-0.4-4-0.7-8-0.7-12
	c0-62.5,50.7-113.2,113.2-113.2c57.8,0,105.5,43.4,112.3,99.4c0.4,3.9,0.7,8,0.7,12c0,17.4-3.9,33.8-10.9,48.5
	c0.6,0,1.1,0.6,1.7,0.6c1.4,0,3.2,0.7,5.1,0.7c0.6,0,1.3,0,1.9,0c6.3-12,16.6-24.5,19-28.1l0.2-0.7l0.2-0.5c0.1-0.9,0.3-2.4,0.4-4.3
	l0-0.3l0-0.3c0.4-3.9,0.9-7.8,1.4-11.5c0.8-5.8,1-11.7,0.9-15.2l-0.5-0.4v-0.4c0-15,10.1-28,24.4-32.7c4.5-1.5,10.3-2.4,14.8-2.5
	l7.8-19.9v0l-0.9-0.2l-13.7-7.2l-10.6-9.2l2.7-29.6h0l0,2.7l-6.7-0.3l-20-5l-4-26.1l-0.5,0.2l-0.1-0.5l-26.7-0.8l-11.2-25.3l-20,4.6
	l-6.2,1l-16.3-22.2l-24.5,12.3l-21-16.9l-21,16.9l-25-12.3l-16,22.6l-26.1-6l-7.5,18.4l-3.2,7L82.2,53L78.1,80l-26.7,4.7l0-2.7h0
	l2.8,28.3l0.1,2.8l-18.7,11.7l-4.4,2.8l0,0.3l-0.6,0.4l0.1,0.2l-0.1,0.1l8.7,25.2l-15.9,15.5l-3.6,3.3l0.1,0.1l-0.1,0.1l0,0l0,0
	l0.1,0.1l-0.1,0.1l14.8,22.9l-14.8,22.9l0.1,1.5l-0.1,1.6h0l0-1.4l0.1-0.7l-0.1-0.2L39.4,240l-8.7,28h0.1l-0.1-1.9l13.3,6.1l9.6,5.7
	L50,304.3v-0.1l0.7,0.2l7.1,1.8l20.2,5.6l4.2,26.3h0.5l0.1,0.7l22,0.7l-51.1,92.8c-3.3,6-6,10.8-6,10.8l64,1.7l34,52.8
	c0,0,2.7-4.8,6-10.8l56.1-101l0.7,0.6l1.7-1.4l56.5,101.8c3.3,6,6,10.8,6,10.8l34-52.7l64-1.6c0,0-2.7-4.8-6-10.8L358.5,420.3z"/>
<g>
	<path d="M248.3,373h29.9c3.5,0,4.8-0.7,4.8-4.1V279c0-3.6-1.4,1-4.8,1h-29.9c-3.5,0-12.3-4.6-12.3-1v89.9
		C236,372.3,244.8,373,248.3,373z"/>
	<path d="M476.6,297.5c0-9.5-7.7-17.5-17.2-17.5h6.2c9.5,0,17.2-2,17.2-11.5c0-14.5-11.7-11.5-17.2-11.5h-55.7
		c0,0-1.5-23.2-1.4-29.7c0.1-6.5-0.4-6.5-1.9-13c-3.3-14.5-3.8-25.5-11.8-31.7c-4.9-3.8-9.3-5.3-13.2-5.3c-2.3,0-4.5,0.4-6.5,1.1
		c-2.6,0.8-4,2.9-4,5.1c0.3,8.7-1.9,20-2.9,30.4c-1,12.6-1.9,13.3-5.5,18.4c-3.5,5.3-21.6,31.2-24.5,35.1c-2.4,3.2-3.9,4.6-7.8,5.1
		c-1,0.2-3.6,0.2-6.5,0.2c-3.9,0-7.9-0.1-10.7-0.1c-5,0-7,3.6-7,7.2v82.6c0,7.1,1.6,13,8.4,13c6.9,0,12.1,21.7,46,21.7h75.9l0,0h3.4
		c9.5,0,17.2-8,17.2-17.5c0-9.5-7.7-17.5-17.2-17.5h11.4c9.5,0,17.2-14,17.2-23.5c0-9.5-7.7-23.5-17.2-23.5h8.3
		C468.9,315,476.6,307,476.6,297.5z"/>
</g>
</svg>
