<?xml version="1.0" encoding="utf-8"?>
<!-- Generator: Adobe Illustrator 19.1.0, SVG Export Plug-In . SVG Version: 6.00 Build 0)  -->
<svg version="1.1" id="Layer_1" xmlns="http://www.w3.org/2000/svg" xmlns:xlink="http://www.w3.org/1999/xlink" x="0px" y="0px"
	 width="500px" height="500px" viewBox="0 0 500 500" enable-background="new 0 0 500 500" xml:space="preserve">
<path fill="#020202" d="M417,208.7l-44.6,43.9c-6.7,6.6-15.7,10.2-25.1,10.2c-6.9,0-13.4-1.9-19-5.4c-20.3,29.9-54.5,49.5-93.3,49.5
	c-57.6,0-105-43.2-111.8-99c-0.4-3.9-0.7-7.9-0.7-12c0-62.2,50.5-112.7,112.7-112.7c41.8,0,78.3,22.8,97.7,56.7
	c3.2,1.6,6.2,3.8,8.9,6.4l5.4,5.3l41.7-40.8l2.5-22.9h0l0-0.5l-6.7-1.9l-19.9-5.8l-4-26.4l-0.4,0l-0.1-0.6L333.8,52l-11.1-25.2
	l-19.9,4.6l-6.1,1l-16.2-22.1L256,22.5L235.1,5.7l-20.9,16.8l-24.9-12.2l-16,22.5l-26-6l-7.5,18.3l-3.2,6.9l-27.3,0.8l-4.1,26.8
	l-26.5,4.9l0-2.5h0l2.8,28l0.1,2.7l-18.6,11.6l-4.4,2.7l0,0.3l-0.6,0.4l0.1,0.2l-0.1,0.1l8.6,25l-15.8,15.4l-3.6,3.3l0.1,0.1
	l-0.1,0.1l0,0l0,0l0.1,0.1l-0.1,0.1l14.8,22.8l-14.8,22.8l0.1,0.1l-0.1,0.1l0,0l0,0l0.1,0.1l-0.1,0.1l19.5,18.4l-8.6,25.8l0.1,0
	l-0.1,0.2l13.2,7.1l10.3,6.2l-2.9,26.6l0,0l0,0.2l6.7,1.8l19.9,5.8l4,26.3l0.5,0l0.1,0.6l21.9,0.7L81,430.4c-3.3,5.9-6,10.7-6,10.7
	l63.7,1.6l33.8,52.5c0,0,2.7-4.8,6-10.7L234.4,384l0.7,0.6l1.7-1.4l56.3,101.4c3.3,5.9,6,10.7,6,10.7l33.8-52.5l63.7-1.6
	c0,0-2.7-4.8-6-10.7l-47.5-92.5l17.7-0.5l4.1-26.8l26.6-7.5l0-0.1h0l-2.8-25.4l-0.1-1.4l18.6-10.9l4.4-2.4l0-0.1l0.6-0.3l-0.1-0.2
	l0.1,0l-8.6-25l15.8-15.4l3.6-3.3l-0.1-0.1l0.1-0.1l0,0l0,0l-0.1-0.1l0.1-0.1L417,208.7z"/>
<path d="M449.1,125.4l-13-12.8c-2.4-2.3-5.5-3.5-8.6-3.5c-3.1,0-6.3,1.2-8.7,3.5l-73.3,72.2l-22-21.6c-2.4-2.3-5.5-3.5-8.6-3.5
	c-3.1,0-6.2,1.2-8.6,3.5l-13,12.8c-4.7,4.7-4.7,12.2,0,16.9l29.8,29.4l0.8,0.9l13,12.7c2.3,2.3,5.5,3.5,8.6,3.5
	c3.1,0,6.3-1.2,8.7-3.5l94.9-93.5C453.8,137.6,453.8,130.1,449.1,125.4z"/>
</svg>
