<?xml version="1.0" encoding="utf-8"?>
<!-- Generator: Adobe Illustrator 19.1.0, SVG Export Plug-In . SVG Version: 6.00 Build 0)  -->
<svg version="1.1" id="Layer_1" xmlns="http://www.w3.org/2000/svg" xmlns:xlink="http://www.w3.org/1999/xlink" x="0px" y="0px"
	 width="500px" height="500px" viewBox="0 0 500 500" enable-background="new 0 0 500 500" xml:space="preserve">
<path fill="#020202" d="M439.8,170.3l-1-0.1l-20.2-18.5l10.5-26l1.9,0v-0.2l-15.4-7.2l-11.4-8.8l2.3-29.4h-0.2l-0.1,2.4l-6.8-0.5
	l-20.1-5.1l-4-26.2l-0.5,0.1l-0.1-0.5l-26.8-0.8L336.6,24l-20,4.6l-6.2,1L294,7.3l-24.6,12.3l-21-16.9l-21,16.9L202.2,7.3L186.1,30
	l-26.2-6l-7.5,18.4l-3.2,7l-27.5,0.8l-4.1,27.1l-26.8,5.1l0-2.3h0l2.9,28.1l0.1,2.6l-18.8,11.6l-4.4,2.7l0,0.3l-0.6,0.4L70,126
	l-0.1,0.1l8.7,25.2l-16,15.5l-3.6,3.3l0.1,0.1l-0.1,0.1l0,0l0,0l0.1,0.1l-0.1,0.1l14.9,23l-14.9,23l0.1,0.1l-0.1,0.1l0,0l0,0
	l0.1,0.1l-0.1,0.1l19.6,18.5l-8.7,26l0.1,0l-0.1,0.2l13.3,7.2l10.4,6.2l-2.9,26.8l0,0l0,0.2l6.8,1.8l20.1,5.8l4,26.6l0.5,0l0.1,0.6
	l22.1,0.7L93,430.9c-3.3,6-6,10.8-6,10.8l64.2,1.7l34.1,52.9c0,0,2.7-4.8,6-10.8l56.3-101.4l0.7,0.6l1.7-1.4l56.7,102.2
	c3.3,6,6,10.8,6,10.8l34.1-52.9l64.2-1.7c0,0-2.7-4.8-6-10.8l-47.9-93.3l17.8-0.5l4.1-27l26.8-7.8l0-0.3h0l-2.8-25.4l-0.1-1.3
	l18.8-11l4.4-2.4l0-0.1l0.6-0.3l-0.1-0.2l0.1,0l-8.7-25.2l18.1-15.5l5.8-3.3V217v-0.1v0v0l-2.2-0.1l-1-0.1l-13.3-23l16.5-23v-0.1
	v-0.1v0v0L439.8,170.3z M248.3,306.4c-58,0-105.9-43.6-112.7-99.8c-0.4-4-0.7-8-0.7-12.1c0-62.7,50.9-113.6,113.6-113.6
	c58.1,0,105.9,43.6,112.7,99.8c0.4,4,0.7,8,0.7,12.1C361.9,255.5,311,306.4,248.3,306.4z"/>
</svg>
