<?xml version="1.0" encoding="utf-8"?>
<!-- Generator: Adobe Illustrator 19.1.0, SVG Export Plug-In . SVG Version: 6.00 Build 0)  -->
<svg version="1.1" id="Layer_1" xmlns="http://www.w3.org/2000/svg" xmlns:xlink="http://www.w3.org/1999/xlink" x="0px" y="0px"
	 width="500px" height="500px" viewBox="0 0 500 500" enable-background="new 0 0 500 500" xml:space="preserve">
<polygon points="474.4,342.6 474,301.1 379,301.2 379,207.7 338,207.7 338,301.2 244.3,301.3 244.2,342.8 338,342.7 338,437.7 
	379,437.7 379,342.7 "/>
<g>
	<path d="M475.8,472.7H467V357.6l-28,0v115h-37v-18h-25v18h-36v-18h-25v18h-37v-68h-25v68h-36V73.2c0-7.6-6.1-14.5-13.7-14.5H48.6
		C41,58.7,34,65.5,34,73.2v399.5h-8.8l-14.1,22H490L475.8,472.7z M151,472.7h-50v-40h50V472.7z M193,397.7H60v-32h133V397.7z
		 M193,331.7H60v-32h133V331.7z M193,265.7H60v-32h133V265.7z M193,198.7H60v-32h133V198.7z M193,132.7H60v-32h133V132.7z"/>
	<path d="M255,168.7h184v117.5l28,0V155.3c0-7.6-5.9-13.7-13.5-13.7H255V168.7z"/>
</g>
<g>
	<path d="M343.6,117.2h27.2v-99c0-7.6-6-13.6-13.6-13.6H160.7v27.2h182.9V117.2z"/>
</g>
</svg>
