<?xml version="1.0" encoding="utf-8"?>
<!-- Generator: Adobe Illustrator 19.1.0, SVG Export Plug-In . SVG Version: 6.00 Build 0)  -->
<svg version="1.1" id="Layer_1" xmlns="http://www.w3.org/2000/svg" xmlns:xlink="http://www.w3.org/1999/xlink" x="0px" y="0px"
	 width="500px" height="500px" viewBox="0 0 500 500" enable-background="new 0 0 500 500" xml:space="preserve">
<g>
	<path d="M157.1,275.7h74.6v15.1l-27.8,33c15.1,2.2,30.5,13,30.5,33.3c0,20.1-15,38.8-42.1,38.8c-12.7,0-22.3-4-29-8
		c-3.8-2.3-7.3-5-10.2-7.8l10.7-15.3c2.2,2.2,4.8,4.2,7.7,6c4.8,3.2,11.7,6,19.5,6c12.5,0,21.3-8,21.3-18.8
		c0-11.8-9.7-18.6-23.1-18.6c-2.7,0-5.2,0.3-6.5,0.3l-4.8-10.5l25.6-31.3c1.2-1.3,2.3-2.5,3.3-3.3l1.7-1.5v-0.3
		c-0.8,0-1.5,0-2.3,0.2c-1.3,0.2-2.8,0.3-4.3,0.3h-26v14h-18.6V275.7z"/>
	<path d="M252.2,334.6c0-34,10.5-60.9,42.9-60.9c32.3,0,42.8,27,42.8,60.9c0,34-10.5,61.3-42.8,61.3
		C262.7,395.8,252.2,368.5,252.2,334.6z M315.9,334.6c0-23.3-4.7-41.8-20.8-41.8c-16.3,0-20.8,18.5-20.8,41.8
		c0,23.6,4.5,42.1,20.8,42.1C311.3,376.7,315.9,358.2,315.9,334.6z"/>
</g>
<path d="M367,103.6c0,10.9-7.9,19.7-24.5,19.7l0,0c-16.6,0-24.5-8.8-24.5-19.7V23.2c0-10.9,7.9-19.7,24.5-19.7l0,0
	c16.6,0,24.5,8.8,24.5,19.7V103.6z"/>
<path d="M183,103.6c0,10.9-7.9,19.7-24.5,19.7l0,0c-16.6,0-24.5-8.8-24.5-19.7V23.2c0-10.9,7.9-19.7,24.5-19.7l0,0
	c16.6,0,24.5,8.8,24.5,19.7V103.6z"/>
<g>
	<g>
		<path d="M391,79.6v36.2c0,20.8-28.4,31.9-49,31.9c-20.6,0-49-11.1-49-31.9V80h-85v35.8c0,20.8-28.4,31.9-49,31.9
			c-20.6,0-49-11.1-49-31.9V79.6c-41,0.9-74,34.2-74,75.1v266.4c0,41.4,33.7,74.9,75.2,74.9h278.7c41.4,0,75.2-33.4,75.2-74.9V154.7
			C465,113.8,432,80.5,391,79.6z M404,421.1c0,7.6-6.5,13.9-14.2,13.9H111.2c-7.6,0-14.2-6.2-14.2-13.9V227h307V421.1z"/>
	</g>
</g>
</svg>
