<?xml version="1.0" encoding="utf-8"?>
<!-- Generator: Adobe Illustrator 19.1.0, SVG Export Plug-In . SVG Version: 6.00 Build 0)  -->
<svg version="1.1" id="Layer_1" xmlns="http://www.w3.org/2000/svg" xmlns:xlink="http://www.w3.org/1999/xlink" x="0px" y="0px"
	 width="500px" height="500px" viewBox="0 0 500 500" enable-background="new 0 0 500 500" xml:space="preserve">
<g>
	<path d="M102.4,433.4h50.1v40.3h-50.1V433.4z M61,367h133.3v32.1H61V367z M61,300.6h133.3v32.1H61V300.6z M61,234.2h133.3v32.1H61
		V234.2z M61,167.8h133.3v32.1H61V167.8z M61,101.4h133.3v32.1H61V101.4z M476.8,473.6h-8.7V156.3c0-7.6-6-13.6-13.6-13.6H255.9
		v27.2h184.5v303.7h-37v-67.5h-25v67.5h-36.5v-67.5h-25.1v67.5h-36.5v-67.5h-25v67.5h-35.9V74.2c0-7.6-6.5-14.1-14.1-14.1H49.6
		c-7.6,0-14.1,6.5-14.1,14.1v399.5h-9.3L12,495.4H491L476.8,473.6z"/>
	<rect x="255.9" y="209.7" width="25" height="25"/>
	<rect x="316.8" y="209.7" width="25" height="25"/>
	<rect x="378.3" y="209.7" width="25" height="25"/>
	<rect x="255.9" y="275.5" width="25" height="25"/>
	<rect x="316.8" y="275.5" width="25" height="25"/>
	<rect x="378.3" y="275.5" width="25" height="25"/>
	<rect x="255.9" y="340.8" width="25" height="25"/>
	<rect x="316.8" y="340.8" width="25" height="25"/>
	<rect x="378.3" y="340.8" width="25" height="25"/>
	<path d="M344.6,118.2h27.2v-99c0-7.6-6-13.6-13.6-13.6H161.7v27.2h182.9V118.2z"/>
</g>
</svg>
