<?xml version="1.0" encoding="utf-8"?>
<!-- Generator: Adobe Illustrator 19.1.0, SVG Export Plug-In . SVG Version: 6.00 Build 0)  -->
<svg version="1.1" id="Layer_1" xmlns="http://www.w3.org/2000/svg" xmlns:xlink="http://www.w3.org/1999/xlink" x="0px" y="0px"
	 width="500px" height="500px" viewBox="0 0 500 500" enable-background="new 0 0 500 500" xml:space="preserve">
<path d="M390,46.9c0-23.4-19-42.4-42.4-42.4H152.4c-23.4,0-42.4,19-42.4,42.4v407.2c0,23.4,19,42.4,42.4,42.4h195.2
	c23.4,0,42.4-19,42.4-42.4V46.9z M291,40c0,6.9-5.6,12.5-12.5,12.5h-57c-6.9,0-12.5-5.6-12.5-12.5l0,0c0-6.9,5.6-12.5,12.5-12.5h57
	C285.4,27.5,291,33.1,291,40L291,40z M251,471.4c-12.9,0-23.4-10.5-23.4-23.4c0-12.9,10.5-23.4,23.4-23.4s23.4,10.5,23.4,23.4
	C274.4,460.9,263.9,471.4,251,471.4z M356,402.5H144v-328h212V402.5z"/>
</svg>
