<?xml version="1.0" encoding="utf-8"?>
<!-- Generator: Adobe Illustrator 19.1.0, SVG Export Plug-In . SVG Version: 6.00 Build 0)  -->
<svg version="1.1" id="Layer_1" xmlns="http://www.w3.org/2000/svg" xmlns:xlink="http://www.w3.org/1999/xlink" x="0px" y="0px"
	 width="500px" height="500px" viewBox="0 0 500 500" enable-background="new 0 0 500 500" xml:space="preserve">
<path d="M477.7,397.5L330.2,250.1l147.5-147.5c22-22,22-57.9,0-80C456,1,419.4,1,397.7,22.6L250.2,170.1L102.8,22.6
	C81.2,1.1,44.4,1.1,22.2,22.7C11.5,33.4,5.7,47.5,5.7,62.6s5.9,29.3,16.6,40l147.9,147.5l-148,147.5c-10.7,10.7-16.6,25-16.6,40.2
	c0,15.3,5.9,29.6,16.8,40.4c10.9,10.3,25.5,16.3,40.1,16.3c15,0,28.8-5.7,40.4-16.6l147.3-147.3l147.7,147.7
	c11,10.5,25.2,16.3,40,16.3s29.3-6,39.8-16.5c10.7-10.7,16.6-25,16.6-40.2C494.2,422.5,488.4,408.2,477.7,397.5z"/>
</svg>
