<?xml version="1.0" encoding="utf-8"?>
<!-- Generator: Adobe Illustrator 19.2.1, SVG Export Plug-In . SVG Version: 6.00 Build 0)  -->
<svg version="1.1" id="Layer_1" xmlns="http://www.w3.org/2000/svg" xmlns:xlink="http://www.w3.org/1999/xlink" x="0px" y="0px"
	 width="500px" height="500px" viewBox="0 0 500 500" enable-background="new 0 0 500 500" xml:space="preserve">
<g>
	<path d="M157,256h75v14.3l-27.9,33c15.1,2.2,30.4,13,30.4,33.3c0,20.1-15,38.8-42.1,38.8c-12.7,0-22.3-4-29-8
		c-3.8-2.3-7.3-5-10.2-7.8l10.6-15.3c2.2,2.2,4.8,4.2,7.7,6c4.8,3.2,11.7,6,19.5,6c12.5,0,21.3-8,21.3-18.8
		c0-11.8-9.7-18.6-23.1-18.6c-2.7,0-5.2,0.3-6.5,0.3l-4.8-10.5l25.6-31.3c1.2-1.3,2.1-2.5,3.1-3.3l1.5-1.5v-0.3c0,0-1.3,0.2-2.1,0.4
		c-1.3,0.2-2.6,0.5-4.1,0.5H176v14h-19V256z"/>
	<path d="M252.2,314.1c0-34,10.5-60.9,42.9-60.9c32.3,0,42.8,27,42.8,60.9c0,34-10.5,61.3-42.8,61.3
		C262.7,375.3,252.2,348,252.2,314.1z M315.9,314.1c0-23.3-4.7-41.8-20.8-41.8c-16.3,0-20.8,18.5-20.8,41.8
		c0,23.6,4.5,42.1,20.8,42.1C311.3,356.2,315.9,337.7,315.9,314.1z"/>
</g>
<path d="M425,50h-25V0h-50v50H150V0h-50v50H75c-27.8,0-49.8,22.5-49.8,49.9L25,450c0,27.5,22.2,50,50,50h350c27.5,0,50-22.6,50-50.1
	v-350C475,72.4,452.5,50,425,50z M425,450H75V175h350V450z"/>
</svg>
