<?xml version="1.0" encoding="utf-8"?>
<!-- Generator: Adobe Illustrator 19.2.1, SVG Export Plug-In . SVG Version: 6.00 Build 0)  -->
<svg version="1.1" id="Layer_1" xmlns="http://www.w3.org/2000/svg" xmlns:xlink="http://www.w3.org/1999/xlink" x="0px" y="0px"
	 width="500px" height="500px" viewBox="0 0 500 500" enable-background="new 0 0 500 500" xml:space="preserve">
<g>
	<path d="M216,356h27v-70.5c0-2.1,0-4.2,0-5.7V278h0.1l-1.2,1.5c-0.9,1.2-2.1,2.7-4.2,4.8l-9.9,9.3l-13.2-13.9l31-29.7H265v106h27
		v18h-76V356z"/>
</g>
<path d="M425,50h-25V0h-50v50H150V0h-50v50H75c-27.8,0-49.8,22.5-49.8,49.9L25,450c0,27.5,22.2,50,50,50h350c27.5,0,50-22.6,50-50.1
	v-350C475,72.4,452.5,50,425,50z M425,450H75V175h350V450z"/>
</svg>
