<?xml version="1.0" encoding="utf-8"?>
<!-- Generator: Adobe Illustrator 19.1.0, SVG Export Plug-In . SVG Version: 6.00 Build 0)  -->
<svg version="1.1" id="Layer_1" xmlns="http://www.w3.org/2000/svg" xmlns:xlink="http://www.w3.org/1999/xlink" x="0px" y="0px"
	 width="500px" height="500px" viewBox="0 0 500 500" enable-background="new 0 0 500 500" xml:space="preserve">
<g>
	<path d="M356,203.7c32.2,0,62.1,6.4,87,17.2c0-0.2,0-0.4,0-0.6C443,143.4,344.6,81,223.3,81C102,81,3.6,143.4,3.6,220.2
		c0,47.8,20.7,84.5,78.8,109.5l-4.1,82.9l80.8-59.3c19.7,3.8,40.5,5.9,62.1,6c-14.3-15.5-22.7-33.5-22.7-52.9
		C198.4,249.8,269.1,203.7,356,203.7z"/>
	<path d="M496.9,306.5c0-47.6-63.2-86.3-140.9-86.3S215,258.9,215,306.5c0,47.6,63.2,86.3,140.9,86.3c14.3,0,20.2-1.3,33.8-4
		l2.6-0.5L443,421l4.1-49.7l-10.6,5.9C474.4,360.8,496.9,334.4,496.9,306.5z"/>
</g>
</svg>
