<?xml version="1.0" encoding="utf-8"?>
<!-- Generator: Adobe Illustrator 19.2.1, SVG Export Plug-In . SVG Version: 6.00 Build 0)  -->
<svg version="1.1" id="Layer_1" xmlns="http://www.w3.org/2000/svg" xmlns:xlink="http://www.w3.org/1999/xlink" x="0px" y="0px"
	 width="500px" height="500px" viewBox="0 0 500 500" enable-background="new 0 0 500 500" xml:space="preserve">
<path d="M262,375.2c0-55.1,44.8-100.1,99.8-100.1c9.4,0,18.5,1.2,27.2,3.7V34c0-15.1-6.8-30.4-21.9-30.4H105.2C90.1,3.7,78,19,78,34
	v360.1c0,15.1,12.1,24.5,27.2,24.5H157h114.9C265.4,404.7,262,390.3,262,375.2z M142.1,83.7H233c3.6,0,6.5,5.1,6.5,11.5
	c0,6.4-2.9,11.5-6.5,11.5h-90.9c-3.6,0-6.5-5.1-6.5-11.5C135.6,88.8,138.5,83.7,142.1,83.7z M147.1,153.7h161.4
	c6.4,0,11.5,5.1,11.5,11.5c0,6.4-5.2,11.5-11.5,11.5H147.1c-6.4,0-11.5-5.1-11.5-11.5C135.6,158.8,140.8,153.7,147.1,153.7z
	 M147.1,245.7c-6.4,0-11.5-5.1-11.5-11.5c0-6.4,5.2-11.5,11.5-11.5h161.4c6.4,0,11.5,5.1,11.5,11.5c0,6.4-5.2,11.5-11.5,11.5H147.1z
	"/>
<path d="M421.8,375c0-33.1-26.8-60-59.9-60S302,341.9,302,375c0,22,12,41.1,30,51.5V486c0,5.7,0,10.3,0,10.3l28.8-24.8l28.2,24.8
	c0,0,0-4.6,0-10.3v-57.9C409,418.2,421.8,398.2,421.8,375z"/>
</svg>
