<?xml version="1.0" encoding="utf-8"?>
<!-- Generator: Adobe Illustrator 19.2.1, SVG Export Plug-In . SVG Version: 6.00 Build 0)  -->
<svg version="1.1" id="Layer_1" xmlns="http://www.w3.org/2000/svg" xmlns:xlink="http://www.w3.org/1999/xlink" x="0px" y="0px"
	 width="500px" height="500px" viewBox="0 0 500 500" enable-background="new 0 0 500 500" xml:space="preserve">
<path d="M175,225h-50v50h50V225z M275,225h-50v50h50V225z M375,225h-50v50h50V225z M425,50h-25V0h-50v50H150V0h-50v50H75
	c-27.8,0-49.8,22.5-49.8,49.9L25,450c0,27.5,22.2,50,50,50h350c27.5,0,50-22.6,50-50.1v-350C475,72.4,452.5,50,425,50z M425,450H75
	V175h350V450z"/>
</svg>
