<?xml version="1.0" encoding="utf-8"?>
<!-- Generator: Adobe Illustrator 19.2.1, SVG Export Plug-In . SVG Version: 6.00 Build 0)  -->
<svg version="1.1" id="Layer_1" xmlns="http://www.w3.org/2000/svg" xmlns:xlink="http://www.w3.org/1999/xlink" x="0px" y="0px"
	 width="500px" height="500px" viewBox="0 0 500 500" enable-background="new 0 0 500 500" xml:space="preserve">
<path d="M224.1,271.6l0.1-249.5c-6.2,0.4-12.2,1.1-18.3,2c-4.6,0.7-9.1,1.4-13.6,2.3C160.6,33,131.3,46,105.6,63.9
	c-3.8,2.7-7.6,5.5-11.3,8.4c-9.6,7.6-18.7,15.9-27,24.9c-1.7,1.9-3.4,3.8-5.1,5.7c-5.5,6.4-10.7,13-15.6,20c-1.2,1.7-2.3,3.3-3.4,5
	c-3.8,5.8-7.4,11.7-10.7,17.9c-0.8,1.5-1.6,3-2.3,4.5c-2.8,5.4-5.4,10.9-7.7,16.6c-0.6,1.4-1.1,2.8-1.7,4.2
	c-2,5.1-3.9,10.4-5.6,15.7c-0.4,1.3-0.8,2.7-1.2,4c-1.4,4.9-2.7,9.9-3.8,14.9c-0.3,1.3-0.6,2.6-0.9,3.9c-1,4.7-1.8,9.5-2.4,14.3
	c-0.2,1.2-0.3,2.5-0.5,3.7c-0.6,4.6-1,9.2-1.3,13.8c-0.1,1.2-0.2,2.4-0.3,3.6c-0.2,4-0.3,7.9-0.3,11.9c0,0.5,0,0.9,0,1.4
	c0,1.2,0.1,2.3,0.1,3.5c0.1,4.4,0.3,8.7,0.6,13c0.1,1.1,0.2,2.3,0.3,3.4c0.4,4.2,0.9,8.4,1.5,12.6c0.2,1.1,0.3,2.2,0.5,3.3
	c0.7,4.1,1.4,8.2,2.3,12.3c0.2,1.1,0.5,2.1,0.7,3.2c0.9,4,1.9,8,3.1,11.9c0.3,1.1,0.6,2.1,0.9,3.1c1.2,3.9,2.4,7.8,3.8,11.6
	c0.4,1,0.7,2,1.1,3c1.4,3.8,3,7.5,4.6,11.3c0.4,1,0.9,2,1.3,3c1.7,3.7,3.4,7.3,5.3,11c0.5,0.9,1,1.9,1.5,2.9c1.9,3.6,3.9,7.2,6,10.7
	c0.6,0.9,1.1,1.9,1.7,2.8c2.2,3.5,4.4,7,6.8,10.3c0.6,0.9,1.3,1.8,1.9,2.7c2.4,3.4,4.9,6.7,7.6,10c0.7,0.9,1.3,1.8,2.1,2.6
	c2.7,3.3,5.5,6.5,8.4,9.6c0.8,0.9,1.6,1.7,2.4,2.5c3,3.2,6.1,6.3,9.2,9.2c0.9,0.8,1.7,1.6,2.6,2.4c3.3,3,6.7,6,10.2,8.8
	c0.9,0.8,1.9,1.5,2.9,2.3c3.6,2.9,7.4,5.7,11.2,8.4c1,0.7,2,1.5,3.1,2.2c4,2.8,8.2,5.3,12.5,7.9c1.2,0.7,2.3,1.3,3.5,2
	c4.5,2.6,9.1,5,13.8,7.3c1.3,0.6,2.6,1.2,4,1.8c5.1,2.4,10.3,4.5,15.6,6.5c1.5,0.5,3,1.1,4.5,1.6c5.9,2.1,11.8,3.9,17.9,5.5
	c1.7,0.5,3.4,0.9,5.2,1.3c7,1.7,14,3.1,21.2,4.1c2.1,0.3,4.2,0.5,6.3,0.8c8.8,1,17.7,1.6,26.8,1.7c0.3,0,0.7,0,1,0
	c2.5,0,5-0.1,7.5-0.2c14.7-0.5,29.1-2.3,43-5.3c7.6-1.7,15-3.7,22.3-6.1l39.6-17.1c6.9-3.7,13.5-7.8,20-12.1
	c12.1-8.2,23.3-17.5,33.7-27.8c2-2,4-4,5.9-6.1c6.1-6.6,11.9-13.5,17.3-20.7c1.3-1.7,2.4-3.4,3.6-5.1c4.1-5.9,8-12,11.6-18.3
	c0.9-1.6,1.7-3.1,2.6-4.7c3-5.5,5.8-11.1,8.3-16.8c0.6-1.4,1.2-2.9,1.8-4.3c2.2-5.2,4.2-10.5,6-15.8c0.5-1.4,0.9-2.7,1.3-4.1
	c0.8-2.5,1.5-5,2.3-7.6L224.1,271.6z"/>
<path d="M264.8,6.5c-0.2,0-0.4,0-0.6,0l-0.1,232.3l228.4,46c3-14.9,4.6-30.3,4.6-46C497,110.5,393.1,6.5,264.8,6.5z"/>
</svg>
