<?xml version="1.0" encoding="utf-8"?>
<!-- Generator: Adobe Illustrator 19.2.1, SVG Export Plug-In . SVG Version: 6.00 Build 0)  -->
<svg version="1.1" id="Layer_1" xmlns="http://www.w3.org/2000/svg" xmlns:xlink="http://www.w3.org/1999/xlink" x="0px" y="0px"
	 width="500px" height="500px" viewBox="0 0 500 500" enable-background="new 0 0 500 500" xml:space="preserve">
<path d="M250,125V25H0v450h500V125H250z M100,425H50v-50h50V425z M100,325H50v-50h50V325z M100,225H50v-50h50V225z M100,125H50V75
	h50V125z M200,425h-50v-50h50V425z M200,325h-50v-50h50V325z M200,225h-50v-50h50V225z M200,125h-50V75h50V125z M450,425H250v-50h50
	v-50h-50v-50h50v-50h-50v-50h200V425z M400,225h-50v50h50V225z M400,325h-50v50h50V325z"/>
</svg>
