<?xml version="1.0" encoding="utf-8"?>
<!-- Generator: Adobe Illustrator 19.2.1, SVG Export Plug-In . SVG Version: 6.00 Build 0)  -->
<svg version="1.1" id="Layer_1" xmlns="http://www.w3.org/2000/svg" xmlns:xlink="http://www.w3.org/1999/xlink" x="0px" y="0px"
	 width="500px" height="500px" viewBox="0 0 500 500" enable-background="new 0 0 500 500" xml:space="preserve">
<g>
	<g>
		<path d="M135.7,364.8c0-24.8-20.3-44.9-45.3-44.9S45.2,340,45.2,364.8s20.3,44.9,45.3,44.9S135.7,389.7,135.7,364.8z"/>
		<path d="M0,477.1V500h181v-22.9c0-29.9-60.3-44.9-90.5-44.9S0,447.2,0,477.1z"/>
	</g>
	<g>
		<path d="M454.7,44.8c0-24.8-20.3-44.9-45.3-44.9S364.2,20,364.2,44.8s20.3,44.9,45.3,44.9C434.4,89.7,454.7,69.7,454.7,44.8z"/>
		<path d="M319,157.1V180h181v-22.9c0-29.9-60.3-44.9-90.5-44.9S319,127.2,319,157.1z"/>
	</g>
	<path d="M59.9,168.6L10,170.3l68.7,64.3l64.3-68.7l-49.9,1.7c-1.8-55.1,41.3-101.3,96.4-103.1c16.6-0.6,32.9,3.1,46.9,10.1
		L260,49.4c-20.9-12.3-45.4-19.1-71.5-18.3C115,33.6,57.4,95.1,59.9,168.6z"/>
	<path d="M440.1,336.3l49.9-1.7l-68.7-64.3L357,339l49.9-1.7c1.8,55.1-41.3,101.3-96.4,103.1c-16.6,0.6-32.9-3.1-46.9-10.1
		L240,455.5c20.9,12.3,45.4,19.1,71.5,18.3C385,471.3,442.6,409.7,440.1,336.3z"/>
</g>
</svg>
