<?xml version="1.0" encoding="utf-8"?>
<!-- Generator: Adobe Illustrator 19.2.1, SVG Export Plug-In . SVG Version: 6.00 Build 0)  -->
<svg version="1.1" id="Layer_1" xmlns="http://www.w3.org/2000/svg" xmlns:xlink="http://www.w3.org/1999/xlink" x="0px" y="0px"
	 width="500px" height="500px" viewBox="0 0 500 500" enable-background="new 0 0 500 500" xml:space="preserve">
<g>
	<path d="M417.6,136.4c0-50.7-40.1-91.9-90.3-93.8C310.5,16.9,281.6,0,248.7,0c-33,0-61.9,17-78.7,42.7c-48.9,3.3-87.5,44-87.5,93.7
		c0,17.1,4.6,33.1,12.6,47c-8,13.8-12.6,29.9-12.6,47c0,51.1,40.7,92.6,91.5,93.9c17.2,22.5,44.3,37.1,74.8,37.1
		c30.5,0,57.6-14.5,74.7-37c0.1,0,0.2,0,0.2,0c51.9,0,93.9-42.1,93.9-93.9c0-17.1-4.6-33.1-12.6-47
		C413,169.5,417.6,153.5,417.6,136.4z"/>
	<g>
		<path d="M157.3,500c-3.6,0-7.1-1-10.3-3c-6.3-4.1-9.7-11.5-8.5-19L170,276.2c1.4-9.3,9.4-16.2,18.8-16.2h127.9
			c9.4,0,17.4,7,18.8,16.3l29.2,194c1.1,7-1.9,14.1-7.7,18.3c-5.8,4.2-13.4,4.8-19.7,1.6l-90.7-45.6l-78.8,52.2
			C164.6,498.9,160.9,500,157.3,500z M205.1,298l-22.4,143.1l52-34.4c5.7-3.8,13-4.2,19.1-1.1l67.7,33.9L300.3,298H205.1z"/>
	</g>
</g>
</svg>
