<?xml version="1.0" encoding="utf-8"?>
<!-- Generator: Adobe Illustrator 19.2.1, SVG Export Plug-In . SVG Version: 6.00 Build 0)  -->
<svg version="1.1" id="Layer_1" xmlns="http://www.w3.org/2000/svg" xmlns:xlink="http://www.w3.org/1999/xlink" x="0px" y="0px"
	 width="500px" height="500px" viewBox="0 0 500 500" enable-background="new 0 0 500 500" xml:space="preserve">
<path d="M454.4,67.9c-25.2-8-52.9-11.4-79.5-11.4c-44.3,0-92,9.1-125,34.1c-33-25-80.8-34.1-125.1-34.1S32.7,65.6-0.3,90.6v332.9
	c0,5.7,5.8,11.4,11.5,11.4c2.3,0,3.5-1.1,5.8-1.1c30.7-14.8,75-25,108-25c44.3,0,92.1,9.1,125,34.1c30.7-19.3,86.4-34.1,125-34.1
	c37.5,0,76.1,6.8,108,23.9c2.3,1.1,3.2,1.1,5.5,1.1c5.7,0,11.2-5.7,11.2-11.4V90.6C486.7,80.4,471.4,73.6,454.4,67.9z M454.7,374.7
	c-25-8-52.5-11.4-79.8-11.4c-38.6,0-94.2,14.8-125.2,34.1V136.1c31-19.3,86.6-34.1,125.2-34.1c27.3,0,54.8,3.4,79.8,11.4V374.7z"/>
</svg>
