<?xml version="1.0" encoding="utf-8"?>
<!-- Generator: Adobe Illustrator 19.1.0, SVG Export Plug-In . SVG Version: 6.00 Build 0)  -->
<svg version="1.1" id="Layer_1" xmlns="http://www.w3.org/2000/svg" xmlns:xlink="http://www.w3.org/1999/xlink" x="0px" y="0px"
	 width="500px" height="500px" viewBox="0 0 500 500" enable-background="new 0 0 500 500" xml:space="preserve">
<path d="M278.8,37.1c0.1,7.7,3.2,15,8.7,20.5c5.5,5.5,14.1,9.9,21.8,10l73.8,1.1L261.9,189.9c-12.5,12.5-13.4,32-0.4,45
	c11.6,11.6,31.6,18.3,44.2,9.5c1.5-1,4.7-3.4,6-4.7L429,124.8l1.5,64c0.1,7.7,1.9,13.7,7.4,19.2c5.5,5.5,12.2,8,19.9,8.1
	c16-0.2,28.7-13.6,28.9-29.6l-0.2-149.3c-0.1-7.7-3.3-15.1-8.8-20.6c-5.5-5.5-12.9-8.7-20.6-8.8l-149.1,0c-7.8,0-15.2,3.1-20.7,8.6
	C281.9,22,278.8,29.3,278.8,37.1z M264.6,198.6c0.8-1.2,1.7-2.3,2.7-3.3C266.2,196.3,265.4,197.5,264.6,198.6z"/>
<path d="M405.6,496H94.4C44.3,496,4,455.7,4,405.6V94.4C4,44.3,44.3,4,94.4,4h108.6c19.4,0,35.2,15.6,35.2,35s-15.8,35-35.2,35H94.4
	C83.1,74,74,83.1,74,94.4v311.1c0,11.3,9.1,20.4,20.4,20.4h311.1c11.3,0,20.4-9.1,20.4-20.4V296.9c0-19.4,15.6-35.2,35-35.2
	s35,15.8,35,35.2v108.6C496,455.7,455.7,496,405.6,496z"/>
</svg>
