<?xml version="1.0" encoding="utf-8"?>
<!-- Generator: Adobe Illustrator 19.1.0, SVG Export Plug-In . SVG Version: 6.00 Build 0)  -->
<svg version="1.1" id="Layer_1" xmlns="http://www.w3.org/2000/svg" xmlns:xlink="http://www.w3.org/1999/xlink" x="0px" y="0px"
	 width="500px" height="500px" viewBox="0 0 500 500" enable-background="new 0 0 500 500" xml:space="preserve">
<g>
	<path fill-rule="evenodd" clip-rule="evenodd" d="M326.7,253.9c-0.6-0.9-1.4-1.9-2.4-2.9c5-44.5,8-99.9,2.4-108.7
		c-3.9-6.2-18.9-15.4-29-16.8c-12,10.5-27.7,16.8-44.9,16.8c-17.2,0-32.9-6.4-45-17c-1.2,0.2-2.5,0.3-3.8,0.5
		c-11.4,1.3-22.2,9.6-26.7,15.3c-6.5,8.4-3.5,64.7,1.6,109.7c-0.6,0.6-1.2,1.3-1.6,1.9C167.1,266,114.9,359,122.5,378.2
		c6.4,16.2,35.5,27.6,58.5,34.4v17.2c0,36.2,29.8,69.3,66,69.3h6.6c36.2,0,68.4-33,68.4-69.3V413c23-6.6,52.4-18,59.6-34.3
		C389.9,360.3,335.5,267.9,326.7,253.9z"/>
	<path fill-rule="evenodd" clip-rule="evenodd" d="M252.9,121.5c32.3,0,58.6-27.2,58.6-60.8c0-33.5-26.2-60.7-58.6-60.7
		c-32.4,0-58.6,27.2-58.6,60.7C194.3,94.3,220.5,121.5,252.9,121.5z"/>
</g>
</svg>
