<?xml version="1.0" encoding="utf-8"?>
<!-- Generator: Adobe Illustrator 19.2.1, SVG Export Plug-In . SVG Version: 6.00 Build 0)  -->
<svg version="1.1" id="Layer_1" xmlns="http://www.w3.org/2000/svg" xmlns:xlink="http://www.w3.org/1999/xlink" x="0px" y="0px"
	 width="500px" height="500px" viewBox="0 0 500 500" style="enable-background:new 0 0 500 500;" xml:space="preserve">
<g>
	<polygon points="468.4,29.4 372.2,125.5 334.4,87.7 303.3,118.5 372.2,187.4 499.3,60.3 	"/>
	<circle cx="137.5" cy="218.2" r="137.2"/>
	<path d="M64.5,470.6c-2.8,0-5.6-0.8-8.1-2.4c-5-3.2-7.6-9-6.7-14.9l24.7-158.4c1.1-7.3,7.4-12.9,14.7-12.9h100.2
		c7.4,0,13.7,5.7,14.8,13L227,447.2c0.8,5.5-1.5,11.1-6,14.4s-10.5,3.8-15.5,1.3l-71.1-35.7l-61.8,40.9
		C70.3,469.7,67.4,470.6,64.5,470.6z M102,313L84.5,424.8l40.8-27.2c4.5-3,10.2-3.4,14.9-1l53.1,26.9L176.6,313H102z"/>
</g>
</svg>
