<?xml version="1.0" encoding="utf-8"?>
<!-- Generator: Adobe Illustrator 19.2.1, SVG Export Plug-In . SVG Version: 6.00 Build 0)  -->
<svg version="1.1" id="Calque_1" xmlns="http://www.w3.org/2000/svg" xmlns:xlink="http://www.w3.org/1999/xlink" x="0px" y="0px"
	 width="500px" height="500px" viewBox="0 0 500 500" enable-background="new 0 0 500 500" xml:space="preserve">
<path d="M250,0C112,0,0,112,0,250s112,250,250,250s250-112,250-250S388,0,250,0z M225,448.2C126.3,436,50,352,50,250
	c0-15.5,2-30.2,5.2-44.8L175,325v25c0,27.5,22.5,50,50,50V448.2z M397.5,384.8c-6.5-20.2-25-34.8-47.5-34.8h-25v-75
	c0-13.8-11.2-25-25-25H150v-50h50c13.8,0,25-11.2,25-25v-50h50c27.5,0,50-22.5,50-50V64.8C398.2,94.5,450,166.2,450,250
	C450,302,430,349.2,397.5,384.8z"/>
</svg>
