<?xml version="1.0" encoding="utf-8"?>
<!-- Generator: Adobe Illustrator 19.1.0, SVG Export Plug-In . SVG Version: 6.00 Build 0)  -->
<svg version="1.1" id="Layer_1" xmlns="http://www.w3.org/2000/svg" xmlns:xlink="http://www.w3.org/1999/xlink" x="0px" y="0px"
	 width="500px" height="500px" viewBox="0 0 500 500" enable-background="new 0 0 500 500" xml:space="preserve">
<path d="M223.3,81C101.9,81,3.5,143.3,3.5,220.2c0,47.9,20.7,84.5,78.8,109.6l-4.1,82.9l80.8-59.3c19.7,3.8,40.5,5.9,62.1,6
	c-14.3-15.5-22.7-33.5-22.7-52.9c0-28.4,17.7-54.2,46.3-72.8c-3-3.1-4.9-7.5-4.9-12.4c0-9.5,7.1-17.3,15.9-17.3
	c8.3,0,15.1,6.9,15.8,15.7c24.4-10.1,53.4-16,84.4-16c32.2,0,62.1,6.4,87.1,17.2c0-0.2,0-0.4,0-0.6C443.1,143.3,344.7,81,223.3,81z
	 M156.3,238.6c-8.8,0-15.9-7.7-15.9-17.3c0-9.5,7.1-17.3,15.9-17.3s15.9,7.7,15.9,17.3C172.1,230.8,165,238.6,156.3,238.6z
	 M206,238.6c-8.8,0-15.9-7.7-15.9-17.3c0-9.5,7.1-17.3,15.9-17.3c8.8,0,15.9,7.7,15.9,17.3C221.9,230.8,214.8,238.6,206,238.6z"/>
<path d="M497,306.5c0-47.6-63.3-86.3-141-86.3s-141,38.7-141,86.3c0,47.6,63.3,86.3,141,86.3c14.3,0,20.2-1.3,33.8-4l2.6-0.5
	l50.6,32.7l4.1-48.9C478.6,355.7,497,331.7,497,306.5z M311.6,318.6c-6,0-10.9-5.3-10.9-11.8c0-6.5,4.9-11.8,10.9-11.8
	c6,0,10.9,5.3,10.9,11.8C322.5,313.3,317.6,318.6,311.6,318.6z M353.9,318.6c-6,0-10.9-5.3-10.9-11.8c0-6.5,4.9-11.8,10.9-11.8
	c6,0,10.9,5.3,10.9,11.8C364.8,313.3,359.9,318.6,353.9,318.6z M396.3,318.6c-6,0-10.9-5.3-10.9-11.8c0-6.5,4.9-11.8,10.9-11.8
	c6,0,10.9,5.3,10.9,11.8C407.1,313.3,402.3,318.6,396.3,318.6z"/>
</svg>
