<?xml version="1.0" encoding="utf-8"?>
<!-- Generator: Adobe Illustrator 19.1.0, SVG Export Plug-In . SVG Version: 6.00 Build 0)  -->
<svg version="1.1" id="Layer_1" xmlns="http://www.w3.org/2000/svg" xmlns:xlink="http://www.w3.org/1999/xlink" x="0px" y="0px"
	 width="500px" height="500px" viewBox="0 0 500 500" enable-background="new 0 0 500 500" xml:space="preserve">
<g>
	<g>
		<path d="M413.8,453H86.2C41.1,453,4,416.5,4,371.4v-92.1c0-17,14-30.7,31-30.7c17,0,31,13.8,31,30.7v92.1
			c0,11.3,8.9,20.6,20.2,20.6h327.6c11.3,0,20.2-9.4,20.2-20.6v-92.1c0-17,14-30.7,31-30.7c17,0,31,13.8,31,30.7v92.1
			C496,416.5,458.9,453,413.8,453z"/>
	</g>
	<path d="M370,179.7c-4.8-4.7-11.2-7.3-18-7.3c-6.8,0-12.4,2.6-17.2,7.3L291,224.5V75c0-15.4-13.9-28-29.9-28
		c-14.3,0-27.2,10.1-29.6,23.3c-0.3,1.5-1.5,3.1-1.5,4.7v149.9l-44.5-45.2c-4.8-4.7-10.9-7.3-17.7-7.3c-6.8,0-13.1,2.6-17.9,7.3
		c-9.7,10-9.7,26.1,0.1,36.1l92,92c4.8,4.7,11.2,7.3,18.1,7.3s13.2-2.6,18.1-7.3l92-91.9c4.8-4.8,7.5-11.2,7.5-18.1
		C377.5,191,374.9,184.6,370,179.7z M279.2,71.3c0.3,1.2,0.4,2.4,0.4,3.7C279.6,73.8,279.4,72.5,279.2,71.3z"/>
</g>
</svg>
