<?xml version="1.0" encoding="utf-8"?>
<!-- Generator: Adobe Illustrator 19.2.1, SVG Export Plug-In . SVG Version: 6.00 Build 0)  -->
<svg version="1.1" id="Layer_1" xmlns="http://www.w3.org/2000/svg" xmlns:xlink="http://www.w3.org/1999/xlink" x="0px" y="0px"
	 width="500px" height="500px" viewBox="0 0 500 500" style="enable-background:new 0 0 500 500;" xml:space="preserve">
<g>
	<circle cx="250" cy="178.1" r="175"/>
	<path d="M157.3,500c-3.6,0-7.1-1-10.3-3c-6.3-4.1-9.7-11.5-8.5-19L170,276.2c1.4-9.3,9.4-16.2,18.8-16.2h127.9
		c9.4,0,17.4,7,18.8,16.3l29.2,194c1.1,7-1.9,14.1-7.7,18.3c-5.8,4.2-13.4,4.8-19.7,1.6l-90.7-45.6l-78.8,52.2
		C164.6,498.9,160.9,500,157.3,500z M205.1,298l-22.4,143.1l52-34.4c5.7-3.8,13-4.2,19.1-1.1l67.7,33.9L300.3,298H205.1z"/>
</g>
</svg>
