<?xml version="1.0" encoding="utf-8"?>
<!-- Generator: Adobe Illustrator 19.2.1, SVG Export Plug-In . SVG Version: 6.00 Build 0)  -->
<svg version="1.1" id="Layer_1" xmlns="http://www.w3.org/2000/svg" xmlns:xlink="http://www.w3.org/1999/xlink" x="0px" y="0px"
	 width="500px" height="500px" viewBox="0 0 500 500" enable-background="new 0 0 500 500" xml:space="preserve">
<path d="M448,52.1c0-28.8-23.3-51.6-52.1-51.6H104.1C75.3,0.5,52,23.3,52,52.1v395.8c0,28.8,23.3,52.6,52.1,52.6h291.8
	c28.8,0,52.1-23.8,52.1-52.6V52.1z M250,478.7c-17.3,0-31.2-14-31.2-31.2c0-17.3,14-31.2,31.2-31.2s31.2,14,31.2,31.2
	C281.2,464.7,267.3,478.7,250,478.7z M406,395.5H94v-333h312V395.5z"/>
</svg>
