<?xml version="1.0" encoding="utf-8"?>
<!-- Generator: Adobe Illustrator 19.1.0, SVG Export Plug-In . SVG Version: 6.00 Build 0)  -->
<svg version="1.1" id="Layer_1" xmlns="http://www.w3.org/2000/svg" xmlns:xlink="http://www.w3.org/1999/xlink" x="0px" y="0px"
	 width="500px" height="500px" viewBox="0 0 500 500" enable-background="new 0 0 500 500" xml:space="preserve">
<g>
	<g>
		<path d="M311.3,387.7c0,55-53.2,109.8-149.6,109.8c-84.7,0-156-34.4-156-89.5c0-55.8,65.2-109.8,149.6-109.8
			c9.3,0,17.9-0.3,26.4-0.3c-11.5-11.2-20.6-25.1-20.6-42.2c0-9.9,3.2-19.8,7.8-28.3c-4.8,0.3-9.4,0.3-14.2,0.3
			c-69.4,0-116.2-49.4-116.2-110.6C38.6,57.3,103,5.5,171.3,5.5h152.2l-34.2,26.7h-48.1c31.8,0,48.9,48.6,48.9,87.1
			c0,32-17.6,58.7-43,78.5c-24.6,19-29.1,27-29.1,43.5c0,13.9,26.2,37.7,40.1,47.3C298.5,317.2,311.3,343.6,311.3,387.7z
			 M272.3,393.8c0-5.3-0.8-10.7-1.9-15.8c-6.4-25.1-29.1-37.7-60.9-59.5c-11.7-3.7-24.3-6.1-37.9-6.1
			c-58.5-0.5-110.8,35.5-110.8,79.3c0,44.3,42.2,81.5,100.7,81.5C243.7,473.1,272.3,438.4,272.3,393.8z M235.4,121.2
			c-6.7-51.5-44.1-92.9-83.3-94c-39-1.3-65.4,38.2-58.7,89.7c6.9,51.5,44.1,94.3,83.3,95.3C216,213.6,242.4,172.7,235.4,121.2z"/>
	</g>
	<g id="M2B3QT_3_">
		<g>
			<g>
				<path fill-rule="evenodd" clip-rule="evenodd" d="M404.6,1.4c12.7,0,25.4,0,38.1,0c0,17.9,0,35.8,0,53.7c17.9,0,35.8,0,53.7,0
					c0,12.7,0,25.4,0,38.1c-17.3,0-34.6,0-52,0c-4,14.4-0.6,36.4-1.7,53.7c-12.7,0-25.4,0-38.1,0c0-17.9,0-35.8,0-53.7
					c-17.9,0-35.8,0-53.7,0c0-12.7,0-25.4,0-38.1c17.9,0,35.8,0,53.7,0C404.6,37.2,404.6,19.3,404.6,1.4z"/>
			</g>
		</g>
	</g>
</g>
</svg>
