<?xml version="1.0" encoding="utf-8"?>
<!-- Generator: Adobe Illustrator 19.1.0, SVG Export Plug-In . SVG Version: 6.00 Build 0)  -->
<svg version="1.1" id="Layer_1" xmlns="http://www.w3.org/2000/svg" xmlns:xlink="http://www.w3.org/1999/xlink" x="0px" y="0px"
	 width="500px" height="500px" viewBox="0 0 500 500" enable-background="new 0 0 500 500" xml:space="preserve">
<path fill-rule="evenodd" clip-rule="evenodd" d="M493.7,278.5l-67.4-66.8v-83c0-0.6,0-1.1,0-1.6v-17.4h-12.4h-30.5h-4.1v32v12.5
	L261.2,40.7c-1.9-1.9-6.9-3-9.5-3c-2.7,0-6.5,1.1-8.4,3L4.9,278.5c-2.9,2.9-4.1,8.2-2.5,12c1.6,3.8,5,7.2,9.1,7.2h62.8l0,0v154.5
	c0,10.8,9,19.5,19.8,19.5h311.8c10.8,0,19.4-8.7,19.4-19.5V297.7h12h49.8c4.1,0,7.5-3.4,9.1-7.2
	C497.7,286.7,496.6,281.4,493.7,278.5z"/>
</svg>
