<?xml version="1.0" encoding="utf-8"?>
<!-- Generator: Adobe Illustrator 19.2.1, SVG Export Plug-In . SVG Version: 6.00 Build 0)  -->
<svg version="1.1" id="Layer_1" xmlns="http://www.w3.org/2000/svg" xmlns:xlink="http://www.w3.org/1999/xlink" x="0px" y="0px"
	 width="500px" height="500px" viewBox="0 0 500 500" enable-background="new 0 0 500 500" xml:space="preserve">
<path id="White_2_" d="M472.4,0.3H27.6C12.4,0.3,0,12.1,0,27.3v444.8c0,15.2,12.4,28.2,27.6,28.2H267v-194h-65v-75h65V175
	c0-64.6,39.3-99.7,96.9-99.7c27.6,0,51.1,2.1,58.1,3v67.5l-39.8,0c-31.3,0-37.2,14.9-37.2,36.7v48.9h74.7l-9.7,75h-65v194h127.4
	c15.2,0,27.6-13,27.6-28.2V27.3C500,12.1,487.6,0.3,472.4,0.3z"/>
</svg>
