<?xml version="1.0" encoding="utf-8"?>
<!-- Generator: Adobe Illustrator 19.2.1, SVG Export Plug-In . SVG Version: 6.00 Build 0)  -->
<svg version="1.1" id="Layer_1" xmlns="http://www.w3.org/2000/svg" xmlns:xlink="http://www.w3.org/1999/xlink" x="0px" y="0px"
	 width="500px" height="500px" viewBox="0 0 500 500" enable-background="new 0 0 500 500" xml:space="preserve">
<g>
	<path fill-rule="evenodd" clip-rule="evenodd" d="M159,227.3v54h90.3c-3.6,24-27.3,68.7-90.2,68.7c-54.3,0-98.6-44.9-98.6-100.4
		s44.3-100.4,98.6-100.4c30.9,0,51.6,13.2,63.4,24.6l43.2-41.6C238,106.3,202,90.6,159.1,90.6C71.1,90.6,0,161.8,0,249.7
		s71.1,159.1,159.1,159.1c91.8,0,152.7-64.4,152.7-155.3c0-10.5-1.1-18.2-2.5-26.2H159z"/>
	<polyline fill-rule="evenodd" clip-rule="evenodd" points="500,227.3 455,227.3 455,181.3 409,181.3 409,227.3 364,227.3 
		364,272.3 409,272.3 409,318.3 455,318.3 455,272.3 500,272.3 	"/>
</g>
</svg>
