<?xml version="1.0" encoding="utf-8"?>
<!-- Generator: Adobe Illustrator 19.1.0, SVG Export Plug-In . SVG Version: 6.00 Build 0)  -->
<svg version="1.1" id="Layer_1" xmlns="http://www.w3.org/2000/svg" xmlns:xlink="http://www.w3.org/1999/xlink" x="0px" y="0px"
	 width="500px" height="500px" viewBox="0 0 500 500" enable-background="new 0 0 500 500" xml:space="preserve">
<g>
	<path d="M298,446.3c0,26.5-21.5,48-48,48l0,0c-26.5,0-48-21.5-48-48v-240c0-26.5,21.5-48,48-48l0,0c26.5,0,48,21.5,48,48V446.3z"/>
	<path d="M298,51.8c0,25.7-20.8,46.5-46.5,46.5h-2.9c-25.7,0-46.5-20.8-46.5-46.5v-2.9c0-25.7,20.8-46.5,46.5-46.5h2.9
		c25.7,0,46.5,20.8,46.5,46.5V51.8z"/>
</g>
</svg>
