<?xml version="1.0" encoding="utf-8"?>
<!-- Generator: Adobe Illustrator 19.1.0, SVG Export Plug-In . SVG Version: 6.00 Build 0)  -->
<svg version="1.1" id="Layer_1" xmlns="http://www.w3.org/2000/svg" xmlns:xlink="http://www.w3.org/1999/xlink" x="0px" y="0px"
	 width="500px" height="500px" viewBox="0 0 500 500" enable-background="new 0 0 500 500" xml:space="preserve">
<g>
	<path d="M176.1,363.9c0,4.7,3.8,8.4,8.4,8.4h78.1l-80.8,26.9c-4.5,1.4-6.8,6.2-5.4,10.6c1.2,3.6,4.5,5.8,8,5.8
		c0.9,0,1.8-0.2,2.7-0.4l130-43.4c3.9-1.3,6.4-5.3,5.7-9.4c-0.7-4.1-4.2-7.1-8.3-7.1H184.5C179.8,355.5,176.1,359.3,176.1,363.9z"/>
	<path d="M322.5,404.6c-1.5-4.4-6.2-6.8-10.7-5.3l-130,43.3c-2.8,0.9-4.9,3.3-5.6,6.1c-0.7,2.9,0.2,5.8,2.3,7.9
		c1,1,24.7,24.1,71,24.1c46.3,0,70-23.1,70.9-24.1c3.3-3.3,3.3-8.7,0-11.9c-3.3-3.3-8.6-3.3-11.9,0c-0.2,0.2-19.6,19.2-59,19.2
		c-21.2,0-36.7-5.5-46.4-10.6l114-38C321.6,413.8,324,409,322.5,404.6z"/>
	<path d="M249.5,30.4C173.2,30.4,111,92.5,111,168.8c0,38.4,20.6,69,38.8,96.1c14,20.8,26.2,38.8,26.2,55.7c0,4.7,3.8,8.4,8.4,8.4
		c4.7,0,8.5-3.8,8.5-8.4c0-22.1-14.2-43-29.1-65.2c-17.7-26.2-36-53.3-36-86.6c0-67,54.6-121.6,121.6-121.6
		c67,0,121.6,54.6,121.6,121.6c0,33.3-18.3,60.4-36,86.6c-14.9,22.1-29,43.1-29,65.2c0,4.7,3.8,8.4,8.4,8.4s8.4-3.8,8.4-8.4
		c0-16.9,12.1-34.9,26.2-55.7c18.2-27,38.8-57.7,38.8-96.1C388,92.5,325.8,30.4,249.5,30.4z"/>
	<path d="M257.9,82.1c0-4.7-3.8-8.4-8.4-8.4c-52.5,0-95.2,42.7-95.2,95.1c0,4.7,3.8,8.5,8.4,8.5c4.7,0,8.5-3.8,8.5-8.5
		c0-43.1,35.1-78.2,78.3-78.2C254.2,90.6,257.9,86.8,257.9,82.1z"/>
	<path d="M104.3,73.8c1.5,1.1,3.3,1.6,5,1.6c2.6,0,5.2-1.2,6.8-3.5c2.7-3.8,1.9-9-1.9-11.8L61.6,21.9c-3.8-2.7-9-1.9-11.8,1.9
		c-2.8,3.8-1.9,9,1.8,11.8L104.3,73.8z"/>
	<path d="M389.8,75.4c1.7,0,3.5-0.5,5-1.6l52.6-38.2c3.8-2.8,4.6-8.1,1.9-11.8c-2.7-3.8-8-4.7-11.8-1.9l-52.6,38.3
		c-3.8,2.8-4.6,8-1.9,11.8C384.6,74.2,387.1,75.4,389.8,75.4z"/>
	<path d="M487.9,160.4h-65c-4.7,0-8.5,3.8-8.5,8.4c0,4.7,3.8,8.5,8.5,8.5h65c4.6,0,8.4-3.8,8.4-8.5
		C496.3,164.2,492.5,160.4,487.9,160.4z"/>
	<path d="M84.6,168.8c0-4.7-3.8-8.4-8.4-8.4H11.1c-4.6,0-8.4,3.8-8.4,8.4c0,4.7,3.8,8.5,8.4,8.5h65.1
		C80.8,177.3,84.6,173.5,84.6,168.8z"/>
	<path d="M394.7,263.9c-3.8-2.7-9-1.9-11.8,1.9c-2.7,3.8-1.9,9,1.9,11.8l52.6,38.2c1.5,1.1,3.3,1.6,5,1.6c2.6,0,5.2-1.2,6.8-3.5
		c2.8-3.8,1.9-9.1-1.9-11.8L394.7,263.9z"/>
	<path d="M104.3,263.9l-52.6,38.2c-3.8,2.7-4.6,8-1.8,11.8c1.7,2.3,4.2,3.5,6.8,3.5c1.7,0,3.5-0.6,5-1.6l52.6-38.2
		c3.8-2.7,4.6-8,1.9-11.8C113.3,262,108.1,261.2,104.3,263.9z"/>
</g>
</svg>
