<?xml version="1.0" encoding="utf-8"?>
<!-- Generator: Adobe Illustrator 19.2.1, SVG Export Plug-In . SVG Version: 6.00 Build 0)  -->
<svg version="1.1" id="Calque_1" xmlns="http://www.w3.org/2000/svg" xmlns:xlink="http://www.w3.org/1999/xlink" x="0px" y="0px"
	 width="500px" height="500px" viewBox="0 0 500 500" enable-background="new 0 0 500 500" xml:space="preserve">
<path d="M250,375c34.5,0,62.5,28,62.5,62.5S284.5,500,250,500s-62.5-28-62.5-62.5S215.5,375,250,375 M250,187.5
	c34.5,0,62.5,28,62.5,62.5s-28,62.5-62.5,62.5s-62.5-28-62.5-62.5S215.5,187.5,250,187.5 M250,0c34.5,0,62.5,28,62.5,62.5
	S284.5,125,250,125s-62.5-28-62.5-62.5S215.5,0,250,0z"/>
</svg>
