<?xml version="1.0" encoding="utf-8"?>
<!-- Generator: Adobe Illustrator 19.1.0, SVG Export Plug-In . SVG Version: 6.00 Build 0)  -->
<svg version="1.1" id="Layer_1" xmlns="http://www.w3.org/2000/svg" xmlns:xlink="http://www.w3.org/1999/xlink" x="0px" y="0px"
	 width="500px" height="500px" viewBox="0 0 500 500" enable-background="new 0 0 500 500" xml:space="preserve">
<g>
	<g>
		<path fill="#020000" d="M482.1,242.7c-3.5-5.6-17-13.8-26.1-15.1c-10.8,9.4-24.9,15.2-40.4,15.2c-15.5,0-29.6-5.8-40.5-15.3
			c-1.1,0.1-2.2,0.3-3.4,0.4c-9.9,1.1-19.3,8.1-23.5,13.2c6,4.2,11,8.9,13.7,13.1c9.7,15.3,24.8,60.2,24.7,93.8
			c41.8,8.3,94.2-3,108.2-34.3C502.3,297.1,490.1,255.3,482.1,242.7z"/>
		<path fill="#020000" d="M415.7,220.7c29.1,0,52.7-24.5,52.7-54.7c0-30.2-23.6-54.7-52.7-54.7c-29.1,0-52.7,24.5-52.7,54.7
			C362.9,196.2,386.5,220.7,415.7,220.7z"/>
		<path fill="#020000" d="M150.3,240.6c-5.1-5.3-16.4-11.8-24.3-13c-10.8,9.4-24.9,15.2-40.4,15.2c-15.5,0-29.6-5.8-40.5-15.3
			c-1.1,0.1-2.2,0.3-3.4,0.4c-10.3,1.2-20,8.6-24,13.8C8.4,253.6-3,296,3.9,313.2c12.6,31.6,65.5,43.3,108,34.7
			c-0.4-34.4,14.7-80.8,26.6-96C141.4,248.2,145.4,244.2,150.3,240.6z"/>
		<path fill="#020000" d="M85.5,220.7c29.1,0,52.7-24.5,52.7-54.7c0-30.2-23.6-54.7-52.7-54.7c-29.1,0-52.7,24.5-52.7,54.7
			C32.8,196.2,56.4,220.7,85.5,220.7z"/>
		<path d="M339.9,257.8c-6.3-4.8-15.7-10.1-23.7-12.2c-18.6,14.8-41.5,22.8-65.2,22.8c-23.9,0-47-8.2-65.7-23.3
			c-0.5,0.1-0.9,0.1-1.4,0.2c-9.5,1.1-18.9,6.7-25.4,12.2c-2.4,2-4.3,4-5.7,5.8c-10.1,12.9-21.6,51.5-22.7,79.5
			c-0.4,9,0.3,17,2.6,22.5c14.4,36.2,68.6,52.4,115.9,52.4c46.7,0,101-16.1,117-51.9c2.4-5.5,3.2-13.6,2.7-22.8
			c-1.4-27.2-13.1-64.8-21.9-78.8C345.4,262.4,343,260.1,339.9,257.8z"/>
	</g>
	<path fill="#020000" d="M251.1,83.2c-42.6,0-77.3,36-77.3,80.3c0,44.3,34.7,80.3,77.3,80.3c42.6,0,77.3-36,77.3-80.3
		C328.3,119.2,293.7,83.2,251.1,83.2z"/>
</g>
</svg>
