<?xml version="1.0" encoding="utf-8"?>
<!-- Generator: Adobe Illustrator 19.2.1, SVG Export Plug-In . SVG Version: 6.00 Build 0)  -->
<svg version="1.1" id="Layer_1" xmlns="http://www.w3.org/2000/svg" xmlns:xlink="http://www.w3.org/1999/xlink" x="0px" y="0px"
	 width="500px" height="500px" viewBox="0 0 500 500" enable-background="new 0 0 500 500" xml:space="preserve">
<g>
	<path d="M413.1,110.8c-18.5-18.5-45.9-27.9-81.5-27.9c-35.9,0-65,12.9-87.1,38.8C231.9,136,223.1,155,217.8,176h180.9l-10.9,52H211
		c-0.3,5-0.3,11.2-0.3,19.1c0,7.6,0.3,15.9,0.6,23.9H379l-10.6,51H218.7c5.3,24,13.8,42,25.3,55.3c21.8,26.2,50.2,39.1,85.5,39.1
		c42.1,0,75.5-13,100.5-38.5v100.3c-28,14.4-61.7,21.5-99.9,21.5c-64.1,0-116.7-22-158.2-65.9c-27.9-30-46.4-66.7-55.6-111.7H67.5
		l10.6-51h32.6c-0.3-5-0.6-10.6-0.6-16.5c0-10.3,0.3-19.5,0.9-26.5H67.5l10.6-52h39.4c9.1-43,27.6-80.2,55-109.7
		C214,21.9,268.7-0.4,336.3-0.4c36.8,0,68.8,6.8,96.2,20L413.1,110.8z"/>
</g>
</svg>
