<?xml version="1.0" encoding="utf-8"?>
<!-- Generator: Adobe Illustrator 19.1.0, SVG Export Plug-In . SVG Version: 6.00 Build 0)  -->
<svg version="1.1" id="Layer_1" xmlns="http://www.w3.org/2000/svg" xmlns:xlink="http://www.w3.org/1999/xlink" x="0px" y="0px"
	 width="500px" height="500px" viewBox="0 0 500 500" enable-background="new 0 0 500 500" xml:space="preserve">
<g>
	<path d="M316,84.4c-29.5,0-53.8,7.8-72.9,23.4c-19.1,15.6-31.4,38.2-37,67.8h146.1v58.3H200.7l-0.7,11.6V261l0.7,10.9h128.7v59
		H206.8c12.3,53.7,51.1,80.5,116.4,80.5c34.6,0,67.8-6.3,99.7-18.9v84.8c-28,13-63.5,19.6-106.2,19.6c-59.2,0-107.9-14.7-146.1-44.1
		c-38.2-29.4-62.2-70-72.2-121.9H48.8v-59h42.8c-1-5.1-1.5-11.9-1.5-20.5l0.7-17.6H48.8v-58.3H97c8.9-53.5,33-95.7,72.2-126.7
		c39.2-31,88.1-46.6,146.8-46.6c45.4,0,88,9.1,127.6,27.2l-35.5,76.9c-16.7-6.8-32.3-12.2-46.8-16.1C346.8,86.3,331.7,84.4,316,84.4
		z"/>
</g>
</svg>
