<?xml version="1.0" encoding="utf-8"?>
<!-- Generator: Adobe Illustrator 19.1.0, SVG Export Plug-In . SVG Version: 6.00 Build 0)  -->
<svg version="1.1" id="Layer_1" xmlns="http://www.w3.org/2000/svg" xmlns:xlink="http://www.w3.org/1999/xlink" x="0px" y="0px"
	 width="500px" height="500px" viewBox="0 0 500 500" enable-background="new 0 0 500 500" xml:space="preserve">
<path d="M406.7,3.5H97.3C78.9,3.5,64,18.4,64,36.8v427.3c0,18.4,14.9,33.3,33.3,33.3h309.3c18.4,0,33.3-14.9,33.3-33.3V36.8
	C440,18.4,425.1,3.5,406.7,3.5z M252.5,477.5c-10.4,0-18.8-8.4-18.8-18.8c0-10.4,8.4-18.8,18.8-18.8s18.8,8.4,18.8,18.8
	C271.4,469.1,262.9,477.5,252.5,477.5z M391,426.5H109v-376h282V426.5z"/>
</svg>
