<?xml version="1.0" encoding="utf-8"?>
<!-- Generator: Adobe Illustrator 19.2.1, SVG Export Plug-In . SVG Version: 6.00 Build 0)  -->
<svg version="1.1" id="Calque_1" xmlns="http://www.w3.org/2000/svg" xmlns:xlink="http://www.w3.org/1999/xlink" x="0px" y="0px"
	 width="500px" height="500px" viewBox="0 0 500 500" style="enable-background:new 0 0 500 500;" xml:space="preserve">
<path d="M375,250c0-34.5,28-62.5,62.5-62.5s62.5,28,62.5,62.5s-28,62.5-62.5,62.5S375,284.5,375,250 M187.5,250
	c0-34.5,28-62.5,62.5-62.5s62.5,28,62.5,62.5s-28,62.5-62.5,62.5S187.5,284.5,187.5,250 M0,250c0-34.5,28-62.5,62.5-62.5
	s62.5,28,62.5,62.5s-28,62.5-62.5,62.5S0,284.5,0,250z"/>
</svg>
