<?xml version="1.0" encoding="utf-8"?>
<!-- Generator: Adobe Illustrator 19.1.0, SVG Export Plug-In . SVG Version: 6.00 Build 0)  -->
<svg version="1.1" id="Layer_1" xmlns="http://www.w3.org/2000/svg" xmlns:xlink="http://www.w3.org/1999/xlink" x="0px" y="0px"
	 width="500px" height="500px" viewBox="0 0 500 500" enable-background="new 0 0 500 500" xml:space="preserve">
<g>
	<path d="M385.9,29.4L330.8,4.7c-11.6-5.2-20.5,0.6-25.7,12.3l-20,44.8c-5.2,11.7-0.6,15.3,11,20.5l55.2,24.6
		c11.6,5.2,17.2,6.1,22.4-5.5l20-44.8C398.9,45,397.6,34.6,385.9,29.4z"/>
	<path d="M336.5,140.2l-55.2-24.6c-11.6-5.2-25.8,1.1-31,12.8L125.2,409.2l0.1,0.2l12.5,79.1c2,5.1,7.8,7.5,12.9,5.5l67-43.1
		l126-280.9C349,158.3,348.1,145.4,336.5,140.2z"/>
</g>
</svg>
