<?xml version="1.0" encoding="utf-8"?>
<!-- Generator: Adobe Illustrator 19.1.0, SVG Export Plug-In . SVG Version: 6.00 Build 0)  -->
<svg version="1.1" id="Layer_1" xmlns="http://www.w3.org/2000/svg" xmlns:xlink="http://www.w3.org/1999/xlink" x="0px" y="0px"
	 width="500px" height="500px" viewBox="0 0 500 500" enable-background="new 0 0 500 500" xml:space="preserve">
<g>
	<path d="M497,308V163.1c0-26.7-21.9-48.1-48.6-48.1H362V95.5c0-48.3-47.8-48.5-68.1-48.5h-86.9c-20.2,0-68.1,0.3-68.1,48.5V115
		H52.6C25.9,115,4,136.5,4,163.1V308H497z M178,95.5c0-6.2,0.1-9.5,29.1-9.5h86.9c29,0,29.1,3.3,29.1,9.5V115H178V95.5z"/>
	<path d="M410,347v32c0,8.7-9.9,16-21.9,16h-4.8c-12,0-21.2-7.3-21.2-16v-32H149v32c0,8.7-9.6,16-21.6,16h-4.8
		c-12,0-21.6-7.3-21.6-16v-32H4v57.5C4,431.1,25.9,453,52.6,453h395.8c26.7,0,48.6-21.9,48.6-48.5V347H410z"/>
</g>
</svg>
