<?xml version="1.0" encoding="utf-8"?>
<!-- Generator: Adobe Illustrator 19.2.1, SVG Export Plug-In . SVG Version: 6.00 Build 0)  -->
<svg version="1.1" id="Layer_1" xmlns="http://www.w3.org/2000/svg" xmlns:xlink="http://www.w3.org/1999/xlink" x="0px" y="0px"
	 width="500px" height="500px" viewBox="0 0 500 500" enable-background="new 0 0 500 500" xml:space="preserve">
<path fill-rule="evenodd" clip-rule="evenodd" d="M237,3.5L87,153.6c-7.9,7.9-2.3,21.4,8.8,21.4H183v212.3c0,6.9,5.9,12.7,12.8,12.7
	h100c6.9,0,12.2-5.8,12.2-12.7V175h87.8c11.2,0,16.7-13.6,8.9-21.4l-150-150C249.8-1.3,241.9-1.4,237,3.5 M446,450H45.6
	c-6.8,0-12.6,5.2-12.6,12.4v24.7c0,7,5.7,12.8,12.6,12.8h400.5c6.8,0,11.9-5.5,11.9-12.8v-24.7c0-7-5.2-12.5-12.1-12.5"/>
</svg>
