<?xml version="1.0" encoding="utf-8"?>
<!-- Generator: Adobe Illustrator 19.1.0, SVG Export Plug-In . SVG Version: 6.00 Build 0)  -->
<svg version="1.1" id="Layer_1" xmlns="http://www.w3.org/2000/svg" xmlns:xlink="http://www.w3.org/1999/xlink" x="0px" y="0px"
	 width="500px" height="500px" viewBox="0 0 500 500" enable-background="new 0 0 500 500" xml:space="preserve">
<g>
	<path d="M94,280.7c0-18.2-7.7-31.1-24.6-31.1H25.5C8.5,249.7,3,262.5,3,280.7v108.8c0,18.2,5.5,33.1,22.5,33.1h43.9
		c16.9,0,24.6-14.9,24.6-33.1V280.7z"/>
	<path d="M497,207.7c0-17.7-14.4-32-32.1-32h-26.3c-17.7,0-32.6,14.3-32.6,32v182.8c0,17.7,14.8,32.2,32.6,32.2h26.3
		c17.7,0,32.1-14.5,32.1-32.2V207.7z"/>
	<path d="M234,170.5c0-17.1-12.6-27.9-30.4-27.9h-32.3c-17.9,0-36.3,10.7-36.3,27.9v222.7c0,17.1,10.1,29.4,28,29.4h40.5
		c17.9,0,30.4-12.3,30.4-29.4V170.5z"/>
	<path d="M373,113.4c0-17.7-14.8-36.8-31.6-36.8h-36.2c-16.8,0-30.2,19-30.2,36.8v278.7c0,17.7,13.4,30.5,30.2,30.5h36.2
		c16.8,0,31.6-12.8,31.6-30.5V113.4z"/>
</g>
</svg>
