<?xml version="1.0" encoding="utf-8"?>
<!-- Generator: Adobe Illustrator 19.1.0, SVG Export Plug-In . SVG Version: 6.00 Build 0)  -->
<svg version="1.1" id="Layer_1" xmlns="http://www.w3.org/2000/svg" xmlns:xlink="http://www.w3.org/1999/xlink" x="0px" y="0px"
	 width="500px" height="500px" viewBox="0 0 500 500" enable-background="new 0 0 500 500" xml:space="preserve">
<path d="M453,381.8L323.6,252.3l-71.8,60.3l-77.9-62.8L46.7,376.9l-13.1-13.1l125.7-125.7l-125-100.6L46,123.1l205.6,165.5
	l197.2-165.4l11.9,14.2l-122.8,103l128.3,128.3L453,381.8z M5,129v241.3c0,19.1,15.5,34.5,34.5,34.5h421.9
	c19.1,0,34.5-15.5,34.5-34.5V129c0-19.1-15.5-34.5-34.5-34.5H39.5C20.5,94.5,5,109.9,5,129z"/>
</svg>
