<?xml version="1.0" encoding="utf-8"?>
<!-- Generator: Adobe Illustrator 19.1.0, SVG Export Plug-In . SVG Version: 6.00 Build 0)  -->
<svg version="1.1" id="Layer_1" xmlns="http://www.w3.org/2000/svg" xmlns:xlink="http://www.w3.org/1999/xlink" x="0px" y="0px"
	 width="502px" height="500px" viewBox="0 0 502 500" enable-background="new 0 0 502 500" xml:space="preserve">
<g>
	<path d="M266.5,369.2l-101,101C129,506.7,67.8,505,31.3,468.5C-5.2,432-6.9,370.9,29.6,334.4L155,209c33-33,85.2-35.2,122.9-6.3
		c8.6,6.6,10.7,19.4,4,28c-6.6,8.6-17.8,11.4-26.5,4.8c-21.8-16.7-50.2-14-69.1,4.9L61,365.7c-21.1,21.1-22.9,53.8-1.7,74.9
		c21.1,21.1,53.8,19.4,74.9-1.7l101-101c7.7-7.7,21.9-6,29.6,1.7C272.5,347.3,274.2,361.5,266.5,369.2z"/>
</g>
<g>
	<path d="M470.6,165.1L345.1,290.6c-32.6,32.6-84.6,34.3-122.2,5.4c-8.6-6.6-10.7-19.5-4.1-28.1c6.6-8.6,18-11.3,26.6-4.7
		c22.1,17,49.7,14.8,68.4-4l125.4-125.4c21.1-21.1,22.9-53.8,1.7-74.9c-21.1-21.1-53.8-19.4-74.9,1.7l-99.5,99.5
		c-7.7,7.7-21.9,6-29.6-1.7c-7.7-7.7-9.4-21.9-1.7-29.6l99.5-99.5C371.2-7.2,432.3-5.5,468.8,31C505.3,67.5,507.1,128.6,470.6,165.1
		z"/>
</g>
</svg>
