<?xml version="1.0" encoding="utf-8"?>
<!-- Generator: Adobe Illustrator 19.1.0, SVG Export Plug-In . SVG Version: 6.00 Build 0)  -->
<svg version="1.1" id="Layer_1" xmlns="http://www.w3.org/2000/svg" xmlns:xlink="http://www.w3.org/1999/xlink" x="0px" y="0px"
	 width="500px" height="500px" viewBox="0 0 500 500" enable-background="new 0 0 500 500" xml:space="preserve">
<g>
	<path d="M495.1,249.3c0,135.1-109.9,245.3-245.3,245.3C114.5,494.5,4.6,384.4,4.6,249.3S114.5,4,249.9,4
		C385.3,4,495.1,114.2,495.1,249.3z M117.3,228.2c0.8-21,3.4-41.2,6.7-60.3c-17.9-5.9-34.8-12.6-49.6-20.7
		c-14.3,24.4-23.5,51.6-26.6,81H117.3z M47.8,270.3c3.1,29.4,12.3,56.6,26.6,81c14.9-8.1,31.7-14.9,49.6-20.7
		c-3.4-19.1-5.9-39.2-6.7-60.3H47.8z M99.6,112.8c10.6,5.3,21.9,10.1,34.5,14.3c6.7-22.4,15.7-42.6,25.8-59.7
		C137.2,78.6,116.7,94.3,99.6,112.8z M159.9,431.2c-10.1-17.1-19.1-37.3-25.8-59.7c-12.6,4.2-24.1,9-34.5,14.3
		C116.7,404.3,137.2,420,159.9,431.2z M228.8,185.6c-22.1-1.1-43.7-3.4-63.9-7.3c-2.8,15.7-4.8,32.2-5.6,49.9h69.5V185.6z
		 M159.3,270.3c0.8,17.7,2.8,34.2,5.6,49.9c20.2-3.9,41.8-6.2,63.9-7.3v-42.6H159.3z M228.8,52.5c-20.7,12.6-40.9,42.3-54.1,84.7
		c17.1,3.4,35.3,5.3,54.1,6.4V52.5z M228.8,354.9c-18.8,1.1-37,3.1-54.1,6.5c13.2,42.3,33.4,72,54.1,84.6V354.9z M270.9,143.6
		c18.8-1.1,37-3.1,54.1-6.4c-13.2-42.3-33.4-72-54.1-84.7V143.6z M340.4,228.2c-0.8-17.7-2.8-34.2-5.6-49.9
		c-20.2,3.9-41.8,6.2-63.9,7.3v42.6H340.4z M270.9,312.9c22.1,1.1,43.7,3.4,63.9,7.3c2.8-15.7,4.8-32.2,5.6-49.9h-69.5V312.9z
		 M270.9,446c20.7-12.6,40.9-42.3,54.1-84.6c-17.1-3.4-35.3-5.3-54.1-6.5V446z M339.8,67.3c10.1,17.1,19.1,37.3,25.8,59.7
		c12.6-4.2,23.8-9,34.5-14.3C383,94.3,362.6,78.6,339.8,67.3z M400.1,385.8c-10.4-5.3-21.9-10.1-34.5-14.3
		c-6.7,22.4-15.7,42.6-25.8,59.7C362.6,420,383,404.3,400.1,385.8z M452,228.2c-3.1-29.4-12.3-56.6-26.6-81
		c-14.9,8.1-31.7,14.9-49.6,20.7c3.4,19.1,5.9,39.2,6.7,60.3H452z M382.5,270.3c-0.8,21-3.4,41.2-6.7,60.3
		c17.9,5.9,34.8,12.6,49.6,20.7c14.3-24.4,23.5-51.6,26.6-81H382.5z"/>
</g>
</svg>
