<?xml version="1.0" encoding="utf-8"?>
<!-- Generator: Adobe Illustrator 19.2.1, SVG Export Plug-In . SVG Version: 6.00 Build 0)  -->
<svg version="1.1" id="Calque_1" xmlns="http://www.w3.org/2000/svg" xmlns:xlink="http://www.w3.org/1999/xlink" x="0px" y="0px"
	 width="500px" height="500px" viewBox="0 0 500 500" enable-background="new 0 0 500 500" xml:space="preserve">
<path d="M362.5,20.6c-43.5,0-85.2,20.2-112.5,52.3c-27.2-32-69-52.3-112.5-52.3C60.5,20.6,0,81.1,0,158.1
	c0,94.5,85,171.5,213.8,288.5l36.2,32.7l36.2-33C415,329.6,500,252.6,500,158.1C500,81.1,439.5,20.6,362.5,20.6z M252.5,409.4
	l-2.5,2.5l-2.5-2.5C128.5,301.6,50,230.4,50,158.1c0-50,37.5-87.5,87.5-87.5c38.5,0,76,24.8,89.2,59h46.8c13-34.2,50.5-59,89-59
	c50,0,87.5,37.5,87.5,87.5C450,230.4,371.5,301.6,252.5,409.4z"/>
</svg>
