<?xml version="1.0" encoding="utf-8"?>
<!-- Generator: Adobe Illustrator 19.1.0, SVG Export Plug-In . SVG Version: 6.00 Build 0)  -->
<svg version="1.1" id="Layer_1" xmlns="http://www.w3.org/2000/svg" xmlns:xlink="http://www.w3.org/1999/xlink" x="0px" y="0px"
	 width="500px" height="500px" viewBox="0 0 500 500" enable-background="new 0 0 500 500" xml:space="preserve">
<g>
	<path fill-rule="evenodd" clip-rule="evenodd" d="M453,111h-24.5c0-8-7.3-17-16.4-17h-16.4c-9,0-16.4,9-16.4,17H224
		c-16.4,0-16.4-42-32.7-42h-89.9C85,69,85,111,68.6,111H44.1C21.5,111,2,125.6,2,148.2v245.4C2,416.2,21.5,434,44.1,434H453
		c22.6,0,43-17.8,43-40.4V148.2C496,125.7,475.5,111,453,111z M172,171.6c0,9-7.3,16.4-16.4,16.4h-52.3c-9,0-16.4-7.3-16.4-16.4
		v-10.3c0-9,7.3-16.4,16.4-16.4h52.3c9,0,16.4,7.3,16.4,16.4V171.6z M330.3,393.6c-67.8,0-122.7-54.9-122.7-122.7
		c0-67.7,54.9-122.7,122.7-122.7c67.7,0,122.7,54.9,122.7,122.7C453,338.7,398.1,393.6,330.3,393.6z"/>
	<circle fill-rule="evenodd" clip-rule="evenodd" cx="330.3" cy="270.9" r="90"/>
</g>
</svg>
