<?xml version="1.0" encoding="utf-8"?>
<!-- Generator: Adobe Illustrator 19.1.0, SVG Export Plug-In . SVG Version: 6.00 Build 0)  -->
<svg version="1.1" id="Layer_1" xmlns="http://www.w3.org/2000/svg" xmlns:xlink="http://www.w3.org/1999/xlink" x="0px" y="0px"
	 width="500px" height="500px" viewBox="0 0 500 500" enable-background="new 0 0 500 500" xml:space="preserve">
<path d="M359.1,181.1l62.9-62.4v33.4c0,18.9,14.3,40.9,33.2,40.9h3.4c18.9,0,37.4-22,37.4-40.9V33.9c0-10.3-6.3-14.6-13.5-20.8
	c-6.3-7.2-17-7-27.4-7H336.8C317.9,6,308,11.5,308,30.4v3.4c0,18.9,10,44.3,28.8,44.3h33.4L307,136.2c-76-50-179.3-44.2-246.2,22.6
	C-15.4,235.1-15.4,358,61,434.4c76.2,76.2,200.6,75.6,276.8-0.6C406.5,365.1,413.5,257.5,359.1,181.1z M107.9,386.3
	c-50.6-50.6-50.6-132.6-0.2-183c50.6-50.6,132.7-50.6,183.2,0c50.4,50.4,50.4,132.4-0.2,183C240.4,436.6,158.3,436.6,107.9,386.3z"
	/>
</svg>
