<?xml version="1.0" encoding="utf-8"?>
<!-- Generator: Adobe Illustrator 19.2.1, SVG Export Plug-In . SVG Version: 6.00 Build 0)  -->
<svg version="1.1" id="Layer_1" xmlns="http://www.w3.org/2000/svg" xmlns:xlink="http://www.w3.org/1999/xlink" x="0px" y="0px"
	 width="500px" height="500px" viewBox="0 0 500 500" enable-background="new 0 0 500 500" xml:space="preserve">
<path d="M0,477.3h91v-273H0V477.3z M500,226.9c0-25-20.5-45.6-45.5-45.6H311.1l21.6-103.7l0.7-7.2c0-9.3-3.9-17.9-10-24.1
	l-24.1-23.8L149.6,172.2c-8.4,8.2-13.6,19.6-13.6,32.1v227.3c0,25,20.8,45.8,45.8,45.8h204.5c18.9,0,35-11.5,41.8-27.9l68.6-160.3
	c2-5.2,3.2-10.8,3.2-16.7v-43.4l-0.2-0.3L500,226.9z"/>
</svg>
