<?xml version="1.0" encoding="utf-8"?>
<!-- Generator: Adobe Illustrator 19.2.1, SVG Export Plug-In . SVG Version: 6.00 Build 0)  -->
<svg version="1.1" id="Layer_1" xmlns="http://www.w3.org/2000/svg" xmlns:xlink="http://www.w3.org/1999/xlink" x="0px" y="0px"
	 width="502px" height="500px" viewBox="0 0 502 500" enable-background="new 0 0 502 500" xml:space="preserve">
<path d="M212.9,287.7c11.1,10.5,11.1,27.9,0,38.4c-10.5,10.5-27.9,10.5-38.4,0c-52.7-52.7-52.7-138.5,0-191.2l0,0l95.8-95.7
	c52.7-52.7,138.5-52.7,191.2,0c52.7,52.7,52.7,138.5,0,191.2l-40.3,40.3c0.3-22.2-3.2-44.4-10.8-65.5l12.7-13
	c31.9-31.6,31.9-83,0-114.7c-31.6-31.9-83-31.9-114.7,0L212.9,173C180.9,204.6,180.9,256,212.9,287.7 M289.1,173
	c10.5-10.5,27.9-10.5,38.4,0c52.7,52.7,52.7,138.5,0,191.2l0,0L231.8,460c-52.7,52.7-138.5,52.7-191.2,0
	c-52.7-52.7-52.7-138.5,0-191.2l40.3-40.3c-0.3,22.2,3.2,44.4,10.8,65.7L79,306.9c-31.9,31.6-31.9,83,0,114.7
	c31.6,31.9,83,31.9,114.7,0l95.5-95.5c31.9-31.6,31.9-83,0-114.7C278,200.9,278,183.6,289.1,173z"/>
</svg>
