<?xml version="1.0" encoding="utf-8"?>
<!-- Generator: Adobe Illustrator 19.1.0, SVG Export Plug-In . SVG Version: 6.00 Build 0)  -->
<svg version="1.1" id="Layer_1" xmlns="http://www.w3.org/2000/svg" xmlns:xlink="http://www.w3.org/1999/xlink" x="0px" y="0px"
	 width="500px" height="500px" viewBox="0 0 500 500" enable-background="new 0 0 500 500" xml:space="preserve">
<g>
	<path d="M90.9,424.7c0,7.1-5.8,12.9-12.9,12.9H16.8c-7.1,0-12.9-5.8-12.9-12.9V240.4c0-7.4,5.8-13.1,12.9-13.1H78
		c7.1,0,12.9,5.8,12.9,13.1V424.7z M497.5,223.8c0-29.7-23.9-35.2-35.2-35.2H348.1c0,0-3.2-44.2-2.9-57.6c0.3-13.4-0.8-11.6-3.9-25
		c-6.8-29.7-7.9-51.5-24.2-64.2c-16-12.4-29.2-12.1-40.5-8.1c-5.3,1.6-8.1,6-8.1,10.5c0.5,17.9-3.9,41-6,62.3
		c-2.1,25.8-3.9,27.3-11.3,37.9c-7.1,10.8-44.2,63.9-50.2,72c-5,6.6-7.9,9.5-16,10.5c-5,0.8-26.6,0.3-36.8,0.3
		c-10.3,0-15.8,7.4-15.8,14.7v169.3c0,14.5,4.7,20.8,18.7,20.8c14.2,0,26.3,38.7,95.7,38.7h154.6v-0.3h7.9
		c19.5,0,35.2-15.8,35.2-35.2c0-19.5-15.8-35.2-35.2-35.2h23.4c19.5,0,35.2-15.8,35.2-35.2c0-19.5-15.8-35.2-35.2-35.2h17.1
		c19.5,0,35.2-15.8,35.2-35.2c0-19.5-15.8-35.2-35.2-35.2h12.6C481.7,259.1,497.5,243.3,497.5,223.8z"/>
</g>
</svg>
