<?xml version="1.0" encoding="utf-8"?>
<!-- Generator: Adobe Illustrator 19.2.1, SVG Export Plug-In . SVG Version: 6.00 Build 0)  -->
<svg version="1.1" id="Calque_1" xmlns="http://www.w3.org/2000/svg" xmlns:xlink="http://www.w3.org/1999/xlink" x="0px" y="0px"
	 width="500px" height="500px" viewBox="0 0 500 500" style="enable-background:new 0 0 500 500;" xml:space="preserve">
<g>
	<path d="M98.1,82.1V0H64.4v82.1C27.7,89.9,0,122.6,0,161.7s27.7,71.7,64.5,79.5V500h33.7V241.2c36.8-7.8,64.5-40.5,64.5-79.5
		C162.6,122.6,134.9,89.9,98.1,82.1 M81.3,209.3c-26.3,0-47.6-21.4-47.6-47.6S55,114,81.3,114s47.6,21.4,47.6,47.6
		S107.5,209.3,81.3,209.3"/>
	<path d="M266.8,258.8V0h-33.7v258.8c-36.8,7.8-64.5,40.5-64.5,79.5c0,39.1,27.7,71.7,64.5,79.5V500h33.7v-82.2
		c36.8-7.8,64.5-40.5,64.5-79.5S303.6,266.6,266.8,258.8 M250,385.9c-26.3,0-47.6-21.4-47.6-47.6c0-26.3,21.4-47.6,47.6-47.6
		c26.3,0,47.6,21.4,47.6,47.6C297.6,364.6,276.3,385.9,250,385.9"/>
	<path d="M500,194.7c0-39.1-27.7-71.7-64.5-79.5V0h-33.7v115.2c-36.8,7.8-64.4,40.5-64.4,79.5c0,39.1,27.7,71.7,64.5,79.5V500h33.7
		V274.2C472.3,266.4,500,233.8,500,194.7 M418.7,242.3c-26.3,0-47.6-21.4-47.6-47.6s21.4-47.6,47.6-47.6c26.3,0,47.6,21.4,47.6,47.6
		S445,242.3,418.7,242.3"/>
</g>
</svg>
