<?xml version="1.0" encoding="utf-8"?>
<!-- Generator: Adobe Illustrator 19.2.1, SVG Export Plug-In . SVG Version: 6.00 Build 0)  -->
<svg version="1.1" id="Layer_1" xmlns="http://www.w3.org/2000/svg" xmlns:xlink="http://www.w3.org/1999/xlink" x="0px" y="0px"
	 width="500px" height="500px" viewBox="0 0 500 500" enable-background="new 0 0 500 500" xml:space="preserve">
<polygon points="93.7,81.6 93.7,82 93.7,81.6 "/>
<polygon points="407.7,81.6 407.7,81.7 407.8,81.6 "/>
<polygon points="93.7,84.2 93.9,84.2 93.7,82 "/>
<polygon points="407.7,81.7 407.5,84.3 407.8,84.3 "/>
<polygon points="445.3,162.6 461.7,233.1 399.8,195.7 337.8,233.1 354.3,162.6 299.5,115.2 371.6,109.1 399.8,42.6 427.9,109.1 
	500,115.2 "/>
<g>
	<path d="M268.1,209.1c0-40.5-32.1-73.5-72.2-75.1c-13.4-20.5-36.6-34-62.9-34c-26.4,0-49.5,13.6-63,34.1c-39.1,2.6-70,35.2-70,75
		c0,13.7,3.7,26.5,10.1,37.6C3.7,257.7,0,270.5,0,284.2c0,40.8,32.6,74.1,73.2,75.1c13.7,18,35.4,29.7,59.8,29.7
		c24.4,0,46-11.6,59.8-29.6c0.1,0,0.1,0,0.2,0c41.5,0,75.2-33.6,75.2-75.2c0-13.7-3.7-26.5-10.1-37.6
		C264.4,235.6,268.1,222.8,268.1,209.1z"/>
	<g>
		<path d="M59.9,500c-2.9,0-5.7-0.8-8.2-2.4c-5.1-3.3-7.8-9.2-6.8-15.2L70.1,321c1.2-7.4,7.5-13,15-13h102.3
			c7.5,0,13.9,5.6,15.1,13.1l23.3,155.2c0.8,5.6-1.5,11.3-6.1,14.6c-4.6,3.3-10.7,3.8-15.8,1.3l-72.5-36.5l-63.1,41.8
			C65.7,499.2,62.8,500,59.9,500z M98.1,339L80.3,453.2l41.6-27.6c4.6-3,10.4-3.4,15.2-0.9l54.2,27.4l-17-112.9H98.1z"/>
	</g>
</g>
</svg>
