<?xml version="1.0" encoding="utf-8"?>
<!-- Generator: Adobe Illustrator 19.2.1, SVG Export Plug-In . SVG Version: 6.00 Build 0)  -->
<svg version="1.1" id="Layer_1" xmlns="http://www.w3.org/2000/svg" xmlns:xlink="http://www.w3.org/1999/xlink" x="0px" y="0px"
	 width="500px" height="500px" viewBox="0 0 500 500" enable-background="new 0 0 500 500" xml:space="preserve">
<path d="M175,474.6c0,13.7,11.2,25.1,25,25.1h100c13.8,0,25-11.4,25-25.1v-24.9H175V474.6z M250-0.4c-96.5,0-175,78.5-175,175
	c0,59.5,29.8,111.7,75,143.5v56.5c0,13.7,11.2,25.1,25,25.1h150c13.8,0,25-11.3,25-25.1v-56.5c45.2-31.7,75-84,75-143.5
	C425,78.1,346.5-0.4,250-0.4z M321.2,277.1l-21.2,15v57.6H200v-57.6l-21.3-15C145,253.6,125,215.3,125,174.6c0-69,56-125,125-125
	s125,56,125,125C375,215.3,355,253.6,321.2,277.1z"/>
</svg>
