<?xml version="1.0" encoding="utf-8"?>
<!-- Generator: Adobe Illustrator 19.1.0, SVG Export Plug-In . SVG Version: 6.00 Build 0)  -->
<svg version="1.1" id="Layer_1" xmlns="http://www.w3.org/2000/svg" xmlns:xlink="http://www.w3.org/1999/xlink" x="0px" y="0px"
	 width="500px" height="500px" viewBox="0 0 500 500" enable-background="new 0 0 500 500" xml:space="preserve">
<path fill="#020202" d="M437.6,172.7l0.9-0.1l-19.1-18.5l8.9-25.9l0,0l0.1-0.2l-13.2-7.2l-10.3-9.2l2.9-29.6h0l0,2.7l-6.7-0.3l-20-5
	l-4-26.1l-0.5,0.2l-0.1-0.5l-26.7-0.8l-11.1-25.3l-20,4.6l-6.2,1l-16.3-22.2l-24.5,12.3l-21-16.9l-20.9,16.9l-25-12.3l-16.1,22.6
	l-26.1-6L155,45.3l-3.2,7L124.4,53L120.3,80l-26.7,4.7l0-2.7h0l2.8,28.3l0.1,2.8l-18.7,11.7l-4.4,2.8l0,0.3l-0.6,0.4l0.1,0.2
	l-0.1,0.1l8.7,25.2l-15.9,15.5l-3.6,3.3l0.5,0.1l0.4,0.1v0v0l-0.4,0.1l-0.3,0.1L77,195.9l-14.9,22.9l-1.3,1.5l0.2,1.6H63v-2.9
	l-0.4,0.1l-0.3,0.1l19.4,18.5L73,263.7l0,0l-0.1,0.2l13.2,7.2l10.3,5.7L93.7,303h0l0,0.7l6.8,2l20,5.9l4,26.5l0.5,0l0.1,0.6l22,0.7
	L96,432.3c-3.3,6-6,10.8-6,10.8l64,1.6l34,52.7c0,0,2.7-4.8,6-10.8l56.1-101l0.7,0.6l1.7-1.4l56.5,101.8c3.3,6,6,10.8,6,10.8
	l34-52.7l64-1.6c0,0-2.7-4.8-6-10.8l-47.7-92.9l17.8-0.5l4.1-26.9l26.7-8.1l0-0.8h0l-2.8-24.9l-0.1-1.1l18.7-10.8l4.4-2.4l0-0.1
	l0.6-0.3l-0.1-0.2l0.1,0l-8.7-25.1l15.9-15.5l3.6-3.3l-1.7-0.1l-1.6-0.1v2.9h1.4l0.9-1.6l0.6-0.8l-14.6-23.3l15-23.1l-1.7-0.2
	l-1.5-0.2v0v0L437.6,172.7z M324.7,180.1l-38.3,27.5l14.5,44.5c1,3.1-0.1,6.6-2.7,8.5c-2.6,1.9-6.2,2-8.9,0.1l-38.5-27.5l-38.5,27.5
	c-1.3,1-2.9,1.4-4.4,1.4c-1.6,0-3.2-0.5-4.5-1.5c-2.6-1.9-3.7-5.4-2.7-8.5l14.5-44.5l-38.3-27.5c-2.7-1.9-3.8-5.4-2.8-8.5
	c1-3.1,3.9-5.3,7.2-5.3l47.5-0.1l14.8-44.5c1-3.1,3.9-5.2,7.2-5.2c3.3,0,6.2,2.1,7.2,5.2l14.8,44.5l47.5,0.1c3.3,0,6.2,2.1,7.2,5.3
	C328.5,174.7,327.4,178.1,324.7,180.1z"/>
</svg>
