<?xml version="1.0" encoding="utf-8"?>
<!-- Generator: Adobe Illustrator 19.2.1, SVG Export Plug-In . SVG Version: 6.00 Build 0)  -->
<svg version="1.1" id="Layer_1" xmlns="http://www.w3.org/2000/svg" xmlns:xlink="http://www.w3.org/1999/xlink" x="0px" y="0px"
	 width="500px" height="500px" viewBox="0 0 500 500" style="enable-background:new 0 0 500 500;" xml:space="preserve">
<path d="M340.9,249.7c37.7,0,68-30.4,68-68s-30.2-68-68-68s-68.2,30.4-68.2,68S303.2,249.7,340.9,249.7z M159.1,249.7
	c37.7,0,68-30.4,68-68s-30.2-68-68-68s-68.2,30.4-68.2,68S121.4,249.7,159.1,249.7z M159,295c-53,0-159,26.5-159,79.4V431h318v-56.6
	C318,321.5,212,295,159,295z M340.9,295c-6.6,0-13.9,0.5-21.9,1.1c26.4,19,45,44.7,45,78.2V431h136v-56.6
	C500,321.5,393.9,295,340.9,295z"/>
</svg>
