<?xml version="1.0" encoding="utf-8"?>
<!-- Generator: Adobe Illustrator 19.1.0, SVG Export Plug-In . SVG Version: 6.00 Build 0)  -->
<svg version="1.1" id="Layer_1" xmlns="http://www.w3.org/2000/svg" xmlns:xlink="http://www.w3.org/1999/xlink" x="0px" y="0px"
	 width="500px" height="500px" viewBox="0 0 500 500" enable-background="new 0 0 500 500" xml:space="preserve">
<path d="M386.8,139.5c-47.8,0-88.6,28.3-104,74c-0.5,1.4-1.8,2.2-3.3,2.2H37.2c-18.8,0-34.1,17.2-34.1,38s15.3,38,34.1,38H41v25.4
	c0,11.8,9.3,21.6,21.1,21.6h70.4c11.8,0,21.6-9.8,21.6-21.6v-25.4h127.5c1.4,0,2.6,0.6,3.1,1.9c24.8,54.8,100.3,96.8,172.7,42.3
	c13.6-10.3,24.7-24,31.1-39.8C520.4,217.4,462.3,139.5,386.8,139.5z M432.4,280.3c-3.5,6.2-8.8,11.4-15,15
	c-52.2,29.8-106-24-76.2-76.2c3.5-6.2,8.8-11.4,15-15C408.4,174.3,462.2,228.1,432.4,280.3z"/>
</svg>
