<?xml version="1.0" encoding="utf-8"?>
<!-- Generator: Adobe Illustrator 19.1.0, SVG Export Plug-In . SVG Version: 6.00 Build 0)  -->
<svg version="1.1" id="Layer_1" xmlns="http://www.w3.org/2000/svg" xmlns:xlink="http://www.w3.org/1999/xlink" x="0px" y="0px"
	 width="500px" height="500px" viewBox="0 0 500 500" enable-background="new 0 0 500 500" xml:space="preserve">
<g>
	<path d="M184.1,6.1c6.3,1.5,11.3,6.5,12.8,15.4c0.8,5.9,12.7,95.9,13.6,101.5c1.2,8.3-1.9,13.9-7.8,17.8
		c-3.8,2.6-40.5,29-44.3,31.6c-3.6,2.6-8.9,7.6-7.3,16c15.4,74,69.4,152.4,108.1,181.8c6.4,5,15.1,8.8,20.3,6.2
		c5.2-2.4,46.2-23.1,53.5-27.1c9-5,14.6-3.5,22.9,3.1c6.1,4.7,76.7,60.7,81.1,65.2c4.6,4.2,4.4,12.3,1.1,18.6
		c-25.3,47.5-66.5,61.8-93,61.4C318.9,497,271,476.7,246,462c-106.1-62.3-198-248-192-354.6C55.4,82.3,70.8,51.2,80.4,38
		C89,25.9,113.5-8.7,184.1,6.1z"/>
</g>
</svg>
