<?xml version="1.0" encoding="utf-8"?>
<!-- Generator: Adobe Illustrator 19.1.0, SVG Export Plug-In . SVG Version: 6.00 Build 0)  -->
<svg version="1.1" id="Layer_1" xmlns="http://www.w3.org/2000/svg" xmlns:xlink="http://www.w3.org/1999/xlink" x="0px" y="0px"
	 width="500px" height="500px" viewBox="0 0 500 500" enable-background="new 0 0 500 500" xml:space="preserve">
<g>
	<path d="M413.3,193.2L306.7,60.5c-13.4-16.7-37.7-19.3-54.4-5.9L17,243.5C0.3,256.9-2.4,281.3,11,298l106.6,132.8
		c13.4,16.7,37.7,19.3,54.4,5.9l235.4-189C424.1,234.3,426.7,209.9,413.3,193.2z M376,233.2L164.7,402.8c-10,8-24.6,6.4-32.6-3.6
		L44.8,290.6c-8-10-6.4-24.6,3.6-32.6L259.6,88.4c10-8,24.6-6.4,32.6,3.6l87.2,108.6C387.5,210.5,385.9,225.2,376,233.2z"/>
</g>
<path d="M340.1,196c3.6-2.9,6.7-5.7,9.6-7.7l-49.7-61.9c-0.1,0.1-0.2,0.2-0.3,0.3c-4.8,3.9-14,11.8-23.9,10.7
	c-9.9-1.1-20.5-11.1-24.4-15.9c-1.4-1.7-2.1-3.3-2.5-4.7l-172,138.1c1.3,0.7,2.7,1.7,4.1,3.4c3.9,4.8,11.4,17.3,10.3,27.2
	c-1,9.3-9.6,16.3-14.7,20.3l49.6,61.8c2.4-2.1,5.4-4.2,8.4-6.7c9.6-7.7,23.6-6.2,31.3,3.4c3.3,4,6.5,7.5,8.4,10.8l170.9-137.2
	c-2.8-2.6-5.5-6.5-8.7-10.6C329,217.7,330.5,203.7,340.1,196z M242.6,286c-21,16.9-51.8,13.5-68.7-7.5c-16.9-21-13.5-51.8,7.5-68.7
	c21-16.9,51.8-13.5,68.7,7.5C267,238.4,263.7,269.2,242.6,286z"/>
<g>
	<path d="M489.4,202.7L382.7,70C369.3,53.3,345,50.6,328.3,64l-33.6,27l19.4,24.1l21.5-17.3c10-8,24.6-6.4,32.6,3.6l87.2,108.6
		c8,10,6.4,24.6-3.6,32.6L240.7,412.3c-10,8-24.6,6.4-32.6-3.6l-18.7-18.4l-24.1,19.4l28.4,30.5c13.4,16.7,37.7,19.3,54.4,5.9
		l235.4-189C500.1,243.8,502.7,219.4,489.4,202.7z"/>
</g>
</svg>
