<?xml version="1.0" encoding="utf-8"?>
<!-- Generator: Adobe Illustrator 19.2.1, SVG Export Plug-In . SVG Version: 6.00 Build 0)  -->
<svg version="1.1" id="Layer_1" xmlns="http://www.w3.org/2000/svg" xmlns:xlink="http://www.w3.org/1999/xlink" x="0px" y="0px"
	 width="500px" height="500px" viewBox="0 0 500 500" enable-background="new 0 0 500 500" xml:space="preserve">
<path d="M200,350v-25H25.2L25,425c0,27.7,22.2,50,50,50h350c27.8,0,50-22.7,50-50.4V325H300v25H200z M450,125H350V74.6L299.8,25
	h-100L150,74.6V125H50c-27.5,0-50,22.1-50,49.6v75C0,277.4,22.2,300,50,300h150v-50h100v50h150c27.5,0,50-22.9,50-50.4v-75
	C500,147.1,477.5,125,450,125z M300,125H200V75h100V125z"/>
</svg>
