<?xml version="1.0" encoding="utf-8"?>
<!-- Generator: Adobe Illustrator 19.1.0, SVG Export Plug-In . SVG Version: 6.00 Build 0)  -->
<svg version="1.1" id="Layer_1" xmlns="http://www.w3.org/2000/svg" xmlns:xlink="http://www.w3.org/1999/xlink" x="0px" y="0px"
	 width="500px" height="500px" viewBox="0 0 500 500" enable-background="new 0 0 500 500" xml:space="preserve">
<g>
	<path d="M432.7,40.7C432.7,20,422.6,3,402,3H110.9C90.2,3,67.7,20,67.7,40.7V62h365V40.7z"/>
	<path d="M452.3,97H44.1c-17,0-23.4,14.1-23.4,31.1v208.5c0,17,6.4,30.3,23.4,30.3h23.6v72.6c0,29.3,33.5,57.4,62.8,57.4h244.4
		c29.3,0,57.8-28.1,57.8-57.4V367h19.7c17,0,27.3-13.3,27.3-30.3V128.1C479.7,111.1,469.3,97,452.3,97z M326.7,178.4
		c0-12.4,13.8-22.4,26.2-22.4H402c12.4,0,18.7,10.1,18.7,22.4v2.2c0,12.4-6.3,22.4-18.7,22.4h-49.2c-12.4,0-26.2-10-26.2-22.4V178.4
		z M385.7,439.6c0,4.6-6.2,10.4-10.8,10.4H130.5c-4.6,0-15.8-5.8-15.8-10.4V297h271V439.6z"/>
</g>
</svg>
