<?xml version="1.0" encoding="utf-8"?>
<!-- Generator: Adobe Illustrator 19.2.1, SVG Export Plug-In . SVG Version: 6.00 Build 0)  -->
<svg version="1.1" id="Layer_1" xmlns="http://www.w3.org/2000/svg" xmlns:xlink="http://www.w3.org/1999/xlink" x="0px" y="0px"
	 width="500px" height="500px" viewBox="0 0 500 500" enable-background="new 0 0 500 500" xml:space="preserve">
<g>
	<path d="M426.8,374.5c-3.3,9.2-10.9,14.5-19.5,14.5H92.4c-8.3,0-15.9-6.1-19.3-15.4c-3.3-8.9-1.7-19.4,4.3-26.7
		c28.8-35.2,35.3-87.6,41.5-138.5C128,133.4,139,49.1,229,38.2V24.5c0-13.7,9.4-24.6,21.1-24.6s21.1,11.2,21.1,24.9L271,38.2
		c91.4,11.5,101.4,95.8,110.4,171.2c6,50.6,12.4,102.9,41.2,138.4C428.5,355.1,430.2,365.5,426.8,374.5z M196.9,437.6
		c0,34.4,23.6,62.3,52.8,62.3c29.3,0,52.8-27.7,53.1-62L196.9,437.6z"/>
</g>
</svg>
