<?xml version="1.0" encoding="utf-8"?>
<!-- Generator: Adobe Illustrator 19.2.1, SVG Export Plug-In . SVG Version: 6.00 Build 0)  -->
<svg version="1.1" id="Layer_1" xmlns="http://www.w3.org/2000/svg" xmlns:xlink="http://www.w3.org/1999/xlink" x="0px" y="0px"
	 width="500px" height="500px" viewBox="0 0 500 500" enable-background="new 0 0 500 500" xml:space="preserve">
<path fill="none" d="M90,90.7h205v204H90V90.7z"/>
<path d="M264.8,204.7c-18.6-53-69.1-91.1-128.4-91.1C61.1,113.5,0,174.6,0,249.8s61.1,136.6,136.4,136.6
	c59.3,0,109.8-37.7,128.4-90.7H364v91h91v-91h45v-91H264.8z M136.4,295.1c-25,0-45.5-20.5-45.5-45.5s20.5-45.5,45.5-45.5
	s45.5,20.5,45.5,45.5S161.4,295.1,136.4,295.1z"/>
</svg>
