<?xml version="1.0" encoding="utf-8"?>
<!-- Generator: Adobe Illustrator 19.1.0, SVG Export Plug-In . SVG Version: 6.00 Build 0)  -->
<svg version="1.1" id="Layer_1" xmlns="http://www.w3.org/2000/svg" xmlns:xlink="http://www.w3.org/1999/xlink" x="0px" y="0px"
	 width="500px" height="500px" viewBox="0 0 500 500" enable-background="new 0 0 500 500" xml:space="preserve">
<g>
	<path fill-rule="evenodd" clip-rule="evenodd" d="M324.7,143.3c-3.9-6.1-18.8-15.3-28.8-16.7c-12,10.4-27.5,16.7-44.5,16.7
		c-17.1,0-32.7-6.4-44.7-16.8c-1.2,0.2-2.5,0.3-3.7,0.5c-11.4,1.3-22,9.5-26.5,15.2c-10.2,13.1-30.1,144.5-22.5,163.6
		c4.3,10.9,13,19.6,25,26.2v96.7c0,36,30.6,69.5,66.6,69.5h6.5c36,0,66.9-33.5,66.9-69.5v-95.7c12-6.6,22.2-15.4,27.2-26.6
		C354.3,287.9,333.5,157.1,324.7,143.3z"/>
	<path fill-rule="evenodd" clip-rule="evenodd" d="M251.4,122.5c32.1,0,58.1-27,58.1-60.3c0-33.3-26-60.3-58.1-60.3
		c-32.1,0-58.2,27-58.2,60.3C193.2,95.5,219.3,122.5,251.4,122.5z"/>
</g>
</svg>
