<?xml version="1.0" encoding="utf-8"?>
<!-- Generator: Adobe Illustrator 19.2.1, SVG Export Plug-In . SVG Version: 6.00 Build 0)  -->
<svg version="1.1" id="Layer_1" xmlns="http://www.w3.org/2000/svg" xmlns:xlink="http://www.w3.org/1999/xlink" x="0px" y="0px"
	 width="500px" height="500px" viewBox="0 0 500 500" enable-background="new 0 0 500 500" xml:space="preserve">
<path d="M392.9,167H369v-48.1c0-65.7-53.3-119-119-119S131,53,131,119h45.2c0-41,33.2-73.9,73.9-73.9s73.9,33,73.9,73.7V167H107.1
	C81,167,60,187.9,60,214.1v238.1c0,26.2,21,47.8,47.1,47.8h285.7c26.2,0,47.1-21.6,47.1-47.8V214.1C440,187.9,419,167,392.9,167z
	 M250,380.8c-26.2,0-47.6-21.4-47.6-47.6c0-26.2,21.4-47.6,47.6-47.6s47.6,21.4,47.6,47.6C297.6,359.3,276.2,380.8,250,380.8z"/>
</svg>
