<?xml version="1.0" encoding="utf-8"?>
<!-- Generator: Adobe Illustrator 19.2.1, SVG Export Plug-In . SVG Version: 6.00 Build 0)  -->
<svg version="1.1" id="Calque_1" xmlns="http://www.w3.org/2000/svg" xmlns:xlink="http://www.w3.org/1999/xlink" x="0px" y="0px"
	 width="500px" height="500px" viewBox="0 0 500 500" enable-background="new 0 0 500 500" xml:space="preserve">
<path d="M458.3,0H41.7C18.7,0,0,18.7,0,41.7V125v250v83.3c0,23,18.7,41.7,41.7,41.7h416.7c23,0,41.7-18.7,41.7-41.7V375V125V41.7
	C500,18.7,481.3,0,458.3,0z M41.7,48.6h185.8v125H41.7V48.6z M459.1,446.2H41.7V215.3h417.4V446.2z M459.1,173.6H273.2v-41.7h185.8
	V173.6z M459.1,90.3H273.2V48.6h185.8V90.3z"/>
</svg>
