<?xml version="1.0" encoding="utf-8"?>
<!-- Generator: Adobe Illustrator 19.1.0, SVG Export Plug-In . SVG Version: 6.00 Build 0)  -->
<svg version="1.1" id="Layer_1" xmlns="http://www.w3.org/2000/svg" xmlns:xlink="http://www.w3.org/1999/xlink" x="0px" y="0px"
	 width="500px" height="500px" viewBox="0 0 500 500" enable-background="new 0 0 500 500" xml:space="preserve">
<g>
	<path d="M495.8,412.9c0,46.4-37.7,84.1-84.1,84.1s-84.1-37.7-84.1-84.1c0-3.8,0.8-7.4,1.1-11.2l-179.6-86
		c-15.3,15.8-36.6,26.2-60.6,26.2c-46.4,0-84.1-37.7-84.1-84.1c0-46.4,37.7-84.1,84.1-84.1c22.9,0,43.7,9.3,59,24.3L329,103.5
		c-0.5-4.6-1.4-9.3-1.4-13.9c0-46.4,37.7-84.1,84.1-84.1s84.1,37.7,84.1,84.1c0,46.4-37.7,84.1-84.1,84.1c-22.9,0-43.7-9.3-59-24.3
		l-181.5,94.5c0.5,4.6,1.4,9,1.4,13.9c0,3.8-0.8,7.4-1.1,10.9L351.1,355c15.3-16.1,36.6-26.2,60.6-26.2
		C458.1,328.8,495.8,366.4,495.8,412.9z"/>
</g>
</svg>
