<?xml version="1.0" encoding="utf-8"?>
<!-- Generator: Adobe Illustrator 19.2.1, SVG Export Plug-In . SVG Version: 6.00 Build 0)  -->
<svg version="1.1" id="Layer_1" xmlns="http://www.w3.org/2000/svg" xmlns:xlink="http://www.w3.org/1999/xlink" x="0px" y="0px"
	 width="500px" height="500px" viewBox="0 0 500 500" enable-background="new 0 0 500 500" xml:space="preserve">
<path d="M250,0C112,0,0,112,0,250s112,250,250,250s250-112,250-250S388,0,250,0z M275,425h-50v-50h50V425z M326.8,231.2l-22.5,23
	c-18,18.2-29.2,33.2-29.2,70.8h-50v-12.5c0-27.5,11.2-52.5,29.2-70.8l31-31.5c9.2-9,14.8-21.5,14.8-35.2c0-27.5-22.5-50-50-50
	s-50,22.5-50,50h-50c0-55.2,44.8-100,100-100s100,44.8,100,100C350,197,341,217,326.8,231.2z"/>
</svg>
