<?xml version="1.0" encoding="utf-8"?>
<!-- Generator: Adobe Illustrator 19.1.0, SVG Export Plug-In . SVG Version: 6.00 Build 0)  -->
<svg version="1.1" id="Layer_1" xmlns="http://www.w3.org/2000/svg" xmlns:xlink="http://www.w3.org/1999/xlink" x="0px" y="0px"
	 width="500px" height="500px" viewBox="0 0 500 500" enable-background="new 0 0 500 500" xml:space="preserve">
<path fill-rule="evenodd" clip-rule="evenodd" d="M426.1,205.2c-4.3-17.2-11.2-33.4-20-48.2c11.2-12.4,23-24.2,35.4-35.4
	c7.2-5.6,5.6-24,0-29.9c-11.7-10.4-22.7-21.4-33.1-33.1c-6-5.7-24.4-7.2-30,0c-11.1,12.4-22.9,24.2-35.3,35.4
	c-14.8-8.9-31-15.5-48.2-19.9c-1.5-27.8,7.2-66.4-17.3-70.4h-55.2c-24.4,5-16,42.5-17.2,70.5c-17.1,4.4-33.3,11.2-48,20
	c-12.5-11.2-24.4-23.2-35.6-35.7c-5.6-7.2-24-5.7-29.9,0C81.2,70.2,70.2,81.2,58.5,91.6c-5.7,6-7.2,24.4,0,29.9
	c12.6,11.3,24.6,23.3,35.9,35.8c-8.3,14.1-14.8,29.5-19.1,45.7c-0.3,0.7-0.8,1.3-1.2,2C46.2,206.6,8,197.8,3,222.4v55.2
	c5,24.7,43.8,15.8,71.9,17.3c4.3,16.5,10.9,32.1,19.4,46.4c0.1,0.3,0.3,0.6,0.4,0.9c-11.4,12.7-23.5,24.8-36.2,36.3
	c-7.2,5.6-5.7,24,0,29.9c11.7,10.4,22.7,21.4,33.1,33.1c6,5.7,24.4,7.2,29.9,0c11.4-12.7,23.5-24.8,36.3-36.3c1,0.5,2.1,1,3.1,1.5
	c12.5,7.1,26,12.8,40.1,16.8c1.4,0.7,2.7,1.4,4.1,2.1c1.6,27.9-7.3,65.9,17.3,70.9h55.2c24.8-5,15.7-43.7,17.3-71.8
	c16.9-4.3,32.8-10.9,47.4-19.5c12.7,11.4,24.8,23.5,36.2,36.2c5.6,7.2,24,5.7,29.9,0c10.4-11.7,21.4-22.7,33.1-33.1
	c5.7-6,7.2-24.4,0-29.9c-12.6-11.3-24.6-23.3-35.9-35.9c8.7-14.5,15.5-30.3,19.9-47c0.1-0.2,0.4-0.4,0.5-0.6
	c27.8-1.6,66.1,7.3,71.1-17.3v-55.2C492,198,454.1,206.5,426.1,205.2z M249.9,345.5c-52.7,0-95.5-42.7-95.5-95.5
	c0-52.7,42.7-95.5,95.5-95.5s95.5,42.7,95.5,95.5C345.3,302.7,302.6,345.5,249.9,345.5z"/>
</svg>
