<?xml version="1.0" encoding="utf-8"?>
<!-- Generator: Adobe Illustrator 19.1.0, SVG Export Plug-In . SVG Version: 6.00 Build 0)  -->
<svg version="1.1" id="Layer_1" xmlns="http://www.w3.org/2000/svg" xmlns:xlink="http://www.w3.org/1999/xlink" x="0px" y="0px"
	 width="500px" height="500px" viewBox="0 0 500 500" enable-background="new 0 0 500 500" xml:space="preserve">
<g>
	<path fill-rule="evenodd" clip-rule="evenodd" d="M173.7,238.6c59.7,0,108.1-50.2,108.1-112.1c0-61.9-48.4-112.1-108.1-112.1
		C114,14.3,65.6,64.5,65.6,126.4C65.6,188.4,114,238.6,173.7,238.6z"/>
	<path fill-rule="evenodd" clip-rule="evenodd" d="M453.2,276.8c-37.1,39.8-75.6,78.2-115.3,115.3c-1.1,0-51.2-48-51.2-48l-44.8,48
		c0,0,61.1,58.5,86.5,86.5c3.7,3.2,5.9,4.8,8,4.8c2.1,0,4.3-1.6,8-4.8c46.7-49.4,144.2-144.1,144.2-144.1l9.6-9.6
		C498,324.9,468.6,292.5,453.2,276.8z"/>
	<path fill-rule="evenodd" clip-rule="evenodd" d="M207.7,393.1l16.3-17.5l44.8-48l16.7-17.9l17.7,17c11.9,11.4,24.6,23.5,34.2,32.5
		c0.5-0.5,1-1,1.5-1.5c-4.9-36.1-18.7-76.4-29-92.7c-7.2-11.4-34.9-28.4-53.5-31.1c-22.2,19.3-51.2,31.1-82.8,31.1
		c-31.8,0-60.8-11.9-83.1-31.3c-2.3,0.3-4.6,0.6-7,0.9c-21.1,2.4-41,17.7-49.2,28.3C15.5,287.2-8,374.1,6.2,409.6
		c31.5,78.9,185.3,97.2,273.9,54c-25.9-25.9-54.7-53.5-55.1-53.9L207.7,393.1z"/>
</g>
</svg>
