<?xml version="1.0" encoding="utf-8"?>
<!-- Generator: Adobe Illustrator 19.2.1, SVG Export Plug-In . SVG Version: 6.00 Build 0)  -->
<svg version="1.1" id="Layer_1" xmlns="http://www.w3.org/2000/svg" xmlns:xlink="http://www.w3.org/1999/xlink" x="0px" y="0px"
	 width="500px" height="500px" viewBox="0 0 500 500" enable-background="new 0 0 500 500" xml:space="preserve">
<polygon points="319,124 319,170 387,170 387,238 432,238 432,170 500,170 500,124 432,124 432,56 387,56 387,124 "/>
<path d="M132,194H33c-18.1,0-32.8,14.6-32.8,32.7L0,424.9C0,443,14.9,458,33,458h264c18.1,0,33-15.4,33-33.6v-165
	c0-18.1-14.9-32.4-33-32.4H165L132,194z"/>
</svg>
