<?xml version="1.0" encoding="utf-8"?>
<!-- Generator: Adobe Illustrator 19.1.0, SVG Export Plug-In . SVG Version: 6.00 Build 0)  -->
<svg version="1.1" id="Layer_1" xmlns="http://www.w3.org/2000/svg" xmlns:xlink="http://www.w3.org/1999/xlink" x="0px" y="0px"
	 width="500px" height="500px" viewBox="0 0 500 500" enable-background="new 0 0 500 500" xml:space="preserve">
<path d="M448.5,171.3H4v45.3v194.1c0,26.8,19.7,51.6,46.5,51.6h398c26.8,0,48.5-24.8,48.5-51.6V216.6
	C497,189.8,475.3,171.3,448.5,171.3z M217.8,325.7L160,383.5c-3,3-7.1,4.5-11.4,4.5c-4.3,0-8.4-1.7-11.5-4.6l-57.9-57.8
	c-6.1-6.3-6.5-16.4-0.4-22.7c3-3,6.3-4.6,10.6-4.6c4.3,0,7,1.6,10,4.6l25.5,28.4v-94.1c0-1,2.4-2,2.6-2.9
	c1.5-8.3,11.3-14.6,20.3-14.6c10.1,0,17.2,7.9,17.2,17.6v93.9l29.1-28.1c3-3,8-4.6,12.3-4.6c4.3,0,8.3,1.6,11.3,4.6
	c3,3,4.7,7.1,4.7,11.4C222.4,318.7,220.8,322.7,217.8,325.7z"/>
<path d="M346,150.3V90.4c0-26.8-16.3-50.1-43.1-50.1H50.5C23.7,40.3,4,63.6,4,90.4v59.9"/>
</svg>
