<?xml version="1.0" encoding="utf-8"?>
<!-- Generator: Adobe Illustrator 19.2.1, SVG Export Plug-In . SVG Version: 6.00 Build 0)  -->
<svg version="1.1" id="Layer_1" xmlns="http://www.w3.org/2000/svg" xmlns:xlink="http://www.w3.org/1999/xlink" x="0px" y="0px"
	 width="500px" height="500px" viewBox="0 0 500 500" enable-background="new 0 0 500 500" xml:space="preserve">
<g>
	<path d="M272.7,159.3c0-50.1-40.6-90.7-90.7-90.7s-90.7,40.6-90.7,90.7S131.8,250,182,250S272.7,209.4,272.7,159.3z"/>
	<path d="M0,386.1V431h363v-44.9c0-60.3-120.9-90.7-181.5-90.7S0,325.7,0,386.1z"/>
	<path d="M451.4,78.7c-46.5,71.4-62,78.4-138.2,62c63.9,44.8,69.3,60.8,48.6,143.5c46.5-71.5,62-78.4,138.3-62
		C436.1,177.5,430.7,161.4,451.4,78.7z"/>
</g>
</svg>
