<?xml version="1.0" encoding="utf-8"?>
<!-- Generator: Adobe Illustrator 19.1.0, SVG Export Plug-In . SVG Version: 6.00 Build 0)  -->
<svg version="1.1" id="Layer_1" xmlns="http://www.w3.org/2000/svg" xmlns:xlink="http://www.w3.org/1999/xlink" x="0px" y="0px"
	 width="500px" height="500px" viewBox="0 0 500 500" enable-background="new 0 0 500 500" xml:space="preserve">
<path d="M348,153.3v-61c0-26.3-17-47-43.3-47H57.4C31.1,45.3,5,66.1,5,92.4v61"/>
<path d="M447.4,173.3H5V216v190.3c0,26.3,26.1,51,52.4,51h390c26.3,0,47.6-24.8,47.6-51V216C495,189.8,473.7,173.3,447.4,173.3z
	 M253,272.9c-32.1,30.4-63.3,61.6-93.6,93.6c-4.8,4.1-5.6,4.1-10.4,0c-16.5-18.2-33.8-35.5-52-52c-0.4-2.3-2.3-3.2-4.2-4.2
	c6.8-13.3,18.9-21.3,29.1-31.2c9.5,11.3,19.9,21.2,31.2,31.2c0.7,0,1.4,0,2.1,0c25.8-20,50.8-49.1,74.9-74.9
	c10.3,9.9,22.3,17.9,29.1,31.2C256.3,267.8,254.2,269.9,253,272.9z"/>
</svg>
