<?xml version="1.0" encoding="utf-8"?>
<!-- Generator: Adobe Illustrator 19.1.0, SVG Export Plug-In . SVG Version: 6.00 Build 0)  -->
<svg version="1.1" id="Layer_1" xmlns="http://www.w3.org/2000/svg" xmlns:xlink="http://www.w3.org/1999/xlink" x="0px" y="0px"
	 width="500px" height="500px" viewBox="0 0 500 500" enable-background="new 0 0 500 500" xml:space="preserve">
<g>
	<g>
		<path fill="#020000" d="M320.3,120.4c0,65.4-51.1,118.5-114.2,118.5c-63.1,0-114.2-53-114.2-118.5C91.9,55,143,1.9,206.1,1.9
			C269.2,1.9,320.3,55,320.3,120.4z"/>
	</g>
	<path fill-rule="evenodd" clip-rule="evenodd" d="M281.4,480.9l-18.1-18.1l18.1-18.1l34.3-34.3l-11.2-11.2l-19.5-19.5L267,361.5
		l18.1-18.1l37.2-37.2l18.1-18.1l18.1,18.1l13.5,13.5c-6.6-23.8-14.9-45-21.9-55.9c-7.6-12.1-36.9-30-56.5-32.8
		c-23.5,20.4-54,32.9-87.5,32.9c-33.6,0-64.2-12.5-87.7-33.1c-2.4,0.3-4.8,0.6-7.3,0.9c-22.3,2.5-43.3,18.7-52,29.9
		C38.9,287.2,14.2,379,29.1,416.5c29.7,74.5,162.6,97.9,257.3,69.5L281.4,480.9z"/>
	<path fill-rule="evenodd" clip-rule="evenodd" d="M387.1,447.5c15.7,15.8,31.5,31.5,47.2,47.2c12.4-12.4,24.8-24.8,37.2-37.2
		c-16.3-16.3-32.5-32.5-48.8-48.8c17.5-17.5,34.9-34.9,52.4-52.4c-11.5-11.5-23.1-23.1-34.6-34.6c-17.5,17.5-35,35-52.4,52.4
		c-16.3-16.3-32.5-32.5-48.8-48.8c-12.4,12.4-24.8,24.8-37.2,37.2c16.3,16.3,32.5,32.5,48.8,48.8c-17.5,17.5-35,35-52.4,52.4
		c11.5,11.5,23.1,23.1,34.6,34.6C351.1,482.5,369.4,458,387.1,447.5z"/>
</g>
</svg>
