<?xml version="1.0" encoding="utf-8"?>
<!-- Generator: Adobe Illustrator 19.1.0, SVG Export Plug-In . SVG Version: 6.00 Build 0)  -->
<svg version="1.1" id="Layer_1" xmlns="http://www.w3.org/2000/svg" xmlns:xlink="http://www.w3.org/1999/xlink" x="0px" y="0px"
	 width="500px" height="500px" viewBox="0 0 500 500" enable-background="new 0 0 500 500" xml:space="preserve">
<g>
	<path fill="#020202" d="M112,157.3H26.7C13.6,157.3,3,164.9,3,178v51.8c0,13.1,10.6,27.5,23.7,27.5h89.5
		c-6.6-20-10.4-36.3-10.4-55.9C105.7,186.3,108,167.3,112,157.3z"/>
	<path fill="#020202" d="M221,229.9V178c0-10.3-6.4-18.9-15.6-22.2c-9,11.7-14.3,26.4-14.3,42.3c0,19.6,8.1,37.4,21.3,50
		C217.7,243.7,221,237.2,221,229.9z"/>
	<path fill="#020202" d="M112,300c0-13.1-10.6-23.7-23.7-23.7H26.7C13.6,276.3,3,286.9,3,300v61.6c0,13.1,10.6,23.7,23.7,23.7h61.6
		c13.1,0,23.7-10.6,23.7-23.7V300z"/>
	<path fill="#020202" d="M134.1,287.3c-1.4,3-2.1,6.3-2.1,9.8v61.8c0,13.1,10.6,27.5,23.7,27.5h51.8c13.1,0,23.5-14.4,23.5-27.5
		v-8.7C191,342.5,156.7,319.4,134.1,287.3z"/>
</g>
<g>
	<path fill="#020202" d="M260.7,62.6c74.7,0,135.4,60.7,135.4,135.4c0,74.5-60.7,135.2-135.4,135.2c-74.5,0-135.2-60.7-135.2-135.2
		C125.5,123.3,186.2,62.6,260.7,62.6z M260.7,287.4c49.4,0,89.6-40.1,89.6-89.3c0-49.4-40.1-89.6-89.6-89.6
		c-49.2,0-89.3,40.1-89.3,89.6C171.4,247.3,211.5,287.4,260.7,287.4z"/>
</g>
<path d="M494.2,396.5l-123-123l-39.6,39.8l122.9,122.9c4.2,4.2,11.8,3.3,17-2l20.6-20.6C497.4,408.2,498.3,400.6,494.2,396.5z"/>
</svg>
