<?xml version="1.0" encoding="utf-8"?>
<!-- Generator: Adobe Illustrator 19.1.0, SVG Export Plug-In . SVG Version: 6.00 Build 0)  -->
<svg version="1.1" id="Layer_1" xmlns="http://www.w3.org/2000/svg" xmlns:xlink="http://www.w3.org/1999/xlink" x="0px" y="0px"
	 width="500px" height="500px" viewBox="0 0 500 500" enable-background="new 0 0 500 500" xml:space="preserve">
<g>
	<g>
		<path fill="#020000" d="M300.8,117.8c0,64.2-50.2,116.3-112.1,116.3c-61.9,0-112.2-52.1-112.2-116.3
			c0-64.2,50.2-116.3,112.2-116.3C250.6,1.5,300.8,53.6,300.8,117.8z"/>
	</g>
	<path fill-rule="evenodd" clip-rule="evenodd" d="M306.4,447h-32.7v-22.3v-51.1V347h32.7h43.3v-37.3c0-24.5-13.5-38.5-19.6-48.2
		c-7.5-11.8-36.2-29.4-55.5-32.2c-23,20-53.1,32.3-85.9,32.3c-33,0-63.1-12.3-86.1-32.5c-2.4,0.3-4.8,0.6-7.2,0.9
		c-21.9,2.5-42.5,18.4-51.1,29.3C24.5,284.6,0.2,373.3,14.9,410c36.3,91,229.7,101,312.3,37H306.4z"/>
	<path fill-rule="evenodd" clip-rule="evenodd" d="M486.7,422c0-12,0-37,0-50c-25,0-50,0-62,0c0-25,0-50,0-75c-25,0-38,0-50,0
		c0,25,0,50,0,75c-25,0-50,0-75,0c0,13,0,38,0,50c25,0,50,0,75,0c0,25,0,50.5,0,75.6c12,0,47.7-0.3,47.7-0.3l3.1-75.3
		C425.4,422,461.7,422,486.7,422z"/>
</g>
</svg>
