<?xml version="1.0" encoding="utf-8"?>
<!-- Generator: Adobe Illustrator 19.1.0, SVG Export Plug-In . SVG Version: 6.00 Build 0)  -->
<svg version="1.1" id="Layer_1" xmlns="http://www.w3.org/2000/svg" xmlns:xlink="http://www.w3.org/1999/xlink" x="0px" y="0px"
	 width="500px" height="500px" viewBox="0 0 500 500" enable-background="new 0 0 500 500" xml:space="preserve">
<g>
	<g>
		<path fill-rule="evenodd" clip-rule="evenodd" d="M397.7,264.7c-7.5-11.9-36.4-29.6-55.8-32.4c-23.2,20.2-53.4,32.5-86.5,32.5
			c-33.2,0-63.5-12.4-86.7-32.7c-2.4,0.3-4.8,0.6-7.3,0.9c-22.1,2.5-42.8,18.5-51.4,29.5c-19.8,25.4-44.3,116.2-29.5,153.2
			c42.4,106.2,297.3,107.4,344.7,1.1C441,381.2,414.7,291.6,397.7,264.7z"/>
	</g>
	<g>
		<path fill="#020000" d="M368.3,120c0,64.7-50.6,117.1-112.9,117.1c-62.4,0-112.9-52.4-112.9-117.1C142.4,55.3,193,2.9,255.4,2.9
			C317.7,2.9,368.3,55.3,368.3,120z"/>
	</g>
</g>
</svg>
