<?xml version="1.0" encoding="utf-8"?>
<!-- Generator: Adobe Illustrator 19.2.1, SVG Export Plug-In . SVG Version: 6.00 Build 0)  -->
<svg version="1.1" id="Calque_1" xmlns="http://www.w3.org/2000/svg" xmlns:xlink="http://www.w3.org/1999/xlink" x="0px" y="0px"
	 width="500px" height="500px" viewBox="0 0 500 500" style="enable-background:new 0 0 500 500;" xml:space="preserve">
<path d="M442.3,415.1L130.5,93.3L64.6,25.4L32.1,57.9l71.8,71.8v0.3c-13.3,25.4-20.5,55.4-20.5,87.7v128.2l-51.3,51.3v25.6h352.1
	l51.3,51.3l32.6-32.6L442.3,415.1z M237.2,500c28.5,0,51.3-22.8,51.3-51.3H185.9C185.9,477.2,208.7,500,237.2,500z M391,312.3v-94.4
	c0-79-42.1-144.6-115.4-162.1V38.5c0-21.3-17.2-38.5-38.5-38.5s-38.5,17.2-38.5,38.5v17.4c-3.8,0.8-7.4,2.1-10.8,3.1
	c-2.6,0.8-5.1,1.8-7.7,2.8H180c-0.3,0-0.3,0-0.5,0.3c-5.9,2.3-11.8,5.1-17.4,7.9c0,0-0.3,0-0.3,0.3L391,312.3z"/>
</svg>
