<?xml version="1.0" encoding="utf-8"?>
<!-- Generator: Adobe Illustrator 19.1.0, SVG Export Plug-In . SVG Version: 6.00 Build 0)  -->
<svg version="1.1" id="Layer_1" xmlns="http://www.w3.org/2000/svg" xmlns:xlink="http://www.w3.org/1999/xlink" x="0px" y="0px"
	 width="500px" height="500px" viewBox="0 0 500 500" enable-background="new 0 0 500 500" xml:space="preserve">
<path d="M471.4,361.5c-2-8.8-7.3-16.3-14.9-21.1c-15.7-9.9-36.5-5.2-46.5,10.5c-31.4,49.8-85.3,79.5-144.1,79.5
	C172,430.4,95.6,354,95.6,260.1c0-93.9,76.4-170.3,170.3-170.3c27.9,0,55.3,6.9,79.9,20.1l-29.5,1.6c-16,1.1-28.5,15-27.8,31.3
	c1,15.6,14.1,27.8,29.8,27.8l105.3-5.7c16-1.1,28.5-15,27.8-31.2l-5.7-103.8c-0.4-7.9-3.9-15.1-9.8-20.4c-5.4-4.9-12.4-7.6-19.7-7.6
	L414.4,2c-16,1.1-28.5,15-27.8,31.2l1.3,23.2C351,34.3,309,22.5,265.9,22.5c-131,0-237.7,106.6-237.7,237.7
	c0,131,106.6,237.7,237.7,237.7c82,0,157.2-41.5,201.1-110.9C471.8,379.3,473.4,370.3,471.4,361.5z"/>
</svg>
