<?xml version="1.0" encoding="utf-8"?>
<!-- Generator: Adobe Illustrator 19.2.1, SVG Export Plug-In . SVG Version: 6.00 Build 0)  -->
<svg version="1.1" id="Layer_1" xmlns="http://www.w3.org/2000/svg" xmlns:xlink="http://www.w3.org/1999/xlink" x="0px" y="0px"
	 width="500px" height="500px" viewBox="0 0 500 500" enable-background="new 0 0 500 500" xml:space="preserve">
<path d="M272.7,159.3c0-50.1-40.6-90.7-90.7-90.7s-90.7,40.6-90.7,90.7S131.8,250,182,250S272.7,209.4,272.7,159.3z"/>
<polygon points="339.6,275.4 371.7,307.5 419.8,259.4 467.9,307.5 500,275.4 451.9,227.3 500,179.2 467.9,147.1 419.8,195.2 
	371.7,147.1 339.6,179.2 387.7,227.3 "/>
<path d="M1,386.1V431h363v-44.9c0-60.3-120.9-90.7-181.5-90.7S1,325.7,1,386.1z"/>
</svg>
