<?xml version="1.0" encoding="utf-8"?>
<!-- Generator: Adobe Illustrator 19.1.0, SVG Export Plug-In . SVG Version: 6.00 Build 0)  -->
<svg version="1.1" id="Layer_1" xmlns="http://www.w3.org/2000/svg" xmlns:xlink="http://www.w3.org/1999/xlink" x="0px" y="0px"
	 width="500px" height="500px" viewBox="0 0 500 500" enable-background="new 0 0 500 500" xml:space="preserve">
<g>
	<g>
		<path d="M277.7,127.1c0,61.1-47.8,110.7-106.7,110.7c-59,0-106.7-49.6-106.7-110.7C64.3,65.9,112,16.4,171,16.4
			C229.9,16.4,277.7,65.9,277.7,127.1z"/>
	</g>
	<path fill-rule="evenodd" clip-rule="evenodd" d="M234.9,344.6c0-35.8,22.9-68.4,60.6-87.7l0.4-3c-11.6-9.3-29.7-18.8-43.1-20.7
		c-21.9,19.1-50.5,30.7-81.8,30.7c-31.4,0-60-11.7-82-30.9c-2.2,0.3-4.5,0.6-6.9,0.9c-20.9,2.4-40.5,17.5-48.6,27.9
		c-18.8,24-41.9,109.8-27.9,144.8c35.4,88.7,227.6,99.9,302.7,31.9C264.4,421,234.9,386,234.9,344.6z"/>
	<path d="M389.1,423.6L335.2,462l-5.5-48.2c-35.1-13.9-58.9-40.7-58.9-71.6c0-45,50.7-81.5,113.1-81.5c62.5,0,113.1,36.5,113.1,81.5
		C497,386,449.1,421.6,389.1,423.6z"/>
</g>
</svg>
