<?xml version="1.0" encoding="utf-8"?>
<!-- Generator: Adobe Illustrator 19.1.0, SVG Export Plug-In . SVG Version: 6.00 Build 0)  -->
<svg version="1.1" id="Layer_1" xmlns="http://www.w3.org/2000/svg" xmlns:xlink="http://www.w3.org/1999/xlink" x="0px" y="0px"
	 width="500px" height="500px" viewBox="0 0 500 500" enable-background="new 0 0 500 500" xml:space="preserve">
<g>
	<path d="M492.1,443.1L338.5,289.4c19.9-29.7,30.7-64.7,30.7-101.3c0-48.7-19-94.5-53.4-129c-34.4-34.5-80.2-53.4-129-53.4
		c-48.7,0-94.5,19-129,53.4c-34.5,34.5-53.4,80.3-53.4,129c0,48.7,19,94.5,53.4,129c34.5,34.5,80.3,53.4,129,53.4
		c37,0,72.4-11,102.3-31.4l153.5,153.5c5.2,5.2,14.7,4.1,21.3-2.5l25.8-25.8C496.1,457.8,497.3,448.2,492.1,443.1z M186.7,321.1
		c-73.3,0-133-59.7-133-133c0-73.3,59.7-133,133-133c73.3,0,133,59.7,133,133C319.7,261.4,260,321.1,186.7,321.1z"/>
	<polygon points="200,174.6 200,113.3 173,113.3 173,174.6 111.8,174.7 111.8,201.7 173,201.6 173,263.3 200,263.3 200,201.6 
		261.6,201.5 261.6,174.5 	"/>
</g>
</svg>
