<?xml version="1.0" encoding="utf-8"?>
<!-- Generator: Adobe Illustrator 19.2.1, SVG Export Plug-In . SVG Version: 6.00 Build 0)  -->
<svg version="1.1" id="Layer_1" xmlns="http://www.w3.org/2000/svg" xmlns:xlink="http://www.w3.org/1999/xlink" x="0px" y="0px"
	 width="500px" height="500px" viewBox="0 0 500 500" enable-background="new 0 0 500 500" xml:space="preserve">
<g>
	<g>
		<path d="M425.5,36.5H42.3c-23.4,0-41.7,19-41.7,42.4v255.5c0,23.4,18.3,43.1,41.7,43.1h149l-41.8,63.4v22.6h170v-22.6l-43.1-63.4
			h52.1v-85h-286v-213h383v133.9l43,0V78.9C468.5,55.5,448.9,36.5,425.5,36.5z"/>
	</g>
	<path d="M499.5,270.1c0-10.6-8.6-18.6-19.2-18.6h-95.6c-10.6,0-19.2,8.1-19.2,18.6v172.8c0,10.6,8.6,19.6,19.2,19.6h95.6
		c10.6,0,19.2-9.1,19.2-19.6V270.1z M480.5,424.5h-96v-135h96V424.5z"/>
</g>
</svg>
