<?xml version="1.0" encoding="utf-8"?>
<!-- Generator: Adobe Illustrator 19.2.1, SVG Export Plug-In . SVG Version: 6.00 Build 0)  -->
<svg version="1.1" id="Layer_1" xmlns="http://www.w3.org/2000/svg" xmlns:xlink="http://www.w3.org/1999/xlink" x="0px" y="0px"
	 width="500px" height="500px" viewBox="0 0 500 500" enable-background="new 0 0 500 500" xml:space="preserve">
<path d="M249.8-0.3C111.7-0.3,0,111.7,0,249.7s111.7,250,249.8,250c138.2,0,250.2-112,250.2-250S388-0.3,249.8-0.3z M423,150h-73.8
	c-8-31-19.5-61.2-34.5-89C360.8,76.8,399,109,423,150z M250,51c20.8,30,37,63,47.8,99h-95.5C213,114,229.2,81,250,51z M56.5,300
	c-4-16-6.5-32.8-6.5-50s2.5-34,6.5-50H141c-2,17-3.5,33-3.5,50s1.5,34,3.5,50H56.5z M77,350h73.8c8,31,19.5,61.2,34.5,89
	C139.3,423.2,101,392,77,350z M150.8,150H77c24-41,62.2-73.2,108.2-89C170.3,88.8,158.8,119,150.8,150z M250,449
	c-20.8-30-37-63-47.8-99h95.5C287,386,270.8,419,250,449z M308.5,300h-117c-2.3-16-4-33-4-50s1.7-34,4-50h117c2.2,16,4,33,4,50
	S310.8,284,308.5,300z M314.8,439c15-27.7,26.5-58,34.5-89H423C399,391,360.8,423.2,314.8,439z M359,300c2-16,3.5-33,3.5-50
	s-1.5-33-3.5-50h84.5c4,16,6.5,32.8,6.5,50s-2.5,34-6.5,50H359z"/>
</svg>
