<?xml version="1.0" encoding="utf-8"?>
<!-- Generator: Adobe Illustrator 19.1.0, SVG Export Plug-In . SVG Version: 6.00 Build 0)  -->
<svg version="1.1" id="Layer_1" xmlns="http://www.w3.org/2000/svg" xmlns:xlink="http://www.w3.org/1999/xlink" x="0px" y="0px"
	 width="500px" height="500px" viewBox="0 0 500 500" enable-background="new 0 0 500 500" xml:space="preserve">
<text transform="matrix(1.0942 0 0 1 24.8271 -33.0033)" font-family="'OpenSans-Bold'" font-size="678.6436px">€</text>
<path d="M496.7,193.2c-3.2-10.1-12.6-16.9-23.2-16.9L321.2,176L273.9,33.4c-3.3-10-12.6-16.7-23.2-16.7c-10.5,0-19.8,6.7-23.2,16.7
	L180.2,176l-152.3,0.2c-10.6,0-20,6.9-23.2,16.9c-3.2,10.1,0.4,21.1,9,27.3l122.8,88.2L90,451.2c-3.3,10,0.3,21,8.8,27.2
	c4.3,3.1,9.4,4.7,14.4,4.7c5,0,9.9-1.5,14.2-4.5l123.4-88.2l123.4,88.2c8.6,6.1,20.1,6,28.6-0.2c8.5-6.2,12-17.2,8.8-27.2
	l-46.5-142.6l122.8-88.2C496.3,214.3,500,203.2,496.7,193.2z"/>
</svg>
