<?xml version="1.0" encoding="utf-8"?>
<!-- Generator: Adobe Illustrator 19.1.0, SVG Export Plug-In . SVG Version: 6.00 Build 0)  -->
<svg version="1.1" id="Layer_1" xmlns="http://www.w3.org/2000/svg" xmlns:xlink="http://www.w3.org/1999/xlink" x="0px" y="0px"
	 width="500px" height="500px" viewBox="0 0 500 500" enable-background="new 0 0 500 500" xml:space="preserve">
<path d="M186.7,321.1c-73.3,0-133-59.7-133-133s59.7-133,133-133s133,59.7,133,133S260,321.1,186.7,321.1z M492.1,443.1L338.5,289.4
	c19.9-29.7,30.7-64.7,30.7-101.3c0-48.7-19-94.5-53.4-129c-34.4-34.5-80.2-53.4-129-53.4c-48.7,0-94.5,19-129,53.4
	c-34.5,34.5-53.4,80.3-53.4,129c0,48.7,19,94.5,53.4,129c34.5,34.5,80.3,53.4,129,53.4c37,0,72.4-11,102.3-31.4l153.5,153.5
	c5.2,5.2,14.7,4.1,21.3-2.5l25.8-25.8C496.1,457.8,497.3,448.2,492.1,443.1z"/>
<g>
	<rect x="173" y="113.2" width="27" height="149.8"/>
	<rect x="173.2" y="113.2" transform="matrix(9.918134e-04 1 -1 9.918134e-04 374.5996 1.1819)" width="27" height="149.8"/>
</g>
</svg>
