<?xml version="1.0" encoding="utf-8"?>
<!-- Generator: Adobe Illustrator 19.1.0, SVG Export Plug-In . SVG Version: 6.00 Build 0)  -->
<svg version="1.1" id="Layer_1" xmlns="http://www.w3.org/2000/svg" xmlns:xlink="http://www.w3.org/1999/xlink" x="0px" y="0px"
	 width="500px" height="500px" viewBox="0 0 500 500" enable-background="new 0 0 500 500" xml:space="preserve">
<g>
	<path d="M479.3,74.5c-0.2-0.7-0.6-1.4-1-2.1c-0.2-0.3-0.5-0.7-0.7-1c-1.1-1.3-2.5-2.3-3.9-2.9c-0.4-0.2-0.7-0.3-1.1-0.4l-17.2-4.5
		L421,54.7l-13-32.2l-6.5-16.1c-1.1-2.7-3.6-4.8-6.5-5.3C394.3,1,393.6,1,392.9,1c-2.2,0.2-4.2,1.1-5.7,2.8l-63.2,72.5
		c-0.5,0.6-1,1.3-1.3,2c-0.5,1-0.8,2.2-0.9,3.3c0,1.1,0.2,2.3,0.6,3.4l9.3,22.1l3.1,7.4l-0.5,0.6l-90.6,104
		c-25.9-6.4-54.4,1.4-73.1,22.9c-26.6,30.5-23.4,76.9,7.1,103.5c30.5,26.6,76.9,23.4,103.5-7.1c21.5-24.7,23.5-59.7,7.3-86.3
		l85.8-98.4l1.5-1.7l32,7.4c3,0.7,6.1-0.4,8.1-2.8l63.1-72.5c0.1-0.1,0.2-0.3,0.3-0.4c0.2-0.3,0.4-0.6,0.5-1
		c0.1-0.4,0.2-0.8,0.2-1.2C480.5,79.1,479.9,76.4,479.3,74.5z"/>
	<path d="M411.6,198c-4.2,0.2-8.4,0-12.5-1l-9.2-2.1l-17.7,20.3c-2.1,2.4-4.6,4.5-7.2,6.4c8.8,17.9,14.2,37.5,15.6,58
		c2.9,41.3-10.5,81.2-37.7,112.5c-10.7,12.3-23.1,22.7-36.8,31c-57.8,34.9-130.9,28.5-181.8-15.9c-64.4-56.1-71.2-154.2-15.1-218.7
		c10.7-12.3,23.1-22.7,36.8-31c36.5-22,79.2-27.6,118.5-17.4c1.9-4.4,4.2-8.6,7.4-12.2l17.9-20.5l-3-7.2c-1.2-2.8-2-5.7-2.6-8.7
		c-54.3-16-114.1-9.4-165.1,21.4c-18.4,11.1-35,25-49.2,41.4c-36.3,41.7-54.2,95-50.3,150.3c3.8,55.3,28.8,105.7,70.5,142
		c68.1,59.3,165.7,67.8,243,21.2c18.4-11.1,35-25,49.2-41.4c36.3-41.7,54.3-95.1,50.4-150.3C430.8,248.4,423.6,222,411.6,198z"/>
</g>
</svg>
