<?xml version="1.0" encoding="utf-8"?>
<!-- Generator: Adobe Illustrator 19.1.0, SVG Export Plug-In . SVG Version: 6.00 Build 0)  -->
<svg version="1.1" id="Layer_1" xmlns="http://www.w3.org/2000/svg" xmlns:xlink="http://www.w3.org/1999/xlink" x="0px" y="0px"
	 width="500px" height="500px" viewBox="0 0 500 500" enable-background="new 0 0 500 500" xml:space="preserve">
<path fill-rule="evenodd" clip-rule="evenodd" d="M460.8,330.7c9.7,0,17.6,7.9,17.6,17.6c0,9.7-7.9,17.4-17.6,17.4
	c-9.7,0-17.4-7.7-17.4-17.4C443.4,338.6,451.1,330.7,460.8,330.7z M40.2,330.7c9.7,0,17.4,7.9,17.4,17.6c0,9.7-7.7,17.4-17.4,17.4
	s-17.6-7.7-17.6-17.4C22.6,338.6,30.5,330.7,40.2,330.7z M154.2,128.7c-16.9,8.1-30.7,17.1-39.2,24.4c0,0,1.3,2-27.4,2v151.8
	c0,0,11-2.2,29.3,12.2c18.3,14.4,94.2,79,109,77.8c8.2,0.8,26.2-6.6,21.7-22.3c20.9,16.4,35.8,10.6,37.7,9.3c0,0,12.6-6.6,8.6-20.3
	c6.5,4.6,25.1,16.9,37.7,7.8c6.6-4.6,7.2-18.3,4.6-22.2c-2.6-3.9,44.9,20.7,43.8-18.8c0.2-1.2-0.2-2.4-0.2-3.6L250.2,177.2
	c-3.7-4.2-10.7,0-16.4,3.9c-9.3,5.9-17.7,13.5-27.1,19.3c-22,16-53.5,22.1-78,8.1c-13.7-5.9-27.5-27.8-18.1-37.2
	c14.4-15.8,31.6-28.8,49.1-41.3C158,129.6,156.2,129.1,154.2,128.7z M435.8,119.5c-4.5,0-8.1,3.8-8.1,8.3v239.6
	c0,4.5,3.6,8.1,8.1,8.1H486c4.5,0,8.1-3.6,8.1-8.1V127.8c0-4.5-3.6-8.3-8.1-8.3H435.8z M15,119.5c-4.5,0-8.1,3.8-8.1,8.3v239.6
	c0,4.5,3.6,8.1,8.1,8.1h50.3c4.6,0,8.1-3.6,8.1-8.1V127.8c0-4.5-3.6-8.3-8.1-8.3H15z M248.1,104.1c-12.7,0.1-25.2,1.8-35.7,5.1
	c-12.9,9.3-77.3,56-87.5,66.2c-11.4,11.4,23.3,37.5,56.7,22.2c29.7-13.7,49.7-36.3,62.8-37.9c2.8-0.4,4.5-0.6,8,2.4L393,323.1
	c6.3-3.4,14.1-6.6,20.5-6.3V155.2c0,0-75.5-14.7-101.3-35C297.9,109.3,272.5,103.9,248.1,104.1z"/>
</svg>
