<?xml version="1.0" encoding="utf-8"?>
<!-- Generator: Adobe Illustrator 19.1.0, SVG Export Plug-In . SVG Version: 6.00 Build 0)  -->
<svg version="1.1" id="Layer_1" xmlns="http://www.w3.org/2000/svg" xmlns:xlink="http://www.w3.org/1999/xlink" x="0px" y="0px"
	 width="500px" height="500px" viewBox="0 0 500 500" enable-background="new 0 0 500 500" xml:space="preserve">
<g>
	<path d="M216.1,84.2c3,5.2,8.6,8.8,14.7,8.8h31.6c6.1,0,11.8-3.7,14.5-8.6l33.8-57.1c3.7-6,3.3-13.8-0.9-19.4
		c-2.3-3-5.9-4.8-9.7-4.8l-57.7-0.1L195,3c-4.2,0-8.1,2.2-10.3,5.8c-3.5,5.7-3.6,12.8-0.5,17.8L216.1,84.2z"/>
	<path d="M330.9,408.9l-44.5-253.7c-0.7-9.3-8.7-14.2-18-14.2h-37.3c-9.5,0-17.2,4.7-17.9,13.1l-43.4,256c-0.8,4.8,0.5,9.2,4.2,13.8
		l61.5,66.7c3.5,4.1,8.6,6.3,13.9,6.3c5.6,0,10.7-2.5,14-6.6l63-66.8c0.6-0.6,1.1-1.3,1.5-2c2-3.2,3-6.9,3-10.5
		C331.1,410.3,331,409.6,330.9,408.9z"/>
</g>
</svg>
