<?xml version="1.0" encoding="utf-8"?>
<!-- Generator: Adobe Illustrator 19.1.0, SVG Export Plug-In . SVG Version: 6.00 Build 0)  -->
<svg version="1.1" id="Layer_1" xmlns="http://www.w3.org/2000/svg" xmlns:xlink="http://www.w3.org/1999/xlink" x="0px" y="0px"
	 width="500px" height="500px" viewBox="0 0 500 500" enable-background="new 0 0 500 500" xml:space="preserve">
<g>
	<path d="M270.9,341.2l43.5-43.5c1-1,1.6-2.4,1.6-3.9c0-1.4-0.6-2.8-1.6-3.8l-10.6-10.1l39-38.7c39.8,10,83.7-0.4,114.7-31.5
		c23.1-23.1,35.6-53.7,35.3-86.3c-0.1-14.8-12.2-26.7-27-26.5c-14.8,0.1-26.7,12.2-26.5,27c0.2,18.1-6.8,35.1-19.6,48
		c-26.1,26.1-68.6,26.1-94.7,0c-26.1-26.1-26.1-68.6,0-94.7c13.3-13.3,30.9-20.2,49.7-19.6c14.8,0.5,27.2-11.1,27.7-25.8
		c0.5-14.8-11.1-27.2-25.9-27.7c-33.3-1.1-65.9,11.7-89.4,35.3c-33.6,33.6-43,82.2-28.6,124.4l-35.5,35.3l-84.6-84.4L124.6,74
		c-0.5-1.3-1.4-2.4-2.7-3.1L48.7,34.4c-2.1-1-4.5-0.6-6.2,1L8.3,69.6c-1.6,1.6-2,4.1-1,6.2L43.8,149c0.6,1.3,1.7,2.2,3.1,2.7
		l40.6,13.7l84.4,84.6L22.5,399.7C12,410.1,6.3,424,6.3,438.8c0,14.8,5.8,28.7,16.2,39.1l2.6,2.6c10.8,10.8,25,16.2,39.1,16.2
		s28.3-5.4,39.1-16.2l141.2-141.2l8.4-8.2l10.5,10.2C265.5,343.3,268.8,343.3,270.9,341.2z"/>
	<path d="M376.3,322.6l4.9-4.9c4-3.8,6.3-9,6.3-14.7c0.1-5.7-2.2-11.3-6.2-15.3l-1-0.9c-8.3-8-21.4-7.9-29.8,0.1l-90.8,90.8
		c-8,8.3-8,21.4,0.1,29.8l0.9,0.9c4,4,9.5,6.1,15.3,6.2c5.6-0.1,10.9-2.3,14.6-6.2l5-5l76.5,76.5c10.8,10.8,25,16.2,39.1,16.2
		s28.3-5.4,39.1-16.2l2.5-2.5c10.5-10.4,16.2-24.3,16.2-39.1c0-14.8-5.8-28.7-16.2-39.1L376.3,322.6z"/>
</g>
</svg>
