<?xml version="1.0" encoding="utf-8"?>
<!-- Generator: Adobe Illustrator 19.1.0, SVG Export Plug-In . SVG Version: 6.00 Build 0)  -->
<svg version="1.1" id="Layer_1" xmlns="http://www.w3.org/2000/svg" xmlns:xlink="http://www.w3.org/1999/xlink" x="0px" y="0px"
	 width="500px" height="500px" viewBox="0 0 500 500" enable-background="new 0 0 500 500" xml:space="preserve">
<g>
	<path d="M416.7,2.3c44.8,0,81.2,36.3,81.2,81.2V416c0,44.8-36.3,81.2-81.2,81.2H84.3c-44.8,0-81.2-36.3-81.2-81.2V83.5
		c0-44.8,36.3-81.2,81.2-81.2H416.7z M362.4,263.7c4.9-3,8-8.2,8-14c0-5.8-3-11-8-14l-179-105c-4.9-3-11.3-3-16.2-0.3
		c-5.2,3-8.2,8.5-8.2,14.3v210c0,5.8,3,11.3,8.2,14.3c2.5,1.4,5.2,2.2,8,2.2c3,0,5.8-0.8,8.2-2.5L362.4,263.7z"/>
</g>
</svg>
