<?xml version="1.0" encoding="utf-8"?>
<!-- Generator: Adobe Illustrator 19.2.1, SVG Export Plug-In . SVG Version: 6.00 Build 0)  -->
<svg version="1.1" id="Layer_1" xmlns="http://www.w3.org/2000/svg" xmlns:xlink="http://www.w3.org/1999/xlink" x="0px" y="0px"
	 width="500px" height="500px" viewBox="0 0 500 500" enable-background="new 0 0 500 500" xml:space="preserve">
<path d="M369,166.6h-24v-47.7c0-65.7-53.3-119-119-119s-119,53.3-119,119v47.7H83.3c-26.2,0-47.3,21.4-47.3,47.6v238.1
	c0,26.2,21.1,47.4,47.3,47.4H369c26.2,0,48-21.2,48-47.4V214.1C417,187.9,395.2,166.6,369,166.6z M226.2,380.8
	c-26.2,0-47.6-21.4-47.6-47.6s21.4-47.6,47.6-47.6s47.6,21.4,47.6,47.6S252.4,380.8,226.2,380.8z M300,166.6H152v-47.7
	c0-40.7,33.3-73.8,74-73.8s74,33.1,74,73.8V166.6z"/>
</svg>
