<?xml version="1.0" encoding="utf-8"?>
<!-- Generator: Adobe Illustrator 19.1.0, SVG Export Plug-In . SVG Version: 6.00 Build 0)  -->
<svg version="1.1" id="Layer_1" xmlns="http://www.w3.org/2000/svg" xmlns:xlink="http://www.w3.org/1999/xlink" x="0px" y="0px"
	 width="500px" height="500px" viewBox="0 0 500 500" enable-background="new 0 0 500 500" xml:space="preserve">
<g>
	<path d="M295.6,272.3h-74.4c-39.6,0-88.2,8.1-88.2,50.1v67.3l116.7,0.5l112.3-0.4v-67.4C362,285.9,345.1,272.3,295.6,272.3z"/>
	<path d="M495.2,247.6L258.8,110.4c-1-0.5-2.1-0.5-3.1,0L5.7,247.5c-1.2,0.6-1.9,1.7-1.9,3s1.8,2.5,3,3L86,292v85.9l13.5-19.3
		l13.5,19.3l1-66.2c3.8-41.3,41.9-60.4,107.3-60.4h74.4c36.7,0,84.9,3.4,88.7,60.2L495,255.4c1.2-0.6,2-2.6,2-3.9
		C497,250.2,496.4,248.1,495.2,247.6z"/>
</g>
</svg>
