<?xml version="1.0" encoding="utf-8"?>
<!-- Generator: Adobe Illustrator 19.1.0, SVG Export Plug-In . SVG Version: 6.00 Build 0)  -->
<svg version="1.1" id="Layer_1" xmlns="http://www.w3.org/2000/svg" xmlns:xlink="http://www.w3.org/1999/xlink" x="0px" y="0px"
	 width="500px" height="500px" viewBox="0 0 500 500" enable-background="new 0 0 500 500" xml:space="preserve">
<g>
	<g>
		<path d="M413.8,453H86.2C41.1,453,4,416.5,4,371.4v-92.1c0-17,14-30.7,31-30.7c17,0,31,13.8,31,30.7v92.1
			c0,11.3,8.9,20.6,20.2,20.6h327.6c11.3,0,20.2-9.4,20.2-20.6v-92.1c0-17,14-30.7,31-30.7c17,0,31,13.8,31,30.7v92.1
			C496,416.5,458.9,453,413.8,453z"/>
	</g>
	<path d="M377.5,164.4c0-6.8-2.6-13.2-7.5-18.1l-92-91.9c-4.8-4.7-11.2-7.3-18.1-7.3s-13.2,2.6-18.1,7.3l-92,92
		c-9.7,10-9.8,26.1-0.1,36.1c4.8,4.7,11.1,7.3,17.9,7.3c6.8,0,12.9-2.6,17.7-7.3l44.5-45.2v149.9c0,1.6,1.2,3.2,1.5,4.7
		c2.3,13.2,15.2,23.3,29.6,23.3c16,0,29.9-12.5,29.9-28V137.6l43.8,44.8c4.8,4.7,10.4,7.3,17.2,7.3c6.8,0,13.2-2.6,18-7.3
		C374.9,177.6,377.5,171.2,377.5,164.4z M279.6,287.1c0,1.3-0.1,2.5-0.4,3.7C279.4,289.6,279.6,288.4,279.6,287.1z"/>
</g>
</svg>
