<?xml version="1.0" encoding="utf-8"?>
<!-- Generator: Adobe Illustrator 19.1.0, SVG Export Plug-In . SVG Version: 6.00 Build 0)  -->
<svg version="1.1" id="Layer_1" xmlns="http://www.w3.org/2000/svg" xmlns:xlink="http://www.w3.org/1999/xlink" x="0px" y="0px"
	 width="500px" height="500px" viewBox="0 0 500 500" enable-background="new 0 0 500 500" xml:space="preserve">
<path d="M299,291c0,26.7-21.6,48.3-48.3,48.3h-0.4c-26.7,0-48.3-21.6-48.3-48.3V49.6c0-26.7,21.6-48.3,48.3-48.3h0.4
	C277.4,1.3,299,23,299,49.6V291z"/>
<path d="M299,449.5c0,25.8-20.9,46.8-46.8,46.8h-3.4c-25.8,0-46.8-20.9-46.8-46.8v-3.4c0-25.8,20.9-46.8,46.8-46.8h3.4
	c25.8,0,46.8,20.9,46.8,46.8V449.5z"/>
</svg>
