<?xml version="1.0" encoding="utf-8"?>
<!-- Generator: Adobe Illustrator 19.1.0, SVG Export Plug-In . SVG Version: 6.00 Build 0)  -->
<svg version="1.1" id="Layer_1" xmlns="http://www.w3.org/2000/svg" xmlns:xlink="http://www.w3.org/1999/xlink" x="0px" y="0px"
	 width="500px" height="500px" viewBox="0 0 500 500" enable-background="new 0 0 500 500" xml:space="preserve">
<g>
	<path d="M38.7,84.9l147,129.5c13.3,11.8,20.5,27.3,20.5,43.9s-7.2,32.1-20.5,43.9l-74.1,65.3l-34.5-30.2l74.1-65.5
		c4.1-3.5,6.3-8.3,6.3-13.4c0-5.1-2.2-9.9-6.3-13.6L4.2,115.2L38.7,84.9z M59,433.8l147-129.5c13.5-11.8,31.1-18.2,49.7-18.2
		c18.8,0,36.7,6.4,50,18.2l74.1,65.3l-34.5,30.5l-74.1-65.5c-4.1-3.5-9.7-5.3-15.4-5.3c-5.8,0-11.1,1.9-15.2,5.3l-147,129.8
		L59,433.8z M439.8,69.2l-147,129.5c-13.3,11.8-30.9,18.2-49.7,18.2c-18.8,0-36.4-6.4-49.7-18.2l-74.1-65.3l34.3-30.2l74.1,65.3
		c4.1,3.7,9.7,5.6,15.5,5.6c5.8,0,11.1-1.9,15.2-5.6L405.5,38.9L439.8,69.2z M243.9,56.8c-20,0-36.4,14.4-36.4,32.1
		c0,17.4,16.4,31.8,36.4,31.8c20,0,36.2-14.4,36.2-31.8C280.2,71.3,264,56.8,243.9,56.8z M461.5,420.2l-147-129.5
		c-13.3-11.8-20.5-27.3-20.5-43.9c0-16.6,7.2-32.1,20.5-43.9l74.1-65.3l34.5,30.5L349,233.4c-4.1,3.5-6.3,8.3-6.3,13.4
		c0,5.1,2.2,9.9,6.3,13.6l147,129.5L461.5,420.2z"/>
</g>
</svg>
