<?xml version="1.0" encoding="utf-8"?>
<!-- Generator: Adobe Illustrator 19.1.0, SVG Export Plug-In . SVG Version: 6.00 Build 0)  -->
<svg version="1.1" id="Layer_1" xmlns="http://www.w3.org/2000/svg" xmlns:xlink="http://www.w3.org/1999/xlink" x="0px" y="0px"
	 width="500px" height="500px" viewBox="0 0 500 500" enable-background="new 0 0 500 500" xml:space="preserve">
<g>
	<path d="M479.3,74.5c-0.9-2.8-3.9-5.6-6.8-6.3L421,54.7L401.5,6.4c-1.1-2.7-3.6-4.8-6.5-5.3c-2.9-0.5-5.9,0.5-7.8,2.7l-63.2,72.5
		c-2.1,2.4-2.8,5.7-1.5,8.7l12.4,29.5l-33.8,38.8c-3.1,3.5-2.4,9.1,1.1,12.1l25.4,22.1c3.5,3,12.3,5.7,15.4,2.2l33-37.8l32,7.4
		c3,0.7,6.1-0.4,8.1-2.8l63.1-72.5C481.1,81.7,480.1,77.3,479.3,74.5z"/>
	<path d="M399.1,197l-9.2-2.1l-17.7,20.3c-2.1,2.4-4.6,4.5-7.2,6.4c8.8,17.9,14.2,37.5,15.6,58c2.9,41.3-10.5,81.2-37.7,112.5
		c-10.7,12.3-23.1,22.7-36.8,31c-57.8,34.9-130.9,28.5-181.8-15.9c-64.4-56.1-71.2-154.2-15.1-218.7c10.7-12.3,23.1-22.7,36.8-31
		c36.5-22,79.2-27.6,118.5-17.4c1.9-4.4,4.2-8.6,7.4-12.2l17.9-20.5l-3-7.2c-1.2-2.8-2-5.7-2.6-8.7c-54.3-16-114.1-9.4-165.1,21.4
		c-18.4,11.1-35,25-49.2,41.4c-36.3,41.7-54.2,95-50.3,150.3c3.8,55.3,28.8,105.7,70.5,142c68.1,59.3,165.7,67.8,243,21.2
		c18.4-11.1,35-25,49.2-41.4c36.3-41.7,54.3-95.1,50.4-150.3c-1.9-27.6-9.1-53.9-21-77.9C407.5,198.2,403.3,198,399.1,197z"/>
</g>
<path d="M472.5,68.1L421,54.7L401.5,6.4c-1.1-2.7-3.6-4.8-6.5-5.3c-2.9-0.5-5.9,0.5-7.8,2.7l-63.2,72.5c-2.1,2.4-2.8,5.7-1.5,8.7
	l12.4,29.5l-91.1,104.6c-25.9-6.4-54.4,1.4-73.1,22.9c-26.6,30.5-23.4,76.9,7.1,103.5c30.5,26.6,76.9,23.4,103.5-7.1
	c21.5-24.7,23.5-59.7,7.3-86.3l87.3-100.2l32,7.4c3,0.7,6.1-0.4,8.1-2.8l63.1-72.5c1.9-2.2,0.9-6.7,0.1-9.4
	C478.4,71.7,475.3,68.8,472.5,68.1z"/>
</svg>
