<?xml version="1.0" encoding="utf-8"?>
<!-- Generator: Adobe Illustrator 19.1.0, SVG Export Plug-In . SVG Version: 6.00 Build 0)  -->
<svg version="1.1" id="Layer_1" xmlns="http://www.w3.org/2000/svg" xmlns:xlink="http://www.w3.org/1999/xlink" x="0px" y="0px"
	 width="500px" height="500px" viewBox="0 0 500 500" enable-background="new 0 0 500 500" xml:space="preserve">
<g>
	<path d="M333,258.9c12-2.4,26.7-7.5,41.9-16.8c9.1,22.1,13.9,46.4,13.9,72.3c0,48.5-16.8,91.2-50.1,127.5
		c-33.3,36.3-76,54.4-128.3,54.4c-52.5,0-95.5-18.1-128.8-54.4c-33.3-36.3-50.1-79-50.1-127.5c0-48.3,15.7-89.9,47.5-125.4
		c34.7-38.9,78.4-58.4,131.5-58.4c22.1,0,42.9,3.5,61.9,10.4c-6.1,12.3-11.7,26.9-13.3,42.9c-15.2-6.4-31.5-9.6-48.8-9.6
		c-36.5,0-68,13.9-94.4,41.3c-26.4,27.5-39.5,60.5-39.5,99.8c0,25.1,5.9,48.5,18.1,70.1c11.7,21.9,28,38.7,48.5,50.4
		c20.5,11.7,42.9,17.9,67.2,17.9c24.5,0,46.9-6.1,67.2-17.9c20.6-11.7,36.8-28.5,48.5-50.4c12.3-21.6,18.1-45.1,18.1-70.1
		C343.9,294.9,340.2,276.3,333,258.9z M318,168.5c0,0-31.2-48.3,8.3-88c0,0,13.9-15.5,53.6-25.3c0,0,39.8-8.5,61.1-54.1
		c0,0,44.5,62.1,17.1,143.8c0,0-13.3,36.8-41.6,53.6c-21.3,12.5-53.6,16.5-87.2-16.5c0,0,101.9-55.7,105.6-103
		C434.8,78.9,403.6,149.3,318,168.5z M318,168.5c0,0-31.2-48.3,8.3-88c0,0,13.9-15.5,53.6-25.3c0,0,39.8-8.5,61.1-54.1
		c0,0,44.5,62.1,17.1,143.8c0,0-13.3,36.8-41.6,53.6c-21.3,12.5-53.6,16.5-87.2-16.5c0,0,101.9-55.7,105.6-103
		C434.8,78.9,403.6,149.3,318,168.5z"/>
</g>
</svg>
