<?xml version="1.0" encoding="utf-8"?>
<!-- Generator: Adobe Illustrator 19.2.1, SVG Export Plug-In . SVG Version: 6.00 Build 0)  -->
<svg version="1.1" id="Layer_1" xmlns="http://www.w3.org/2000/svg" xmlns:xlink="http://www.w3.org/1999/xlink" x="0px" y="0px"
	 width="500px" height="500px" viewBox="0 0 500 500" enable-background="new 0 0 500 500" xml:space="preserve">
<path d="M400.6,353.1c-19.1,0-36.1,7.5-49.2,19.3l-179-104.2c1.3-5.8,2.3-11.5,2.3-17.6c0-6-1-11.8-2.3-17.6l177-103.2
	c13.6,12.5,31.4,20.3,51.2,20.3c41.7,0,75.3-33.6,75.3-75.3S442.3-0.3,400.6-0.3S325.3,33.4,325.3,75c0,6,1,11.8,2.3,17.6
	l-177,103.2c-13.6-12.5-31.4-20.3-51.2-20.3c-41.7,0-75.3,33.6-75.3,75.3S57.7,326,99.4,326c19.8,0,37.7-7.8,51.2-20.3l178.7,104.4
	c-1.3,5.3-2,10.8-2,16.3c0,40.4,32.9,73.3,73.3,73.3s73.3-32.9,73.3-73.3S441,353.1,400.6,353.1z"/>
</svg>
