<?xml version="1.0" encoding="utf-8"?>
<!-- Generator: Adobe Illustrator 19.2.1, SVG Export Plug-In . SVG Version: 6.00 Build 0)  -->
<svg version="1.1" id="Layer_1" xmlns="http://www.w3.org/2000/svg" xmlns:xlink="http://www.w3.org/1999/xlink" x="0px" y="0px"
	 width="500px" height="500px" viewBox="0 0 500 500" enable-background="new 0 0 500 500" xml:space="preserve">
<g>
	<rect x="125" y="450" width="250" height="50"/>
	<path d="M475,25h-82c-8.7-15-24.6-25-43-25H150c-18.4,0-34.4,10-43,25H25C11.2,25,0,36.2,0,50v100c0,7.6,3.5,14.8,9.4,19.5
		l123.2,98.5c22.6,28.4,55.2,48.4,92.4,54.7V350h-50c-13.8,0-25,11.2-25,25v50h200v-50c0-13.8-11.2-25-25-25h-50v-27.2
		c37.2-6.3,69.8-26.2,92.4-54.7l123.2-98.5c6-4.8,9.4-12,9.4-19.5V50C500,36.2,488.8,25,475,25z M50,138V75h50v100
		c0,1,0.1,2.1,0.2,3.1L50,138z M304.4,233.1l-54.1-32.6l-54.1,32.6l14.3-61.5l-47.8-41.4l62.9-5.3l24.6-58l24.6,58l62.9,5.3
		L290,171.6L304.4,233.1z M450,138l-50.2,40.1c0-1,0.2-2.1,0.2-3.1V75h50V138z"/>
</g>
</svg>
