<?xml version="1.0" encoding="utf-8"?>
<!-- Generator: Adobe Illustrator 19.1.0, SVG Export Plug-In . SVG Version: 6.00 Build 0)  -->
<svg version="1.1" id="Layer_1" xmlns="http://www.w3.org/2000/svg" xmlns:xlink="http://www.w3.org/1999/xlink" x="0px" y="0px"
	 width="500px" height="500px" viewBox="0 0 500 500" enable-background="new 0 0 500 500" xml:space="preserve">
<g>
	<path d="M1.8,405.9c0-35.4,28.8-64.2,64.2-64.2c20.6,0,39,9.6,50.8,25l123-51.3c-0.3-1.9-0.5-4.1-0.5-6c0-35.4,29.1-64.5,64.5-64.5
		c5.5,0,10.7,0.8,15.7,2.2l66.2-106.3c-11.3-11.5-18.1-27.2-18.1-44.5c0-35.7,28.8-64.5,64.2-64.5c35.4,0,64.2,28.8,64.2,64.5
		c0,35.4-28.8,64.2-64.2,64.2c-3.6,0-6.9-0.5-10.2-0.8l-68.1,109c9.1,11.3,14.6,25.3,14.6,40.6c0,35.4-28.8,64.2-64.2,64.2
		c-18.9,0-36-8.2-47.5-21.1l-126,52.4v1.1c0,35.4-28.8,64.2-64.2,64.2C30.6,470.2,1.8,441.4,1.8,405.9z"/>
</g>
</svg>
