<?xml version="1.0" encoding="utf-8"?>
<!-- Generator: Adobe Illustrator 19.2.1, SVG Export Plug-In . SVG Version: 6.00 Build 0)  -->
<svg version="1.1" id="Layer_1" xmlns="http://www.w3.org/2000/svg" xmlns:xlink="http://www.w3.org/1999/xlink" x="0px" y="0px"
	 width="500px" height="500px" viewBox="0 0 500 500" style="enable-background:new 0 0 500 500;" xml:space="preserve">
<g>
	<polygon points="445.3,141.3 461.7,211.8 399.8,174.4 337.8,211.8 354.3,141.3 299.5,93.9 371.6,87.8 399.8,21.3 427.9,87.8 
		500,93.9 	"/>
	<circle cx="137.2" cy="226.3" r="137.2"/>
	<path d="M64.5,478.7c-2.8,0-5.6-0.8-8.1-2.4c-5-3.2-7.6-9-6.7-14.9L74.5,303c1.1-7.3,7.4-13,14.7-13h100.2
		c7.4,0,13.7,5.8,14.8,13.1l22.9,152.2c0.8,5.5-1.5,11.1-6,14.4s-10.5,3.8-15.5,1.3l-71.1-35.7l-61.8,40.9
		C70.3,477.8,67.4,478.7,64.5,478.7z M102,321L84.5,432.8l40.8-27.1c4.5-3,10.2-3.3,14.9-0.9l53.1,26.9L176.6,321H102z"/>
</g>
</svg>
