<?xml version="1.0" encoding="utf-8"?>
<!-- Generator: Adobe Illustrator 19.1.0, SVG Export Plug-In . SVG Version: 6.00 Build 0)  -->
<svg version="1.1" id="Layer_1" xmlns="http://www.w3.org/2000/svg" xmlns:xlink="http://www.w3.org/1999/xlink" x="0px" y="0px"
	 width="500px" height="500px" viewBox="0 0 500 500" enable-background="new 0 0 500 500" xml:space="preserve">
<path fill="#070000" d="M462.2,196.1c-13.9-13.9-30.8-23.8-49.3-29.2l-54.6-34.4c-0.9-14.2-13.2-26.9-28.3-26.9H184
	c-13.6,0-24.9,10.4-27.8,22.6l-70.4,38.6c-18.4,5.4-35.2,15.4-49.1,29.3c-45.2,45.2-45.2,118.8,0,164c21.9,21.9,51,33.9,82,33.9
	c31,0,60.1-12,82-33.9c22.1-22.1,34.1-51.4,33.9-82.4c3.4,0.5,6.9,0.9,10.4,0.9c6.7,0,13.3-1,19.5-2.8
	c-0.6,30.5,10.6,61.2,33.8,84.4c21.9,21.9,51,33.9,82,33.9c31,0,60.1-12,82-33.9c22.3-22.3,34.3-51.8,33.9-83.1
	C495.9,246.5,483.8,217.8,462.2,196.1z M380.2,352.4c-19.9,0-38.6-7.7-52.6-21.7c-29-29-29-76.2,0-105.2c14-14,32.7-21.7,52.6-21.7
	c19.9,0,38.6,7.7,52.6,21.7c13.9,13.9,21.7,32.3,21.8,51.8c0.2,20.2-7.6,39.1-21.8,53.4C418.8,344.7,400.1,352.4,380.2,352.4z
	 M66,225.5c14-14,32.7-21.7,52.6-21.7c19.9,0,38.6,7.7,52.6,21.7c13.9,13.9,21.7,32.3,21.8,51.8c0.2,20.2-7.6,39.1-21.8,53.4
	c-14,14-32.7,21.7-52.6,21.7c-19.9,0-38.6-7.7-52.6-21.7C37,301.7,37,254.5,66,225.5z M223.7,217.7c0-12.8,10.7-23.5,23.5-23.5
	c13.1,0,23.8,10.7,23.8,23.5c0,13.1-10.7,23.8-23.8,23.8C234.4,241.5,223.7,230.8,223.7,217.7z"/>
</svg>
