<?xml version="1.0" encoding="utf-8"?>
<!-- Generator: Adobe Illustrator 19.2.1, SVG Export Plug-In . SVG Version: 6.00 Build 0)  -->
<svg version="1.1" id="Layer_1" xmlns="http://www.w3.org/2000/svg" xmlns:xlink="http://www.w3.org/1999/xlink" x="0px" y="0px"
	 width="500px" height="500px" viewBox="0 0 500 500" enable-background="new 0 0 500 500" xml:space="preserve">
<g>
	<rect x="214" y="428" width="72" height="72"/>
	<path d="M359.6,223.1L327.5,256c-25.7,26.1-41.8,47-41.8,101H214v-17.8c0-39.3,16.2-75,41.9-101.1l44.4-45
		c13.2-12.9,21.1-30.7,21.1-50.4c0-39.3-32.1-71.3-71.4-71.3S178.6,103,178.6,143h-71.4C107.1,64,171.1,0,250,0
		s142.9,63.9,142.9,142.8C392.9,174.3,380,202.8,359.6,223.1z"/>
</g>
</svg>
