<?xml version="1.0" encoding="utf-8"?>
<!-- Generator: Adobe Illustrator 19.1.0, SVG Export Plug-In . SVG Version: 6.00 Build 0)  -->
<svg version="1.1" id="Layer_1" xmlns="http://www.w3.org/2000/svg" xmlns:xlink="http://www.w3.org/1999/xlink" x="0px" y="0px"
	 width="500px" height="500px" viewBox="0 0 500 500" enable-background="new 0 0 500 500" xml:space="preserve">
<path d="M477.5,242.2L199.3,31.8C177.3,15.2,28.3,43,11.7,64.9C-4.9,86.9,9,237.8,30.9,254.4l278.3,210.4
	c21.9,16.6,53.2,12.3,69.8-9.7L487.2,312C503.9,290,499.5,258.8,477.5,242.2z M179.9,193.7c-18.3,24.1-52.6,28.9-76.8,10.7
	c-24.2-18.3-28.9-52.6-10.7-76.8c18.3-24.2,52.6-28.9,76.8-10.7C193.4,135.1,198.2,169.5,179.9,193.7z"/>
</svg>
