<?xml version="1.0" encoding="utf-8"?>
<!-- Generator: Adobe Illustrator 19.2.1, SVG Export Plug-In . SVG Version: 6.00 Build 0)  -->
<svg version="1.1" id="Layer_1" xmlns="http://www.w3.org/2000/svg" xmlns:xlink="http://www.w3.org/1999/xlink" x="0px" y="0px"
	 width="500px" height="500px" viewBox="0 0 500 500" enable-background="new 0 0 500 500" xml:space="preserve">
<g>
	<ellipse cx="250" cy="274.7" rx="80" ry="80"/>
	<path d="M175,25l-45.8,50H50C22.5,75,0,97.2,0,124.7v300C0,452.2,22.5,475,50,475h400c27.5,0,50-22.8,50-50.3v-300
		c0-27.5-22.5-49.7-50-49.7h-79.2L325,25H175z M250,399.7c-69,0-125-56-125-125s56-125,125-125s125,56,125,125S319,399.7,250,399.7z
		"/>
</g>
</svg>
