<?xml version="1.0" encoding="utf-8"?>
<!-- Generator: Adobe Illustrator 19.1.0, SVG Export Plug-In . SVG Version: 6.00 Build 0)  -->
<svg version="1.1" id="Layer_1" xmlns="http://www.w3.org/2000/svg" xmlns:xlink="http://www.w3.org/1999/xlink" x="0px" y="0px"
	 width="500px" height="500px" viewBox="0 0 500 500" enable-background="new 0 0 500 500" xml:space="preserve">
<g>
	<path d="M446.6,150.3c0.3,4.2,0.5,8.6,0.5,13c0,134-102.3,288.6-288.9,288.6c-57.3,0-110.3-16.9-155.4-45.5
		c7.8,1,16.1,1.3,24.2,1.3c47.6,0,91.3-16.1,125.9-43.5c-44.2-0.8-82-29.9-94.7-70.3c6.2,1,12.5,1.8,19,1.8c9.4,0,18.2-1.3,26.8-3.6
		c-46.3-9.4-81.5-50.2-81.5-99.4v-1.3c13.8,7.5,29.4,12.2,46.1,12.8c-27.3-18.2-45.3-49.4-45.3-84.6c0-18.5,5.2-35.9,13.8-51
		C87.5,130,162.2,170.3,246.5,174.7c-1.8-7.5-2.6-15.4-2.6-23.2c0-56.2,45.3-101.5,101.2-101.5c29.1,0,55.7,12.2,74.2,32
		c23.2-4.4,44.8-13,64.5-24.7C476,81,460.1,101.1,439,113.6c20.6-2.3,40.1-7.8,58.3-15.9C483.8,118,466.6,135.9,446.6,150.3z"/>
</g>
</svg>
