<?xml version="1.0" encoding="utf-8"?>
<!-- Generator: Adobe Illustrator 19.1.0, SVG Export Plug-In . SVG Version: 6.00 Build 0)  -->
<svg version="1.1" id="Layer_1" xmlns="http://www.w3.org/2000/svg" xmlns:xlink="http://www.w3.org/1999/xlink" x="0px" y="0px"
	 width="500px" height="500px" viewBox="0 0 500 500" enable-background="new 0 0 500 500" xml:space="preserve">
<g display="none">
	<path display="inline" d="M227.3,232.9l2-94.9c0.3-14.9,12.6-26.7,27.5-26.5c9.5,0.3,18,5.3,22.6,12.9c2.7,4.5,4,9.5,4,14.9
		l-2.3,109.9c-0.3,1.3-0.3,2.4-0.7,3.7l1,2c-0.5,1-0.1,2.4-0.3,3.5l-0.4,1.7c-0.3,1.3-2.3,1.7-3,2.8l-1.1,1.3
		c-0.6,0.7-1.7,1.6-2.4,2.3l-1.6,1.6c-0.5,0.3-1.4,0.8-1.7,1.4l-2.5,1.9l-0.3,0.2l-111,67.6c-12.9,7.9-29.4,3.8-37.2-9
		c-7.8-12.9-3.8-29.4,9-37.2L227.3,232.9z"/>
	<path display="inline" d="M423.5,75.7c-96-96-252.3-96-348.3,0c-96,96-96,252.3,0,348.3c96,96,252.3,96,348.3,0
		c47.2-47.2,72.9-109.9,72.1-176.5C495.1,182.5,469.5,121.6,423.5,75.7z M385.2,385.7c-74.9,74.9-196.8,74.9-271.7,0
		c-74.9-74.9-74.9-196.8,0-271.7c74.9-74.9,196.8-74.9,271.7,0c35.7,35.7,55.9,83.3,56.4,133.9C442,300.1,422,348.9,385.2,385.7z"/>
</g>
<path d="M249,3.7C112.7,3.7,2.3,114.1,2.3,250.3S112.7,497,249,497s246.6-110.4,246.6-246.6S385.2,3.7,249,3.7z M250,443
	c-106.4,0-192.6-86.2-192.6-192.6S143.6,57.7,250,57.7c106.4,0,192.6,86.2,192.6,192.6S356.4,443,250,443z"/>
<path d="M255.5,87.8L255.5,87.8c-14.6,0-26.5,11.8-26.5,26.5v135.4h53V114.2C282,99.6,270.1,87.8,255.5,87.8z"/>
<path d="M282,249.7l-31.5-42.1l-93.5,70.7c-11.7,8.8-14,25.4-5.2,37.1c8.8,11.7,25.4,14,37.1,5.2L282,249.7z"/>
</svg>
