<?xml version="1.0" encoding="utf-8"?>
<!-- Generator: Adobe Illustrator 19.1.0, SVG Export Plug-In . SVG Version: 6.00 Build 0)  -->
<svg version="1.1" id="Layer_1" xmlns="http://www.w3.org/2000/svg" xmlns:xlink="http://www.w3.org/1999/xlink" x="0px" y="0px"
	 width="500px" height="500px" viewBox="0 0 500 500" enable-background="new 0 0 500 500" xml:space="preserve">
<g>
	<path fill="#020000" d="M490.1,227.7C485.8,221.6,384,79.4,250.7,79.4c-133.3,0-235.1,142.3-239.3,148.3c-9.3,13.1-9.3,30.7,0,43.9
		c4.3,6.1,106.2,148.3,239.3,148.3c133.1,0,235.1-142.3,239.3-148.3C499.3,258.4,499.3,240.8,490.1,227.7z M249.4,365.3
		c-64.6,0-116.9-52.4-116.9-116.9c0-64.6,52.3-116.9,116.9-116.9c64.6,0,116.9,52.3,116.9,116.9C366.4,313,314,365.3,249.4,365.3z"
		/>
	<path fill="#020000" d="M311.6,248.4c0,34.3-27.8,62.2-62.2,62.2s-62.2-27.9-62.2-62.2c0-34.4,27.8-62.2,62.2-62.2
		S311.6,214.1,311.6,248.4z"/>
</g>
</svg>
