<?xml version="1.0" encoding="utf-8"?>
<!-- Generator: Adobe Illustrator 19.1.0, SVG Export Plug-In . SVG Version: 6.00 Build 0)  -->
<svg version="1.1" id="Layer_1" xmlns="http://www.w3.org/2000/svg" xmlns:xlink="http://www.w3.org/1999/xlink" x="0px" y="0px"
	 width="500px" height="500px" viewBox="0 0 500 500" enable-background="new 0 0 500 500" xml:space="preserve">
<path d="M474.1,194.3H305V26.1c0-11.9-9.6-21.7-21.6-21.7h-83.4c-11.9,0-22.1,9.8-22.1,21.7v168.3H26.1c-11.9,0-22.1,9.5-22.1,21.5
	v84.5c0,11.9,10.1,22,22.1,22H178v151.9c0,11.9,10.2,21.1,22.1,21.1h83.4c11.9,0,21.6-9.2,21.6-21.1V322.3h169.1
	c11.9,0,21.9-10.1,21.9-22v-84.5C496,203.9,486,194.3,474.1,194.3z"/>
</svg>
