<?xml version="1.0" encoding="utf-8"?>
<!-- Generator: Adobe Illustrator 19.2.1, SVG Export Plug-In . SVG Version: 6.00 Build 0)  -->
<svg version="1.1" id="Layer_1" xmlns="http://www.w3.org/2000/svg" xmlns:xlink="http://www.w3.org/1999/xlink" x="0px" y="0px"
	 width="500px" height="500px" viewBox="0 0 500 500" enable-background="new 0 0 500 500" xml:space="preserve">
<g>
	<path d="M332.7,265.3c11.8-2.4,26.3-7.4,41.3-16.6c8.9,21.8,13.7,45.8,13.7,71.3c0,47.9-16.6,90-49.5,125.8s-75,53.7-126.6,53.7
		c-51.8,0-94.2-17.9-127.1-53.7C51.6,410.1,35.1,368,35.1,320.1c0-47.6,15.5-88.7,46.8-123.7c34.2-38.4,77.4-57.6,129.7-57.6
		c21.8,0,42.4,3.4,61.1,10.3c-6.1,12.1-11.6,26.6-13.2,42.4c-15-6.3-31.1-9.5-48.2-9.5c-36.1,0-67.1,13.7-93.2,40.8
		c-26.1,27.1-38.9,59.7-38.9,98.4c0,24.7,5.8,47.9,17.9,69.2c11.6,21.6,27.6,38.2,47.9,49.7c20.3,11.6,42.4,17.6,66.3,17.6
		c24.2,0,46.3-6.1,66.3-17.6c20.3-11.6,36.3-28.2,47.9-49.7c12.1-21.3,17.9-44.5,17.9-69.2C343.5,300.9,339.8,282.4,332.7,265.3z
		 M231.4-0.4c0,0,59.2,39.2,69.5,146.8c0,0,19.7,258.7-113.9,309.5c0,0,11.8,2.4,25.5,1.6c0,0,165.5-104.2,89.5-307.1
		C301.9,150.3,279.3,79.6,231.4-0.4z M318,176.1c0,0-30.8-47.6,8.2-86.8c0,0,13.7-15.3,52.9-25c0,0,39.2-8.4,60.3-53.4
		c0,0,43.9,61.3,16.8,141.8c0,0-13.2,36.3-41.1,52.9C394,218,362.2,221.9,329,189.3c0,0,100.5-55,104.2-101.6
		C433.2,87.7,402.4,157.2,318,176.1z M318,176.1c0,0-30.8-47.6,8.2-86.8c0,0,13.7-15.3,52.9-25c0,0,39.2-8.4,60.3-53.4
		c0,0,43.9,61.3,16.8,141.8c0,0-13.2,36.3-41.1,52.9C394,218,362.2,221.9,329,189.3c0,0,100.5-55,104.2-101.6
		C433.2,87.7,402.4,157.2,318,176.1z"/>
</g>
</svg>
