<?xml version="1.0" encoding="utf-8"?>
<!-- Generator: Adobe Illustrator 19.1.0, SVG Export Plug-In . SVG Version: 6.00 Build 0)  -->
<svg version="1.1" id="Layer_1" xmlns="http://www.w3.org/2000/svg" xmlns:xlink="http://www.w3.org/1999/xlink" x="0px" y="0px"
	 width="500px" height="500px" viewBox="0 0 500 500" enable-background="new 0 0 500 500" xml:space="preserve">
<g>
	<path fill-rule="evenodd" clip-rule="evenodd" d="M454.3,307.7C426.9,215,401.2,134.4,374.5,45c2.6,9-2.7-9.1,0,0
		c-4.6-16.1-6.7-32.9-23.2-41.7c-17.7-9.4-30.2,22.9-37.4,33.2c-28.4,41-62.6,69.1-104.1,97.6c-19.8,13.6-46.7,27.5-70,33.7
		c-15.3,4.2-30.2,7-24.6,25.6c8.5,28.1,41.5,137,42.8,147.8c1.8,14.2,44.3,0.3,45.2,0.2c0.7-0.1,1.5-0.2,2.2-0.3l40.5,134.3
		c5.1,16.8,23.7,26,43.4,20.1c19.7-5.9,30.1-23.9,25.1-40.7l-35.3-116.9l38.9,2.8c34.4,1.7,68.5,8.6,100,21.8
		c10.9,4.6,35.3,18.9,43,1.4C468.6,347,459.1,323.9,454.3,307.7z"/>
	<path fill-rule="evenodd" clip-rule="evenodd" d="M50.8,216.7c-13.1,14.6-18.7,44.9-11.7,67.9c1.6,5.3,3.2,10.5,4.8,15.8
		c7.6,19.9,12.1,30.2,25.9,40.5c15.4,11.5,46.1,32.9,47.4-4c-12.2-40.4-24.4-80.8-36.6-121.2C73.4,192.1,62.8,203.3,50.8,216.7z"/>
</g>
</svg>
