<?xml version="1.0" encoding="utf-8"?>
<!-- Generator: Adobe Illustrator 19.2.1, SVG Export Plug-In . SVG Version: 6.00 Build 0)  -->
<svg version="1.1" id="Layer_1" xmlns="http://www.w3.org/2000/svg" xmlns:xlink="http://www.w3.org/1999/xlink" x="0px" y="0px"
	 width="500px" height="500px" viewBox="0 0 500 500" enable-background="new 0 0 500 500" xml:space="preserve">
<g>
	<path d="M498,415.5c0,44.8-36.3,81.5-81.2,81.5H84.2C39.3,497,3,460.3,3,415.5V82.9C3,38.1,39.3,2,84.2,2h332.6
		C461.7,2,498,38.1,498,82.9V415.5z M362.4,263.5c4.9-3,8-8.2,8-14c0-5.8-3-11-8-14l-179-105c-4.9-3-11.2-3-16.2-0.3
		c-5.2,3-8.2,8.5-8.2,14.3v210c0,5.8,3,11.3,8.2,14.3c2.5,1.4,5.2,2.2,8,2.2c3,0,5.8-0.8,8.2-2.5L362.4,263.5z"/>
</g>
</svg>
