<?xml version="1.0" encoding="utf-8"?>
<!-- Generator: Adobe Illustrator 19.2.1, SVG Export Plug-In . SVG Version: 6.00 Build 0)  -->
<svg version="1.1" id="Layer_1" xmlns="http://www.w3.org/2000/svg" xmlns:xlink="http://www.w3.org/1999/xlink" x="0px" y="0px"
	 width="500px" height="500px" viewBox="0 0 500 500" style="enable-background:new 0 0 500 500;" xml:space="preserve">
<path d="M392.5,166.6h-24v-47.7c0-65.7-53.3-119-119-119s-119,53.3-119,119v47.7h-23.7c-26.2,0-47.3,21.4-47.3,47.6v238.1
	c0,26.2,21.1,47.4,47.3,47.4h285.7c26.2,0,48-21.2,48-47.4V214.1C440.5,187.9,418.7,166.6,392.5,166.6z M249.7,380.8
	c-26.2,0-47.6-21.4-47.6-47.6s21.4-47.6,47.6-47.6s47.6,21.4,47.6,47.6S275.9,380.8,249.7,380.8z M323.5,166.6h-148v-47.7
	c0-40.7,33.3-73.8,74-73.8s74,33.1,74,73.8V166.6z"/>
</svg>
