<?xml version="1.0" encoding="utf-8"?>
<!-- Generator: Adobe Illustrator 19.2.1, SVG Export Plug-In . SVG Version: 6.00 Build 0)  -->
<svg version="1.1" id="Layer_1" xmlns="http://www.w3.org/2000/svg" xmlns:xlink="http://www.w3.org/1999/xlink" x="0px" y="0px"
	 width="500px" height="500px" viewBox="0 0 500 500" enable-background="new 0 0 500 500" xml:space="preserve">
<path d="M441,274.3c1-8,1.8-16,1.8-24.5c0-8.5-0.8-16.5-1.8-24.5l54.2-41.2c4.9-3.7,6.2-10.5,3.1-16l-51.4-86.5
	c-3.1-5.5-10-7.5-15.7-5.5l-64,25c-13.4-10-27.8-18.2-43.4-24.5l-9.8-66.2c-0.8-6-6.2-10.4-12.6-10.4H198.7
	c-6.4,0-11.8,4.4-12.6,10.4l-9.8,66.2c-15.7,6.2-30.1,14.7-43.4,24.5l-64-25c-5.9-2.2-12.6,0-15.7,5.5L1.8,168.1
	c-3.3,5.5-1.8,12.2,3.1,16l54.2,41.2c-1,8-1.8,16.2-1.8,24.5c0,8.2,0.8,16.5,1.8,24.5L4.9,315.6c-4.9,3.7-6.2,10.5-3.1,16l51.4,86.5
	c3.1,5.5,10,7.5,15.7,5.5l64-25c13.4,10,27.8,18.2,43.4,24.5l9.8,66.3c0.8,6,6.2,10.6,12.6,10.6h102.8c6.4,0,11.8-4.6,12.6-10.6
	l9.8-66.3c15.7-6.2,30.1-14.8,43.4-24.5l64,25c5.9,2.2,12.6,0,15.7-5.5l51.4-86.5c3.1-5.5,1.8-12.3-3.1-16L441,274.3z M250.1,337.3
	c-49.6,0-90-39.2-90-87.5s40.4-87.5,90-87.5s90,39.2,90,87.5S299.7,337.3,250.1,337.3z"/>
</svg>
