<?xml version="1.0" encoding="utf-8"?>
<!-- Generator: Adobe Illustrator 19.2.1, SVG Export Plug-In . SVG Version: 6.00 Build 0)  -->
<svg version="1.1" id="Calque_1" xmlns="http://www.w3.org/2000/svg" xmlns:xlink="http://www.w3.org/1999/xlink" x="0px" y="0px"
	 width="500px" height="500px" viewBox="0 0 500 500" style="enable-background:new 0 0 500 500;" xml:space="preserve">
<g>
	<path d="M417.9,98.1H500V64.5h-82.1C410.1,27.7,377.4,0,338.3,0s-71.7,27.7-79.5,64.5H0v33.7h258.8c7.8,36.8,40.5,64.5,79.5,64.5
		C377.4,162.6,410.1,134.9,417.9,98.1 M290.7,81.3c0-26.3,21.4-47.6,47.6-47.6S386,55,386,81.3s-21.4,47.6-47.6,47.6
		S290.7,107.5,290.7,81.3"/>
	<path d="M241.2,266.8H500v-33.7H241.2c-7.8-36.8-40.5-64.5-79.5-64.5c-39.1,0-71.7,27.7-79.5,64.5H0v33.7h82.2
		c7.8,36.8,40.5,64.5,79.5,64.5S233.4,303.6,241.2,266.8 M114.1,250c0-26.3,21.4-47.6,47.6-47.6c26.3,0,47.6,21.4,47.6,47.6
		c0,26.3-21.4,47.6-47.6,47.6C135.4,297.6,114.1,276.3,114.1,250"/>
	<path d="M305.3,500c39.1,0,71.7-27.7,79.5-64.5H500v-33.7H384.8c-7.8-36.8-40.5-64.4-79.5-64.4c-39.1,0-71.7,27.7-79.5,64.5H0v33.7
		h225.8C233.6,472.3,266.2,500,305.3,500 M257.7,418.7c0-26.3,21.4-47.6,47.6-47.6s47.6,21.4,47.6,47.6c0,26.3-21.4,47.6-47.6,47.6
		S257.7,445,257.7,418.7"/>
</g>
</svg>
