<?xml version="1.0" encoding="utf-8"?>
<!-- Generator: Adobe Illustrator 19.1.0, SVG Export Plug-In . SVG Version: 6.00 Build 0)  -->
<svg version="1.1" id="Layer_1" xmlns="http://www.w3.org/2000/svg" xmlns:xlink="http://www.w3.org/1999/xlink" x="0px" y="0px"
	 width="500px" height="500px" viewBox="0 0 500 500" enable-background="new 0 0 500 500" xml:space="preserve">
<path d="M367,103.6c0,10.9-7.9,19.7-24.5,19.7l0,0c-16.6,0-24.5-8.8-24.5-19.7V23.2c0-10.9,7.9-19.7,24.5-19.7l0,0
	c16.6,0,24.5,8.8,24.5,19.7V103.6z"/>
<path d="M183,103.6c0,10.9-7.9,19.7-24.5,19.7l0,0c-16.6,0-24.5-8.8-24.5-19.7V23.2c0-10.9,7.9-19.7,24.5-19.7l0,0
	c16.6,0,24.5,8.8,24.5,19.7V103.6z"/>
<g>
	<g>
		<path d="M391,79.6v36.2c0,20.8-28.4,31.9-49,31.9c-20.6,0-49-11.1-49-31.9V80h-85v35.8c0,20.8-28.4,31.9-49,31.9
			c-20.6,0-49-11.1-49-31.9V79.6c-41,0.9-74,34.2-74,75.1v266.4c0,41.4,33.7,74.9,75.2,74.9h278.7c41.4,0,75.2-33.4,75.2-74.9V154.7
			C465,113.8,432,80.5,391,79.6z M404,421.1c0,7.6-6.5,13.9-14.2,13.9H111.2c-7.6,0-14.2-6.2-14.2-13.9V227h307V421.1z"/>
	</g>
</g>
<rect x="306" y="263" width="61" height="62"/>
<rect x="220" y="263" width="61" height="62"/>
<rect x="134" y="263" width="61" height="62"/>
<rect x="306" y="349" width="61" height="61"/>
<rect x="220" y="349" width="61" height="61"/>
<rect x="134" y="349" width="61" height="61"/>
</svg>
