<?xml version="1.0" encoding="utf-8"?>
<!-- Generator: Adobe Illustrator 19.2.1, SVG Export Plug-In . SVG Version: 6.00 Build 0)  -->
<svg version="1.1" id="Layer_1" xmlns="http://www.w3.org/2000/svg" xmlns:xlink="http://www.w3.org/1999/xlink" x="0px" y="0px"
	 width="500px" height="500px" viewBox="0 0 500 500" enable-background="new 0 0 500 500" xml:space="preserve">
<g>
	<path d="M490.1,192.7c9.5,9.5,9.5,24.7,0,34.2L298.4,415.6c-9.7,9.5-25.4,9.5-34.8,0L237.4,390l-1.5-1.8L175.6,329
		c-9.5-9.5-9.5-24.7,0-34.2l26.2-25.8c9.7-9.5,25.1-9.5,34.8,0l44.3,43.7l148-145.8c9.7-9.5,25.4-9.5,34.8,0L490.1,192.7z"/>
</g>
<g>
	<path d="M10.9,308.3c-9.5-9.4-9.6-24.7-0.2-34.2L201.4,84.5c9.7-9.5,25.3-9.6,34.8-0.2l26.4,25.5l1.5,1.8l60.5,59
		c9.5,9.4,9.6,24.6,0.2,34.2l-26.1,25.9c-9.7,9.5-25.1,9.6-34.8,0.2l-44.5-43.4L72.1,333.8c-9.7,9.5-25.3,9.6-34.8,0.2L10.9,308.3z"
		/>
</g>
</svg>
