<?xml version="1.0" encoding="utf-8"?>
<!-- Generator: Adobe Illustrator 19.2.1, SVG Export Plug-In . SVG Version: 6.00 Build 0)  -->
<svg version="1.1" id="Layer_1" xmlns="http://www.w3.org/2000/svg" xmlns:xlink="http://www.w3.org/1999/xlink" x="0px" y="0px"
	 width="500px" height="500px" viewBox="0 0 500 500" enable-background="new 0 0 500 500" xml:space="preserve">
<g>
	<polygon points="319,204 319,250 387,250 387,318 432,318 432,250 500,250 500,204 432,204 432,136 387,136 387,204 	"/>
	<path d="M141.3,305.2c-56.8,0-103.1-46.2-103.1-103.1s46.2-103,103.1-103s103,46.2,103,103S198.1,305.2,141.3,305.2z M377.9,399.7
		l-119-119c15.5-23,23.8-50.1,23.8-78.5c0-37.7-14.7-73.2-41.4-99.9c-26.7-26.7-62.2-41.4-99.9-41.4c-37.7,0-73.2,14.7-99.9,41.4
		C14.7,128.9,0,164.4,0,202.1c0,37.7,14.7,73.2,41.4,99.9c26.7,26.7,62.2,41.4,99.9,41.4c28.7,0,56.1-8.5,79.3-24.3l118.9,118.9
		c4,4,11.4,3.1,16.5-1.9l20-20C381.1,411,381.9,403.7,377.9,399.7z"/>
</g>
</svg>
