<?xml version="1.0" encoding="utf-8"?>
<!-- Generator: Adobe Illustrator 19.2.1, SVG Export Plug-In . SVG Version: 6.00 Build 0)  -->
<svg version="1.1" id="Calque_1" xmlns="http://www.w3.org/2000/svg" xmlns:xlink="http://www.w3.org/1999/xlink" x="0px" y="0px"
	 width="500px" height="500px" viewBox="0 0 500 500" style="enable-background:new 0 0 500 500;" xml:space="preserve">
<path id="SVGID_1_" d="M316.2,374.7c38.5-46.7,104-60.5,161.8-51.4l12.1,1.9l-7.4,9.7C446,383.1,378,398.1,320.5,386.4l-11.9-2.4
	L316.2,374.7z"/>
<path id="SVGID_5_" d="M331.2,30.7c40.5,32.4,64.8,86.1,54.7,137.7l-2.2,11.3l-9.3-6.9c-41.6-30.5-69.7-87.3-54.8-138.5l3-10.5
	L331.2,30.7z"/>
<path id="SVGID_9_" d="M498.4,196.9c-8,56.2-48.6,113.2-106.5,125.9l-10.7,2.4l2-10.8C393.5,258,433.1,206.5,489,189l11.1-3.5
	L498.4,196.9z"/>
<path id="SVGID_13_" d="M438,73.5c21.5,49.2,14.9,108.7-18.2,151.3l-7.8,10l-4.8-11.7C387,173.7,392,114.5,425.4,71.9l7.6-9.7
	L438,73.5z"/>
<path id="SVGID_17_" d="M74.5,71.9c33.4,42.5,38.5,101.8,18.2,151.2l-4.8,11.7l-7.8-10C47,182.2,40.5,122.7,61.9,73.5l4.9-11.2
	L74.5,71.9z"/>
<path id="SVGID_21_" d="M179.5,386.4c-57.6,11.7-125.5-3.3-162.3-51.6l-7.4-9.7l12.1-1.9c57.8-9,123.3,4.7,161.8,51.4l7.7,9.3
	L179.5,386.4z"/>
<path id="SVGID_25_" d="M180.2,34.3c14.9,51.3-13.2,108-54.8,138.5l-9.3,6.9l-2.2-11.3c-10-51.6,14.2-105.3,54.7-137.7l8.6-6.8
	L180.2,34.3z"/>
<path id="SVGID_29_" d="M11,188.9c56,17.6,95.5,69.1,105.8,125.4l2,10.8l-10.7-2.4c-58-12.6-98.6-69.6-106.6-125.8L0,185.5L11,188.9
	z"/>
<path id="SVGID_33_" d="M290.5,426.8c9.4,10,19.2,19.5,30.5,27.1l7.8,5.2l-7,6.2c-2.9,2.6-5.7,5.2-8.6,7.8l-3.5,3.2l-4.4-1.9
	c-26.9-11.6-34.6-40.3-55.5-53.8c-20.9,13.6-28.6,42.3-55.5,53.8l-4.4,1.9l-3.5-3.2c-2.8-2.6-5.7-5.2-8.6-7.8l-7-6.2l7.8-5.2
	c11.3-7.6,21.1-17.2,30.5-27.1c-12.9,6.3-25.7,13.7-40.4,16.4c-26.2,4.4-54.3,5.9-79.3-4.9l-12.1-5.2l10.8-7.4
	c24.7-16.9,51.2-32.7,81.9-35.1c24.2-1.3,48.6-0.7,72.3,4.7l0.3,0.1l0.3,0.1c4.5,1.4,9.1,1.4,13.6,0l0.3-0.1l0.3-0.1
	c23.7-5.4,48.2-6,72.4-4.7c30.6,2.4,57.1,18.2,81.8,35.1l10.8,7.4l-12.1,5.2c-25,10.8-53,9.3-79.4,4.9
	C316.2,440.5,303.5,433.2,290.5,426.8"/>
</svg>
