<?xml version="1.0" encoding="utf-8"?>
<!-- Generator: Adobe Illustrator 19.1.0, SVG Export Plug-In . SVG Version: 6.00 Build 0)  -->
<svg version="1.1" id="Layer_1" xmlns="http://www.w3.org/2000/svg" xmlns:xlink="http://www.w3.org/1999/xlink" x="0px" y="0px"
	 width="500px" height="500px" viewBox="0 0 500 500" enable-background="new 0 0 500 500" xml:space="preserve">
<g>
	<g>
		<path fill-rule="evenodd" clip-rule="evenodd" d="M252.7,333.1c30.5,1.5,60.8,7.7,88.8,19.3c9.7,4.1,31.4,16.8,38.2,1.2
			c6.5-14.9-1.9-35.4-6.2-49.8c-24.4-82.3-47.2-153.8-70.8-233.2c-2.4-8.1,2.3,8,0,0c-4.1-14.3-5.9-29.2-20.6-37
			c-15.7-8.3-26.8,20.3-33.2,29.5c-25.2,36.4-55.5,61.3-92.4,86.6c-17.6,12.1-41.4,24.4-62.1,29.9c-13.5,3.7-26.8,6.2-21.8,22.7
			c7.5,24.9,36.8,121.6,38,131.2c1.6,12.6,39.3,0.2,40.1,0.1c12.2-1.5,23.4-6.5,36.1-5.4"/>
		<path fill-rule="evenodd" clip-rule="evenodd" d="M15.3,223.1C3.7,236.1-1.3,263,4.9,283.4c1.4,4.7,2.8,9.3,4.2,14
			c6.7,17.6,10.7,26.8,23,35.9c13.7,10.2,40.9,29.2,42.1-3.5C63.4,294,52.5,258.1,41.7,222.3C35.4,201.2,26,211.2,15.3,223.1z"/>
	</g>
	<path fill-rule="evenodd" clip-rule="evenodd" d="M249.4,434.4c4.5,14.9-4.8,30.9-22.3,36.1l0,0c-17.5,5.3-34-2.9-38.5-17.8
		l-48.8-161.8c-4.5-14.9,4.8-30.9,22.3-36.1l0,0c17.5-5.3,34,2.9,38.5,17.8L249.4,434.4z"/>
	<path d="M419.8,177.4c-9.1,3.6-19.5-0.8-23.1-10l-1.2-3c-3.6-9.1,0.9-19.5,10-23.1l66.1-26.3c9.1-3.6,19.5,0.8,23.1,10l1.2,3
		c3.6,9.1-0.8,19.5-10,23.1L419.8,177.4z"/>
	<path d="M406.8,119.2c-3.8,5-13.2,4.1-21-1.9l-2.6-2c-7.8-6-11-14.9-7.2-19.8l27.7-35.9c3.8-5,13.3-4.1,21,1.9l2.6,2
		c7.8,6,11,14.9,7.2,19.8L406.8,119.2z"/>
	<path d="M436.1,192.9c-6.2-1-12.4,6.1-14,15.8l-0.5,3.2c-1.6,9.7,2.2,18.4,8.4,19.4l44.8,7.2c6.2,1,12.5-6.1,14-15.8l0.5-3.2
		c1.6-9.7-2.2-18.4-8.4-19.4L436.1,192.9z"/>
</g>
</svg>
