<?xml version="1.0" encoding="utf-8"?>
<!-- Generator: Adobe Illustrator 19.1.0, SVG Export Plug-In . SVG Version: 6.00 Build 0)  -->
<svg version="1.1" id="Layer_1" xmlns="http://www.w3.org/2000/svg" xmlns:xlink="http://www.w3.org/1999/xlink" x="0px" y="0px"
	 width="500px" height="500px" viewBox="0 0 500 500" enable-background="new 0 0 500 500" xml:space="preserve">
<g>
	<g>
		<path fill="#020000" d="M293.2,116.4c0,63-49.3,114-110.1,114c-60.8,0-110.2-51-110.2-114c0-63,49.3-114,110.2-114
			C243.9,2.4,293.2,53.5,293.2,116.4z"/>
	</g>
	<path fill-rule="evenodd" clip-rule="evenodd" d="M315.5,441.6l-63.6-30.9l-45.9-22.3l46-22.1l63.8-30.6l21.4-43.8
		c-5-14.8-10.5-27.3-15.2-34.8c-7.4-11.6-35.5-28.8-54.5-31.6c-22.6,19.6-52.1,31.6-84.4,31.6c-32.4,0-61.9-12.1-84.6-31.8
		c-2.3,0.3-4.7,0.6-7.1,0.9c-21.5,2.4-41.8,18-50.2,28.8C21.9,279.9-2,368.2,12.4,404.2c35.3,88.3,221.7,102,304.2,39.6L315.5,441.6
		z"/>
	<polygon points="382.8,280.1 346.5,354.3 275,388.6 346.2,423.1 382.4,496 416.8,422.3 489.6,388.6 417.1,355.2 	"/>
</g>
</svg>
