<?xml version="1.0" encoding="utf-8"?>
<!-- Generator: Adobe Illustrator 19.2.1, SVG Export Plug-In . SVG Version: 6.00 Build 0)  -->
<svg version="1.1" id="Layer_1" xmlns="http://www.w3.org/2000/svg" xmlns:xlink="http://www.w3.org/1999/xlink" x="0px" y="0px"
	 width="500px" height="500px" viewBox="0 0 500 500" style="enable-background:new 0 0 500 500;" xml:space="preserve">
<style type="text/css">
	.st0{fill:#020202;}
</style>
<g>
	<path class="st0" d="M107,300.1c0-12.8-10.4-23.1-23.1-23.1H24.1C11.4,277,1,287.4,1,300.1v59.7C1,372.6,11.4,383,24.1,383h59.7
		c12.8,0,23.1-10.4,23.1-23.1L107,300.1L107,300.1z"/>
	<path class="st0" d="M142.5,321.9c-1.6-1.6-3.5-3.1-4.5-4.8v42.5c0,12.8,10.3,23.3,23.1,23.3h59.7c8.9,0,16.7-5.1,20.5-12.5
		C204,365.8,169.5,349,142.5,321.9z"/>
	<path class="st0" d="M92.8,202c0-18.3,2.9-36,8.4-53H24.8C12,149,1,156.7,1,169.5v50.6C1,232.9,12,247,24.8,247h73.9
		C94.8,233,92.8,217.4,92.8,202z"/>
	<path class="st0" d="M244,220.1v-50.6c0-12.8-10.6-20.5-23.4-20.5H214c-14.4,13-23.4,32.1-23.4,53c0,17,5.9,33,15.9,45h14.1
		C233.4,247,244,232.9,244,220.1z"/>
	<path d="M262.6,303.8c-56.2,0-101.9-45.7-101.9-101.9s45.7-102,101.9-102s101.9,45.7,101.9,101.9S318.8,303.8,262.6,303.8z
		 M496.6,397.3L378.8,279.5c15.3-22.8,23.5-49.6,23.5-77.6c0-37.3-14.5-72.4-40.9-98.9c-26.4-26.4-61.5-40.9-98.8-40.9
		s-72.4,14.5-98.9,40.9c-26.4,26.4-40.9,61.5-40.9,98.9c0,37.3,14.5,72.4,40.9,98.9c26.4,26.4,61.5,40.9,98.9,40.9
		c28.4,0,55.5-8.4,78.4-24l117.6,117.6c4,4,11.3,3.1,16.3-1.9l19.8-19.8C499.7,408.5,500.5,401.2,496.6,397.3z"/>
</g>
</svg>
