<?xml version="1.0" encoding="utf-8"?>
<!-- Generator: Adobe Illustrator 19.2.1, SVG Export Plug-In . SVG Version: 6.00 Build 0)  -->
<svg version="1.1" id="Calque_1" xmlns="http://www.w3.org/2000/svg" xmlns:xlink="http://www.w3.org/1999/xlink" x="0px" y="0px"
	 width="500px" height="500px" viewBox="0 0 500 500" style="enable-background:new 0 0 500 500;" xml:space="preserve">
<path d="M500.3,146l0.1,166.2c0,8.7-10.5,13-16.7,6.9l-48.2-48.2l-90.2,90.2c-3.8,3.8-10.2,3.4-14-0.4l-55.4-55.4
	c-3.8-3.8-3.6-9.6,0.2-13.4l90.2-90.2l-48.8-48.8c-6.2-6.2-1.9-16.7,6.9-16.7h166.3C496,136.2,500.3,140.6,500.3,146"/>
<path d="M0.5,353.5L0.4,187.3c0-8.7,10.5-13,16.7-6.9l48.2,48.2l90.2-90.2c3.8-3.8,10.2-3.4,14,0.4l55.4,55.4
	c3.8,3.8,3.6,9.6-0.2,13.4l-90.2,90.2l48.8,48.8c6.2,6.2,1.9,16.7-6.9,16.7H10.1C4.8,363.3,0.5,358.9,0.5,353.5"/>
</svg>
