<?xml version="1.0" encoding="utf-8"?>
<!-- Generator: Adobe Illustrator 19.2.1, SVG Export Plug-In . SVG Version: 6.00 Build 0)  -->
<svg version="1.1" id="Layer_1" xmlns="http://www.w3.org/2000/svg" xmlns:xlink="http://www.w3.org/1999/xlink" x="0px" y="0px"
	 width="500px" height="500px" viewBox="0 0 500 500" enable-background="new 0 0 500 500" xml:space="preserve">
<g>
	<path d="M480.6,72.9c-0.2-0.7-0.6-1.4-1-2.1c-0.2-0.3-0.5-0.7-0.8-1c-1.1-1.3-2.5-2.3-3.9-3c-0.4-0.2-0.7-0.3-1.1-0.4L456.5,62
		L422,53l-13-32.5l-6.5-16.2c-1.1-2.7-3.6-4.8-6.5-5.3c-0.7-0.1-1.5-0.2-2.2-0.1c-2.2,0.2-4.3,1.1-5.7,2.8l-63.5,73
		c-0.5,0.6-1,1.3-1.3,2c-0.5,1.1-0.8,2.2-0.9,3.3c0,1.2,0.2,2.3,0.6,3.4l9.4,22.3l3.1,7.4l-0.5,0.6l-91.1,104.7
		c-26-6.5-54.7,1.5-73.5,23.1c-26.8,30.8-23.5,77.4,7.2,104.2c30.7,26.8,77.3,23.6,104.1-7.2c21.7-24.9,23.7-60.2,7.4-86.9
		l86.3-99.1l1.5-1.7l32.2,7.4c3,0.7,6.1-0.4,8.2-2.8l63.5-73c0.1-0.1,0.2-0.3,0.3-0.4c0.2-0.3,0.4-0.7,0.5-1
		c0.1-0.4,0.2-0.8,0.3-1.2C481.9,77.6,481.2,74.8,480.6,72.9z"/>
	<path d="M412.6,197.3c-4.2,0.2-8.4,0-12.6-1l-9.3-2.1l-17.8,20.4c-2.1,2.4-4.6,4.5-7.2,6.4c8.9,18,14.3,37.7,15.7,58.4
		c2.9,41.6-10.6,81.8-38,113.2c-10.8,12.4-23.2,22.8-37.1,31.2c-58.1,35.1-131.6,28.7-182.9-16c-64.8-56.5-71.6-155.3-15.2-220.2
		c10.8-12.4,23.2-22.8,37.1-31.2c36.8-22.2,79.6-27.7,119.2-17.6c1.9-4.4,4.2-8.6,7.4-12.3l18-20.7l-3-7.2c-1.2-2.8-2-5.8-2.6-8.7
		c-54.7-16.1-114.8-9.4-166,21.5c-18.5,11.2-35.2,25.2-49.5,41.7c-36.5,41.9-54.5,95.7-50.6,151.3c3.8,55.7,29,106.4,70.9,142.9
		c68.5,59.7,166.7,68.3,244.4,21.4c18.5-11.2,35.2-25.2,49.5-41.7c36.6-42,54.6-95.7,50.7-151.3C431.8,248,424.6,221.5,412.6,197.3z
		"/>
</g>
</svg>
