<?xml version="1.0" encoding="utf-8"?>
<!-- Generator: Adobe Illustrator 19.2.1, SVG Export Plug-In . SVG Version: 6.00 Build 0)  -->
<svg version="1.1" id="Layer_1" xmlns="http://www.w3.org/2000/svg" xmlns:xlink="http://www.w3.org/1999/xlink" x="0px" y="0px"
	 width="500px" height="500px" viewBox="0 0 500 500" enable-background="new 0 0 500 500" xml:space="preserve">
<path d="M485.2,239.1l-225-224.9c-9-9-21.5-14.5-35.2-14.5H50C22.5-0.3-0.3,22.1-0.3,49.6v175c0,13.7,5.7,26.2,14.9,35.5l225.1,225
	c9,9,21.5,14.5,35.3,14.5s26.3-5.5,35.3-14.7l175-175c9.2-9,14.8-21.5,14.8-35.2C500,260.8,494.2,248.1,485.2,239.1z M87.5,124.6
	c-20.8,0-37.5-16.7-37.5-37.5s16.8-37.5,37.5-37.5S125,66.3,125,87.1S108.2,124.6,87.5,124.6z"/>
</svg>
