<?xml version="1.0" encoding="utf-8"?>
<!-- Generator: Adobe Illustrator 19.2.1, SVG Export Plug-In . SVG Version: 6.00 Build 0)  -->
<svg version="1.1" id="Calque_1" xmlns="http://www.w3.org/2000/svg" xmlns:xlink="http://www.w3.org/1999/xlink" x="0px" y="0px"
	 width="500px" height="500px" viewBox="0 0 500 500" style="enable-background:new 0 0 500 500;" xml:space="preserve">
<path d="M250,0C112,0,0,112,0,250s112,250,250,250s250-112,250-250S388,0,250,0z M250,450c-110.5,0-200-89.5-200-200
	c0-46.3,15.8-88.8,42.2-122.5l280.2,280.2C338.8,434.3,296.2,450,250,450z M407.8,372.5L127.5,92.2C161.2,65.8,203.7,50,250,50
	c110.5,0,200,89.5,200,200C450,296.2,434.3,338.8,407.8,372.5z"/>
</svg>
