<?xml version="1.0" encoding="utf-8"?>
<!-- Generator: Adobe Illustrator 19.2.1, SVG Export Plug-In . SVG Version: 6.00 Build 0)  -->
<svg version="1.1" id="Layer_1" xmlns="http://www.w3.org/2000/svg" xmlns:xlink="http://www.w3.org/1999/xlink" x="0px" y="0px"
	 width="500px" height="500px" viewBox="0 0 500 500" enable-background="new 0 0 500 500" xml:space="preserve">
<path d="M500,158.8c0,25-20.5,45.5-45.5,45.5c-4.1,0-8-0.5-11.6-1.6L362,283.3c1.1,3.6,1.6,7.7,1.6,11.8c0,25-20.5,45.5-45.5,45.5
	s-45.5-20.5-45.5-45.5c0-4.1,0.5-8.2,1.6-11.8l-58-58c-3.6,1.1-7.7,1.6-11.8,1.6s-8.2-0.5-11.8-1.6L89.3,329
	c1.1,3.6,1.6,7.5,1.6,11.6c0,25-20.5,45.5-45.5,45.5S0,365.6,0,340.6c0-25,20.5-45.5,45.5-45.5c4.1,0,8,0.5,11.6,1.6l103.6-103.4
	c-1.1-3.6-1.6-7.7-1.6-11.8c0-25,20.5-45.5,45.5-45.5s45.5,20.5,45.5,45.5c0,4.1-0.5,8.2-1.6,11.8l58,58c3.6-1.1,7.7-1.6,11.8-1.6
	s8.2,0.5,11.8,1.6l80.7-80.9c-1.1-3.6-1.6-7.5-1.6-11.6c0-25,20.5-45.5,45.5-45.5C479.5,113.3,500,133.8,500,158.8z"/>
</svg>
