<?xml version="1.0" encoding="utf-8"?>
<!-- Generator: Adobe Illustrator 19.2.1, SVG Export Plug-In . SVG Version: 6.00 Build 0)  -->
<svg version="1.1" id="Layer_1" xmlns="http://www.w3.org/2000/svg" xmlns:xlink="http://www.w3.org/1999/xlink" x="0px" y="0px"
	 width="500px" height="500px" viewBox="0 0 500 500" style="enable-background:new 0 0 500 500;" xml:space="preserve">
<path d="M272.7,159.3c0-50.1-40.6-90.7-90.7-90.7s-90.7,40.6-90.7,90.7S131.8,250,182,250S272.7,209.4,272.7,159.3z"/>
<path d="M0,386.1V431h363v-44.9c0-60.3-120.9-90.7-181.5-90.7S0,325.7,0,386.1z"/>
<path d="M480.9,131H335.8c-10,0-18,8.5-18,18.5l-0.1,163L354,276h127c10,0,19.1-7.4,19.1-17.4V149.8C500,139.8,490.9,131,480.9,131z
	"/>
</svg>
