<?xml version="1.0" encoding="utf-8"?>
<!-- Generator: Adobe Illustrator 19.2.1, SVG Export Plug-In . SVG Version: 6.00 Build 0)  -->
<svg version="1.1" id="Layer_1" xmlns="http://www.w3.org/2000/svg" xmlns:xlink="http://www.w3.org/1999/xlink" x="0px" y="0px"
	 width="500px" height="500px" viewBox="0 0 500 500" style="enable-background:new 0 0 500 500;" xml:space="preserve">
<path d="M160.8,156.6c-15.6,7.5-27.4,15.8-35.3,22.4c0,0,1.6,1.9-24.4,1.9v139.8c0,0,9.3-2,26.1,11.2c16.8,13.3,86.3,72.8,100,71.7
	c7.6,0.8,142.7-24.9,141.7-61.2c0.2-1.1-0.2-2.2-0.2-3.3L249.2,201.4c-3.5-3.8-9.9,0-15.1,3.6c-8.6,5.4-16.3,12.4-24.9,17.8
	c-20.3,14.7-49.3,20.4-71.9,7.5c-12.6-5.4-25.3-25.6-16.7-34.3c13.3-14.6,29.1-26.5,45.2-38C164.2,157.5,162.6,157.1,160.8,156.6z"
	/>
<path d="M249.5,133.3c-11.7,0.1-23.2,1.7-32.9,4.7c-11.9,8.6-71.2,51.6-80.6,60.9c-10.5,10.5,21.5,34.5,52.2,20.4
	c27.3-12.6,45.8-33.5,57.8-34.9c2.5-0.4,4.2-0.5,7.3,2.2L382.4,335c5.8-3.1,13.5-6.1,18.5-5.8V180.4c0,0-69.2-13.6-93-32.3
	C295,138.1,271.9,133.1,249.5,133.3z"/>
<rect x="1" y="169.4" width="66" height="199"/>
<rect x="433" y="168.4" width="66" height="199"/>
</svg>
