<?xml version="1.0" encoding="utf-8"?>
<!-- Generator: Adobe Illustrator 19.2.1, SVG Export Plug-In . SVG Version: 6.00 Build 0)  -->
<svg version="1.1" id="Calque_1" xmlns="http://www.w3.org/2000/svg" xmlns:xlink="http://www.w3.org/1999/xlink" x="0px" y="0px"
	 width="500px" height="500px" viewBox="0 0 500 500" style="enable-background:new 0 0 500 500;" xml:space="preserve">
<path d="M250,68.2V0l-90.9,90.9l90.9,90.9v-68.2c75.2,0,136.4,61.1,136.4,136.4c0,23-5.7,44.8-15.9,63.6l33.2,33.2
	c17.7-28,28.2-61.1,28.2-96.8C431.8,149.5,350.5,68.2,250,68.2z M250,386.4c-75.2,0-136.4-61.1-136.4-136.4c0-23,5.7-44.8,15.9-63.6
	l-33.2-33.2c-17.7,28-28.2,61.1-28.2,96.8c0,100.5,81.4,181.8,181.8,181.8V500l90.9-90.9L250,318.2V386.4z"/>
</svg>
