<?xml version="1.0" encoding="utf-8"?>
<!-- Generator: Adobe Illustrator 19.2.1, SVG Export Plug-In . SVG Version: 6.00 Build 0)  -->
<svg version="1.1" id="Layer_1" xmlns="http://www.w3.org/2000/svg" xmlns:xlink="http://www.w3.org/1999/xlink" x="0px" y="0px"
	 width="500px" height="500px" viewBox="0 0 500 500" enable-background="new 0 0 500 500" xml:space="preserve">
<path d="M250,79.4C136.4,79.4,39.3,150,0,249.8c39.3,99.8,136.4,170.4,250,170.4s210.7-70.7,250-170.4
	C460.7,150,363.6,79.4,250,79.4z M250,363.4c-62.7,0-113.6-50.9-113.6-113.6S187.3,136.2,250,136.2s113.6,50.9,113.6,113.6
	S312.7,363.4,250,363.4z M250,181.6c-37.7,0-68.2,30.5-68.2,68.2S212.3,318,250,318s68.2-30.5,68.2-68.2S287.7,181.6,250,181.6z"/>
</svg>
