<?xml version="1.0" encoding="utf-8"?>
<!-- Generator: Adobe Illustrator 19.2.1, SVG Export Plug-In . SVG Version: 6.00 Build 0)  -->
<svg version="1.1" id="Calque_1" xmlns="http://www.w3.org/2000/svg" xmlns:xlink="http://www.w3.org/1999/xlink" x="0px" y="0px"
	 width="500px" height="500px" viewBox="0 0 500 500" style="enable-background:new 0 0 500 500;" xml:space="preserve">
<path d="M250.1,124.9c62.8,0,113.7,50.9,113.7,113.7c0,14.8-3,28.6-8.2,41.6l66.4,66.4c34.3-28.6,61.4-65.7,78-108
	C460.7,138.8,363.6,68.1,249.9,68.1c-31.8,0-62.3,5.7-90.5,15.9l49.1,49.1C221.5,127.9,235.3,124.9,250.1,124.9z M22.7,62.9
	l51.8,51.8L85,125.2c-37.7,29.3-67.3,68.4-85,113.5c39.3,99.8,136.4,170.5,250.1,170.5c35.2,0,68.9-6.8,99.6-19.1l9.5,9.5l66.6,66.4
	l28.9-28.9L51.6,34L22.7,62.9z M148.5,188.6l35.2,35.2c-1.1,4.8-1.8,9.8-1.8,14.8c0,37.7,30.5,68.2,68.2,68.2c5,0,10-0.7,14.8-1.8
	l35.2,35.2c-15.2,7.5-32.1,12.1-50,12.1c-62.8,0-113.7-50.9-113.7-113.7C136.4,220.7,141,203.8,148.5,188.6z M246.5,170.9l71.6,71.6
	l0.5-3.6c0-37.7-30.5-68.2-68.2-68.2L246.5,170.9z"/>
</svg>
