<svg xmlns="http://www.w3.org/2000/svg" width="115" height="115" viewBox="0 0 115 115">
  <g fill="none">
    <g fill="#4A494D">
      <path d="M44.2 78.6L28.5 78.6C27.7 78.6 27.1 78 27.1 77.3 27.1 76.6 27.7 76 28.5 76L44.2 76C44.9 76 45.5 76.6 45.5 77.3 45.5 78 44.9 78.6 44.2 78.6ZM44.2 83.7L28.5 83.7C27.7 83.7 27.1 83.1 27.1 82.4 27.1 81.7 27.7 81.1 28.5 81.1L44.2 81.1C44.9 81.1 45.5 81.7 45.5 82.4 45.5 83.1 44.9 83.7 44.2 83.7ZM16.5 92.4L56.2 92.4 56.2 70 16.5 70 16.5 92.4ZM58.8 92.4L75.4 92.4 75.4 58.8 71.5 58.8C70.8 58.8 70.2 58.2 70.2 57.5 70.2 56.8 70.8 56.2 71.5 56.2L75.4 56.2 75.4 53.5 71.5 53.5C70.8 53.5 70.2 52.9 70.2 52.2 70.2 51.4 70.8 50.8 71.5 50.8L75.4 50.8 75.4 48.1 71.5 48.1C71.2 48.1 70.8 48 70.6 47.7 70.4 47.5 70.2 47.1 70.2 46.8 70.2 46.1 70.8 45.5 71.5 45.5L75.4 45.5 75.4 42.7 71.5 42.7C71.2 42.7 70.8 42.6 70.6 42.3 70.4 42.1 70.2 41.8 70.2 41.4 70.2 40.7 70.8 40.1 71.5 40.1L75.4 40.1 75.4 26.1 62.4 33.6C62.4 33.6 62.4 33.7 62.4 33.7L45.5 43.5 45.5 67.4 57.5 67.4C58.2 67.4 58.8 68 58.8 68.7L58.8 92.4ZM78 92.4L98.5 92.4 98.5 65.8 78 51.9 78 92.4ZM112.7 95L2.3 95C1.6 95 1 94.4 1 93.7 1 93 1.6 92.4 2.3 92.4L13.9 92.4 13.9 68.7C13.9 68 14.4 67.4 15.2 67.4L42.9 67.4 42.9 42.7C42.9 42.3 43.2 41.8 43.6 41.6L60.4 31.8 60.4 22.6 59.8 22.6C59.1 22.6 58.5 22 58.5 21.3 58.5 20.6 59.1 20 59.8 20L63.7 20C64.1 20 64.6 20.2 64.8 20.6 65.1 21.1 65.1 21.6 64.8 22 64.6 22.4 64.1 22.6 63.7 22.6L63.1 22.6 63.1 30.2 76 22.7C76.4 22.5 76.9 22.5 77.3 22.7 77.7 22.9 78 23.4 78 23.8L78 48.8 100.6 64C100.9 64.2 101.1 64.6 101.1 65.1L101.1 92.4 112.7 92.4C113.4 92.4 114 93 114 93.7 114 94.4 113.4 95 112.7 95Z"/>
    </g>
  </g>
</svg>
