<svg xmlns="http://www.w3.org/2000/svg" width="12" height="13" viewBox="0 0 12 13">
    <path fill="#5C5C5C" fill-rule="evenodd" d="M3.858 12.317a.565.565 0 0 1-.098.436.58.58 0 0 1-.386.233.622.622 0 0 1-.732-.443L.01.683A.564.564 0 0 1 .108.246.58.58 0 0 1 .496.014a.622.622 0 0 1 .73.443l2.632 11.86zM9.971.988C7.657 1.196 7.245.148 5.038.18A10.58 10.58 0 0 0 1.9.729l1.567 7.08a4.443 4.443 0 0 1 1.697-.18c1.001.068 1.377.731 3.618.577a4.136 4.136 0 0 0 2.501-.996L12 .247c-.55.501-1.278.768-2.026.745L9.971.988z"/>
</svg>
