<?xml version="1.0" encoding="utf-8"?>
<!-- Generator: Adobe Illustrator 19.2.1, SVG Export Plug-In . SVG Version: 6.00 Build 0)  -->
<svg version="1.1" id="Layer_1" xmlns="http://www.w3.org/2000/svg" xmlns:xlink="http://www.w3.org/1999/xlink" x="0px" y="0px"
	 width="500px" height="500px" viewBox="0 0 500 500" style="enable-background:new 0 0 500 500;" xml:space="preserve">
<path d="M498.9,355.1L408.3,60.6c-8.9-28.7-35-48.1-65.1-48.1c-37.6,0-68.1,30.6-68.1,68.1v31.9h-50V80.6
	c0-37.6-30.6-68.1-68.1-68.1c-30.1,0-56.2,19.3-65.1,48.1L1.1,355.1C0.4,357.5,0,360,0,362.5V375c0,62.1,50.5,112.5,112.5,112.5
	S225,437.1,225,375V262.5h50V375c0,62.1,50.5,112.5,112.5,112.5S500,437.1,500,375v-12.5C500,360,499.6,357.5,498.9,355.1z
	 M112.5,437.5c-34.4,0-62.5-28-62.5-62.5s28.1-62.5,62.5-62.5s62.5,28,62.5,62.5S146.9,437.5,112.5,437.5z M387.5,437.5
	c-34.5,0-62.5-28-62.5-62.5s28-62.5,62.5-62.5s62.5,28,62.5,62.5S422,437.5,387.5,437.5z"/>
</svg>
