<?xml version="1.0" encoding="utf-8"?>
<!-- Generator: Adobe Illustrator 19.2.1, SVG Export Plug-In . SVG Version: 6.00 Build 0)  -->
<svg version="1.1" id="Calque_1" xmlns="http://www.w3.org/2000/svg" xmlns:xlink="http://www.w3.org/1999/xlink" x="0px" y="0px"
	 width="500px" height="500px" viewBox="0 0 500 500" style="enable-background:new 0 0 500 500;" xml:space="preserve">
<path d="M75.7,87.6c-42,0-75.7,33.7-75.7,75.6v260.4c0,41.9,33.7,75.7,75.7,75.7H336c41.9,0,75.7-33.7,75.7-75.7v-90.9
	c0-16.3-13-29.4-29.3-29.4s-29.3,13.2-29.3,29.4v90.9c0,9.4-7.6,17.1-17.1,17.1H75.7c-9.5,0-17.1-7.7-17.1-17.1V163.2
	c0-9.4,7.7-17.1,17.1-17.1h90.9c16.3,0,29.4-13,29.4-29.3s-13.2-29.3-29.4-29.3H75.7V87.6z"/>
<path d="M148,279.2V354h73.5l216.1-216.8l-73.4-73.6L148,279.2z M494.3,79.7c7.6-7.6,7.6-19.9,0-27.5L448.6,6.5
	c-7.6-7.6-19.9-7.6-27.6,0l-35.8,35.8l73.3,73.3L494.3,79.7z"/>
</svg>
