<?xml version="1.0" encoding="utf-8"?>
<!-- Generator: Adobe Illustrator 19.1.0, SVG Export Plug-In . SVG Version: 6.00 Build 0)  -->
<svg version="1.1" id="Layer_1" xmlns="http://www.w3.org/2000/svg" xmlns:xlink="http://www.w3.org/1999/xlink" x="0px" y="0px"
	 width="500px" height="500px" viewBox="0 0 500 500" enable-background="new 0 0 500 500" xml:space="preserve">
<path d="M1.3,217.5c0,112.6,111.3,203.9,248.7,203.9c11.8,0,23.4-0.7,34.8-2l156.4,68.8l-68-93.6c75-35.1,125.5-101.2,125.5-177.1
	c0-112.6-111.3-203.9-248.7-203.9C112.6,13.6,1.3,104.9,1.3,217.5z M342.1,219.2c2.5-18.5,19.6-31.4,38.1-28.9
	c18.5,2.5,31.5,19.5,29,38c-2.5,18.5-19.6,31.4-38.1,28.9C352.6,254.7,339.6,237.7,342.1,219.2z M221.6,223.8
	c0-18.6,15.2-33.7,33.9-33.7c18.7,0,33.9,15.1,33.9,33.7s-15.2,33.7-33.9,33.7C236.7,257.5,221.6,242.4,221.6,223.8z M101.4,223.8
	c0-18.6,15.2-33.7,33.9-33.7c18.7,0,33.9,15.1,33.9,33.7s-15.2,33.7-33.9,33.7C116.5,257.5,101.4,242.4,101.4,223.8z"/>
</svg>
